<svg width="212" height="117" viewBox="0 0 212 117" fill="none" xmlns="http://www.w3.org/2000/svg">
<g opacity="0.41948">
<path fill-rule="evenodd" clip-rule="evenodd" d="M4.12209 0.779146L3.71788 0.375L2.10105 1.99158L0.484224 0.375L0.0800171 0.779146L1.69685 2.39573L0.0800171 4.01232L0.484224 4.41646L2.10105 2.79988L3.71788 4.41646L4.12209 4.01232L2.50526 2.39573L4.12209 0.779146Z" fill="black"/>
<path fill-rule="evenodd" clip-rule="evenodd" d="M4.12209 9.43942L3.71788 9.03528L2.10105 10.6519L0.484224 9.03528L0.0800171 9.43942L1.69685 11.056L0.0800171 12.6726L0.484224 13.0767L2.10105 11.4602L3.71788 13.0767L4.12209 12.6726L2.50526 11.056L4.12209 9.43942Z" fill="black"/>
<path fill-rule="evenodd" clip-rule="evenodd" d="M12.7836 0.779146L12.3794 0.375L10.7626 1.99158L9.14578 0.375L8.74158 0.779146L10.3584 2.39573L8.74158 4.01232L9.14578 4.41646L10.7626 2.79988L12.3794 4.41646L12.7836 4.01232L11.1668 2.39573L12.7836 0.779146Z" fill="black"/>
<path fill-rule="evenodd" clip-rule="evenodd" d="M12.7836 9.43942L12.3794 9.03528L10.7626 10.6519L9.14578 9.03528L8.74158 9.43942L10.3584 11.056L8.74158 12.6726L9.14578 13.0767L10.7626 11.4602L12.3794 13.0767L12.7836 12.6726L11.1668 11.056L12.7836 9.43942Z" fill="black"/>
<path fill-rule="evenodd" clip-rule="evenodd" d="M21.4453 0.779146L21.0411 0.375L19.4242 1.99158L17.8074 0.375L17.4032 0.779146L19.02 2.39573L17.4032 4.01232L17.8074 4.41646L19.4242 2.79988L21.0411 4.41646L21.4453 4.01232L19.8284 2.39573L21.4453 0.779146Z" fill="black"/>
<path fill-rule="evenodd" clip-rule="evenodd" d="M21.4453 9.43942L21.0411 9.03528L19.4242 10.6519L17.8074 9.03528L17.4032 9.43942L19.02 11.056L17.4032 12.6726L17.8074 13.0767L19.4242 11.4602L21.0411 13.0767L21.4453 12.6726L19.8284 11.056L21.4453 9.43942Z" fill="black"/>
<path fill-rule="evenodd" clip-rule="evenodd" d="M30.1068 0.779146L29.7026 0.375L28.0858 1.99158L26.469 0.375L26.0648 0.779146L27.6816 2.39573L26.0648 4.01232L26.469 4.41646L28.0858 2.79988L29.7026 4.41646L30.1068 4.01232L28.49 2.39573L30.1068 0.779146Z" fill="black"/>
<path fill-rule="evenodd" clip-rule="evenodd" d="M30.1068 9.43942L29.7026 9.03528L28.0858 10.6519L26.469 9.03528L26.0648 9.43942L27.6816 11.056L26.0648 12.6726L26.469 13.0767L28.0858 11.4602L29.7026 13.0767L30.1068 12.6726L28.49 11.056L30.1068 9.43942Z" fill="black"/>
<path fill-rule="evenodd" clip-rule="evenodd" d="M38.7684 0.779146L38.3642 0.375L36.7474 1.99158L35.1305 0.375L34.7263 0.779146L36.3431 2.39573L34.7263 4.01232L35.1305 4.41646L36.7474 2.79988L38.3642 4.41646L38.7684 4.01232L37.1516 2.39573L38.7684 0.779146Z" fill="black"/>
<path fill-rule="evenodd" clip-rule="evenodd" d="M38.7684 9.43942L38.3642 9.03528L36.7474 10.6519L35.1305 9.03528L34.7263 9.43942L36.3431 11.056L34.7263 12.6726L35.1305 13.0767L36.7474 11.4602L38.3642 13.0767L38.7684 12.6726L37.1516 11.056L38.7684 9.43942Z" fill="black"/>
<path fill-rule="evenodd" clip-rule="evenodd" d="M47.43 0.779146L47.0258 0.375L45.409 1.99158L43.7921 0.375L43.3879 0.779146L45.0048 2.39573L43.3879 4.01232L43.7921 4.41646L45.409 2.79988L47.0258 4.41646L47.43 4.01232L45.8132 2.39573L47.43 0.779146Z" fill="black"/>
<path fill-rule="evenodd" clip-rule="evenodd" d="M47.43 9.43942L47.0258 9.03528L45.409 10.6519L43.7921 9.03528L43.3879 9.43942L45.0048 11.056L43.3879 12.6726L43.7921 13.0767L45.409 11.4602L47.0258 13.0767L47.43 12.6726L45.8132 11.056L47.43 9.43942Z" fill="black"/>
<path fill-rule="evenodd" clip-rule="evenodd" d="M56.0916 0.779146L55.6874 0.375L54.0705 1.99158L52.4537 0.375L52.0495 0.779146L53.6663 2.39573L52.0495 4.01232L52.4537 4.41646L54.0705 2.79988L55.6874 4.41646L56.0916 4.01232L54.4747 2.39573L56.0916 0.779146Z" fill="black"/>
<path fill-rule="evenodd" clip-rule="evenodd" d="M56.0916 9.43942L55.6874 9.03528L54.0705 10.6519L52.4537 9.03528L52.0495 9.43942L53.6663 11.056L52.0495 12.6726L52.4537 13.0767L54.0705 11.4602L55.6874 13.0767L56.0916 12.6726L54.4747 11.056L56.0916 9.43942Z" fill="black"/>
<path fill-rule="evenodd" clip-rule="evenodd" d="M64.7531 0.779146L64.3489 0.375L62.7321 1.99158L61.1153 0.375L60.7111 0.779146L62.3279 2.39573L60.7111 4.01232L61.1153 4.41646L62.7321 2.79988L64.3489 4.41646L64.7531 4.01232L63.1363 2.39573L64.7531 0.779146Z" fill="black"/>
<path fill-rule="evenodd" clip-rule="evenodd" d="M64.7531 9.43942L64.3489 9.03528L62.7321 10.6519L61.1153 9.03528L60.7111 9.43942L62.3279 11.056L60.7111 12.6726L61.1153 13.0767L62.7321 11.4602L64.3489 13.0767L64.7531 12.6726L63.1363 11.056L64.7531 9.43942Z" fill="black"/>
<path fill-rule="evenodd" clip-rule="evenodd" d="M73.4148 0.779146L73.0105 0.375L71.3937 1.99158L69.7769 0.375L69.3727 0.779146L70.9895 2.39573L69.3727 4.01232L69.7769 4.41646L71.3937 2.79988L73.0105 4.41646L73.4148 4.01232L71.7979 2.39573L73.4148 0.779146Z" fill="black"/>
<path fill-rule="evenodd" clip-rule="evenodd" d="M73.4148 9.43942L73.0105 9.03528L71.3937 10.6519L69.7769 9.03528L69.3727 9.43942L70.9895 11.056L69.3727 12.6726L69.7769 13.0767L71.3937 11.4602L73.0105 13.0767L73.4148 12.6726L71.7979 11.056L73.4148 9.43942Z" fill="black"/>
<path fill-rule="evenodd" clip-rule="evenodd" d="M82.0763 0.779146L81.6721 0.375L80.0553 1.99158L78.4384 0.375L78.0342 0.779146L79.6511 2.39573L78.0342 4.01232L78.4384 4.41646L80.0553 2.79988L81.6721 4.41646L82.0763 4.01232L80.4595 2.39573L82.0763 0.779146Z" fill="black"/>
<path fill-rule="evenodd" clip-rule="evenodd" d="M82.0763 9.43942L81.6721 9.03528L80.0553 10.6519L78.4384 9.03528L78.0342 9.43942L79.6511 11.056L78.0342 12.6726L78.4384 13.0767L80.0553 11.4602L81.6721 13.0767L82.0763 12.6726L80.4595 11.056L82.0763 9.43942Z" fill="black"/>
<path fill-rule="evenodd" clip-rule="evenodd" d="M90.7379 0.779146L90.3337 0.375L88.7168 1.99158L87.1 0.375L86.6958 0.779146L88.3126 2.39573L86.6958 4.01232L87.1 4.41646L88.7168 2.79988L90.3337 4.41646L90.7379 4.01232L89.121 2.39573L90.7379 0.779146Z" fill="black"/>
<path fill-rule="evenodd" clip-rule="evenodd" d="M90.7379 9.43942L90.3337 9.03528L88.7168 10.6519L87.1 9.03528L86.6958 9.43942L88.3126 11.056L86.6958 12.6726L87.1 13.0767L88.7168 11.4602L90.3337 13.0767L90.7379 12.6726L89.121 11.056L90.7379 9.43942Z" fill="black"/>
<path fill-rule="evenodd" clip-rule="evenodd" d="M99.3995 0.779146L98.9953 0.375L97.3785 1.99158L95.7616 0.375L95.3574 0.779146L96.9743 2.39573L95.3574 4.01232L95.7616 4.41646L97.3785 2.79988L98.9953 4.41646L99.3995 4.01232L97.7827 2.39573L99.3995 0.779146Z" fill="black"/>
<path fill-rule="evenodd" clip-rule="evenodd" d="M99.3995 9.43942L98.9953 9.03528L97.3785 10.6519L95.7616 9.03528L95.3574 9.43942L96.9743 11.056L95.3574 12.6726L95.7616 13.0767L97.3785 11.4602L98.9953 13.0767L99.3995 12.6726L97.7827 11.056L99.3995 9.43942Z" fill="black"/>
<path fill-rule="evenodd" clip-rule="evenodd" d="M108.061 0.779146L107.657 0.375L106.04 1.99158L104.423 0.375L104.019 0.779146L105.636 2.39573L104.019 4.01232L104.423 4.41646L106.04 2.79988L107.657 4.41646L108.061 4.01232L106.444 2.39573L108.061 0.779146Z" fill="black"/>
<path fill-rule="evenodd" clip-rule="evenodd" d="M108.061 9.43942L107.657 9.03528L106.04 10.6519L104.423 9.03528L104.019 9.43942L105.636 11.056L104.019 12.6726L104.423 13.0767L106.04 11.4602L107.657 13.0767L108.061 12.6726L106.444 11.056L108.061 9.43942Z" fill="black"/>
<path fill-rule="evenodd" clip-rule="evenodd" d="M116.723 0.779146L116.318 0.375L114.702 1.99158L113.085 0.375L112.681 0.779146L114.297 2.39573L112.681 4.01232L113.085 4.41646L114.702 2.79988L116.318 4.41646L116.723 4.01232L115.106 2.39573L116.723 0.779146Z" fill="black"/>
<path fill-rule="evenodd" clip-rule="evenodd" d="M116.723 9.43942L116.318 9.03528L114.702 10.6519L113.085 9.03528L112.681 9.43942L114.297 11.056L112.681 12.6726L113.085 13.0767L114.702 11.4602L116.318 13.0767L116.723 12.6726L115.106 11.056L116.723 9.43942Z" fill="black"/>
<path fill-rule="evenodd" clip-rule="evenodd" d="M125.384 0.779146L124.98 0.375L123.363 1.99158L121.746 0.375L121.342 0.779146L122.959 2.39573L121.342 4.01232L121.746 4.41646L123.363 2.79988L124.98 4.41646L125.384 4.01232L123.767 2.39573L125.384 0.779146Z" fill="black"/>
<path fill-rule="evenodd" clip-rule="evenodd" d="M125.384 9.43942L124.98 9.03528L123.363 10.6519L121.746 9.03528L121.342 9.43942L122.959 11.056L121.342 12.6726L121.746 13.0767L123.363 11.4602L124.98 13.0767L125.384 12.6726L123.767 11.056L125.384 9.43942Z" fill="black"/>
<path fill-rule="evenodd" clip-rule="evenodd" d="M134.046 0.779146L133.642 0.375L132.025 1.99158L130.408 0.375L130.004 0.779146L131.621 2.39573L130.004 4.01232L130.408 4.41646L132.025 2.79988L133.642 4.41646L134.046 4.01232L132.429 2.39573L134.046 0.779146Z" fill="black"/>
<path fill-rule="evenodd" clip-rule="evenodd" d="M134.046 9.43942L133.642 9.03528L132.025 10.6519L130.408 9.03528L130.004 9.43942L131.621 11.056L130.004 12.6726L130.408 13.0767L132.025 11.4602L133.642 13.0767L134.046 12.6726L132.429 11.056L134.046 9.43942Z" fill="black"/>
<path fill-rule="evenodd" clip-rule="evenodd" d="M142.707 0.779146L142.303 0.375L140.686 1.99158L139.069 0.375L138.665 0.779146L140.282 2.39573L138.665 4.01232L139.069 4.41646L140.686 2.79988L142.303 4.41646L142.707 4.01232L141.091 2.39573L142.707 0.779146Z" fill="black"/>
<path fill-rule="evenodd" clip-rule="evenodd" d="M142.707 9.43942L142.303 9.03528L140.686 10.6519L139.069 9.03528L138.665 9.43942L140.282 11.056L138.665 12.6726L139.069 13.0767L140.686 11.4602L142.303 13.0767L142.707 12.6726L141.091 11.056L142.707 9.43942Z" fill="black"/>
<path fill-rule="evenodd" clip-rule="evenodd" d="M151.369 0.779146L150.965 0.375L149.348 1.99158L147.731 0.375L147.327 0.779146L148.944 2.39573L147.327 4.01232L147.731 4.41646L149.348 2.79988L150.965 4.41646L151.369 4.01232L149.752 2.39573L151.369 0.779146Z" fill="black"/>
<path fill-rule="evenodd" clip-rule="evenodd" d="M151.369 9.43942L150.965 9.03528L149.348 10.6519L147.731 9.03528L147.327 9.43942L148.944 11.056L147.327 12.6726L147.731 13.0767L149.348 11.4602L150.965 13.0767L151.369 12.6726L149.752 11.056L151.369 9.43942Z" fill="black"/>
<path fill-rule="evenodd" clip-rule="evenodd" d="M160.031 0.779146L159.626 0.375L158.009 1.99158L156.393 0.375L155.988 0.779146L157.605 2.39573L155.988 4.01232L156.393 4.41646L158.009 2.79988L159.626 4.41646L160.031 4.01232L158.414 2.39573L160.031 0.779146Z" fill="black"/>
<path fill-rule="evenodd" clip-rule="evenodd" d="M160.031 9.43942L159.626 9.03528L158.009 10.6519L156.393 9.03528L155.988 9.43942L157.605 11.056L155.988 12.6726L156.393 13.0767L158.009 11.4602L159.626 13.0767L160.031 12.6726L158.414 11.056L160.031 9.43942Z" fill="black"/>
<path fill-rule="evenodd" clip-rule="evenodd" d="M168.692 0.779146L168.288 0.375L166.671 1.99158L165.054 0.375L164.65 0.779146L166.267 2.39573L164.65 4.01232L165.054 4.41646L166.671 2.79988L168.288 4.41646L168.692 4.01232L167.075 2.39573L168.692 0.779146Z" fill="black"/>
<path fill-rule="evenodd" clip-rule="evenodd" d="M168.692 9.43942L168.288 9.03528L166.671 10.6519L165.054 9.03528L164.65 9.43942L166.267 11.056L164.65 12.6726L165.054 13.0767L166.671 11.4602L168.288 13.0767L168.692 12.6726L167.075 11.056L168.692 9.43942Z" fill="black"/>
<path fill-rule="evenodd" clip-rule="evenodd" d="M177.354 0.779146L176.95 0.375L175.333 1.99158L173.716 0.375L173.312 0.779146L174.928 2.39573L173.312 4.01232L173.716 4.41646L175.333 2.79988L176.95 4.41646L177.354 4.01232L175.737 2.39573L177.354 0.779146Z" fill="black"/>
<path fill-rule="evenodd" clip-rule="evenodd" d="M177.354 9.43942L176.95 9.03528L175.333 10.6519L173.716 9.03528L173.312 9.43942L174.928 11.056L173.312 12.6726L173.716 13.0767L175.333 11.4602L176.95 13.0767L177.354 12.6726L175.737 11.056L177.354 9.43942Z" fill="black"/>
<path fill-rule="evenodd" clip-rule="evenodd" d="M186.015 0.779146L185.611 0.375L183.994 1.99158L182.377 0.375L181.973 0.779146L183.59 2.39573L181.973 4.01232L182.377 4.41646L183.994 2.79988L185.611 4.41646L186.015 4.01232L184.398 2.39573L186.015 0.779146Z" fill="black"/>
<path fill-rule="evenodd" clip-rule="evenodd" d="M186.015 9.43942L185.611 9.03528L183.994 10.6519L182.377 9.03528L181.973 9.43942L183.59 11.056L181.973 12.6726L182.377 13.0767L183.994 11.4602L185.611 13.0767L186.015 12.6726L184.398 11.056L186.015 9.43942Z" fill="black"/>
<path fill-rule="evenodd" clip-rule="evenodd" d="M194.677 0.779146L194.273 0.375L192.656 1.99158L191.039 0.375L190.635 0.779146L192.252 2.39573L190.635 4.01232L191.039 4.41646L192.656 2.79988L194.273 4.41646L194.677 4.01232L193.06 2.39573L194.677 0.779146Z" fill="black"/>
<path fill-rule="evenodd" clip-rule="evenodd" d="M194.677 9.43942L194.273 9.03528L192.656 10.6519L191.039 9.03528L190.635 9.43942L192.252 11.056L190.635 12.6726L191.039 13.0767L192.656 11.4602L194.273 13.0767L194.677 12.6726L193.06 11.056L194.677 9.43942Z" fill="black"/>
<path fill-rule="evenodd" clip-rule="evenodd" d="M203.338 0.779146L202.934 0.375L201.317 1.99158L199.701 0.375L199.296 0.779146L200.913 2.39573L199.296 4.01232L199.701 4.41646L201.317 2.79988L202.934 4.41646L203.338 4.01232L201.722 2.39573L203.338 0.779146Z" fill="black"/>
<path fill-rule="evenodd" clip-rule="evenodd" d="M203.338 9.43942L202.934 9.03528L201.317 10.6519L199.701 9.03528L199.296 9.43942L200.913 11.056L199.296 12.6726L199.701 13.0767L201.317 11.4602L202.934 13.0767L203.338 12.6726L201.722 11.056L203.338 9.43942Z" fill="black"/>
<path fill-rule="evenodd" clip-rule="evenodd" d="M211.879 0.779146L211.475 0.375L209.858 1.99158L208.241 0.375L207.837 0.779146L209.454 2.39573L207.837 4.01232L208.241 4.41646L209.858 2.79988L211.475 4.41646L211.879 4.01232L210.263 2.39573L211.879 0.779146Z" fill="black"/>
<path fill-rule="evenodd" clip-rule="evenodd" d="M211.879 9.48813L211.475 9.08398L209.858 10.7006L208.241 9.08398L207.837 9.48813L209.454 11.1047L207.837 12.7213L208.241 13.1254L209.858 11.5089L211.475 13.1254L211.879 12.7213L210.263 11.1047L211.879 9.48813Z" fill="black"/>
<path fill-rule="evenodd" clip-rule="evenodd" d="M4.12209 18.0997L3.71788 17.6956L2.10105 19.3121L0.484224 17.6956L0.0800171 18.0997L1.69685 19.7163L0.0800171 21.3329L0.484224 21.737L2.10105 20.1204L3.71788 21.737L4.12209 21.3329L2.50526 19.7163L4.12209 18.0997Z" fill="black"/>
<path fill-rule="evenodd" clip-rule="evenodd" d="M12.7836 18.0997L12.3794 17.6956L10.7626 19.3121L9.14578 17.6956L8.74158 18.0997L10.3584 19.7163L8.74158 21.3329L9.14578 21.737L10.7626 20.1204L12.3794 21.737L12.7836 21.3329L11.1668 19.7163L12.7836 18.0997Z" fill="black"/>
<path fill-rule="evenodd" clip-rule="evenodd" d="M21.4453 18.0997L21.0411 17.6956L19.4242 19.3121L17.8074 17.6956L17.4032 18.0997L19.02 19.7163L17.4032 21.3329L17.8074 21.737L19.4242 20.1204L21.0411 21.737L21.4453 21.3329L19.8284 19.7163L21.4453 18.0997Z" fill="black"/>
<path fill-rule="evenodd" clip-rule="evenodd" d="M30.1068 18.0997L29.7026 17.6956L28.0858 19.3121L26.469 17.6956L26.0648 18.0997L27.6816 19.7163L26.0648 21.3329L26.469 21.737L28.0858 20.1204L29.7026 21.737L30.1068 21.3329L28.49 19.7163L30.1068 18.0997Z" fill="black"/>
<path fill-rule="evenodd" clip-rule="evenodd" d="M38.7684 18.0997L38.3642 17.6956L36.7474 19.3121L35.1305 17.6956L34.7263 18.0997L36.3431 19.7163L34.7263 21.3329L35.1305 21.737L36.7474 20.1204L38.3642 21.737L38.7684 21.3329L37.1516 19.7163L38.7684 18.0997Z" fill="black"/>
<path fill-rule="evenodd" clip-rule="evenodd" d="M47.43 18.0997L47.0258 17.6956L45.409 19.3121L43.7921 17.6956L43.3879 18.0997L45.0048 19.7163L43.3879 21.3329L43.7921 21.737L45.409 20.1204L47.0258 21.737L47.43 21.3329L45.8132 19.7163L47.43 18.0997Z" fill="black"/>
<path fill-rule="evenodd" clip-rule="evenodd" d="M56.0916 18.0997L55.6874 17.6956L54.0705 19.3121L52.4537 17.6956L52.0495 18.0997L53.6663 19.7163L52.0495 21.3329L52.4537 21.737L54.0705 20.1204L55.6874 21.737L56.0916 21.3329L54.4747 19.7163L56.0916 18.0997Z" fill="black"/>
<path fill-rule="evenodd" clip-rule="evenodd" d="M64.7531 18.0997L64.3489 17.6956L62.7321 19.3121L61.1153 17.6956L60.7111 18.0997L62.3279 19.7163L60.7111 21.3329L61.1153 21.737L62.7321 20.1204L64.3489 21.737L64.7531 21.3329L63.1363 19.7163L64.7531 18.0997Z" fill="black"/>
<path fill-rule="evenodd" clip-rule="evenodd" d="M73.4148 18.0997L73.0105 17.6956L71.3937 19.3121L69.7769 17.6956L69.3727 18.0997L70.9895 19.7163L69.3727 21.3329L69.7769 21.737L71.3937 20.1204L73.0105 21.737L73.4148 21.3329L71.7979 19.7163L73.4148 18.0997Z" fill="black"/>
<path fill-rule="evenodd" clip-rule="evenodd" d="M82.0763 18.0997L81.6721 17.6956L80.0553 19.3121L78.4384 17.6956L78.0342 18.0997L79.6511 19.7163L78.0342 21.3329L78.4384 21.737L80.0553 20.1204L81.6721 21.737L82.0763 21.3329L80.4595 19.7163L82.0763 18.0997Z" fill="black"/>
<path fill-rule="evenodd" clip-rule="evenodd" d="M90.7379 18.0997L90.3337 17.6956L88.7168 19.3121L87.1 17.6956L86.6958 18.0997L88.3126 19.7163L86.6958 21.3329L87.1 21.737L88.7168 20.1204L90.3337 21.737L90.7379 21.3329L89.121 19.7163L90.7379 18.0997Z" fill="black"/>
<path fill-rule="evenodd" clip-rule="evenodd" d="M99.3995 18.0997L98.9953 17.6956L97.3785 19.3121L95.7616 17.6956L95.3574 18.0997L96.9743 19.7163L95.3574 21.3329L95.7616 21.737L97.3785 20.1204L98.9953 21.737L99.3995 21.3329L97.7827 19.7163L99.3995 18.0997Z" fill="black"/>
<path fill-rule="evenodd" clip-rule="evenodd" d="M108.061 18.0997L107.657 17.6956L106.04 19.3121L104.423 17.6956L104.019 18.0997L105.636 19.7163L104.019 21.3329L104.423 21.737L106.04 20.1204L107.657 21.737L108.061 21.3329L106.444 19.7163L108.061 18.0997Z" fill="black"/>
<path fill-rule="evenodd" clip-rule="evenodd" d="M116.723 18.0997L116.318 17.6956L114.702 19.3121L113.085 17.6956L112.681 18.0997L114.297 19.7163L112.681 21.3329L113.085 21.737L114.702 20.1204L116.318 21.737L116.723 21.3329L115.106 19.7163L116.723 18.0997Z" fill="black"/>
<path fill-rule="evenodd" clip-rule="evenodd" d="M125.384 18.0997L124.98 17.6956L123.363 19.3121L121.746 17.6956L121.342 18.0997L122.959 19.7163L121.342 21.3329L121.746 21.737L123.363 20.1204L124.98 21.737L125.384 21.3329L123.767 19.7163L125.384 18.0997Z" fill="black"/>
<path fill-rule="evenodd" clip-rule="evenodd" d="M134.046 18.0997L133.642 17.6956L132.025 19.3121L130.408 17.6956L130.004 18.0997L131.621 19.7163L130.004 21.3329L130.408 21.737L132.025 20.1204L133.642 21.737L134.046 21.3329L132.429 19.7163L134.046 18.0997Z" fill="black"/>
<path fill-rule="evenodd" clip-rule="evenodd" d="M142.707 18.0997L142.303 17.6956L140.686 19.3121L139.069 17.6956L138.665 18.0997L140.282 19.7163L138.665 21.3329L139.069 21.737L140.686 20.1204L142.303 21.737L142.707 21.3329L141.091 19.7163L142.707 18.0997Z" fill="black"/>
<path fill-rule="evenodd" clip-rule="evenodd" d="M151.369 18.0997L150.965 17.6956L149.348 19.3121L147.731 17.6956L147.327 18.0997L148.944 19.7163L147.327 21.3329L147.731 21.737L149.348 20.1204L150.965 21.737L151.369 21.3329L149.752 19.7163L151.369 18.0997Z" fill="black"/>
<path fill-rule="evenodd" clip-rule="evenodd" d="M160.031 18.0997L159.626 17.6956L158.009 19.3121L156.393 17.6956L155.988 18.0997L157.605 19.7163L155.988 21.3329L156.393 21.737L158.009 20.1204L159.626 21.737L160.031 21.3329L158.414 19.7163L160.031 18.0997Z" fill="black"/>
<path fill-rule="evenodd" clip-rule="evenodd" d="M168.692 18.0997L168.288 17.6956L166.671 19.3121L165.054 17.6956L164.65 18.0997L166.267 19.7163L164.65 21.3329L165.054 21.737L166.671 20.1204L168.288 21.737L168.692 21.3329L167.075 19.7163L168.692 18.0997Z" fill="black"/>
<path fill-rule="evenodd" clip-rule="evenodd" d="M177.354 18.0997L176.95 17.6956L175.333 19.3121L173.716 17.6956L173.312 18.0997L174.928 19.7163L173.312 21.3329L173.716 21.737L175.333 20.1204L176.95 21.737L177.354 21.3329L175.737 19.7163L177.354 18.0997Z" fill="black"/>
<path fill-rule="evenodd" clip-rule="evenodd" d="M186.015 18.0997L185.611 17.6956L183.994 19.3121L182.377 17.6956L181.973 18.0997L183.59 19.7163L181.973 21.3329L182.377 21.737L183.994 20.1204L185.611 21.737L186.015 21.3329L184.398 19.7163L186.015 18.0997Z" fill="black"/>
<path fill-rule="evenodd" clip-rule="evenodd" d="M194.677 18.0997L194.273 17.6956L192.656 19.3121L191.039 17.6956L190.635 18.0997L192.252 19.7163L190.635 21.3329L191.039 21.737L192.656 20.1204L194.273 21.737L194.677 21.3329L193.06 19.7163L194.677 18.0997Z" fill="black"/>
<path fill-rule="evenodd" clip-rule="evenodd" d="M203.338 18.0997L202.934 17.6956L201.317 19.3121L199.701 17.6956L199.296 18.0997L200.913 19.7163L199.296 21.3329L199.701 21.737L201.317 20.1204L202.934 21.737L203.338 21.3329L201.722 19.7163L203.338 18.0997Z" fill="black"/>
<path fill-rule="evenodd" clip-rule="evenodd" d="M211.879 18.1972L211.475 17.793L209.858 19.4096L208.241 17.793L207.837 18.1972L209.454 19.8138L207.837 21.4303L208.241 21.8345L209.858 20.2179L211.475 21.8345L211.879 21.4303L210.263 19.8138L211.879 18.1972Z" fill="black"/>
<path fill-rule="evenodd" clip-rule="evenodd" d="M4.12209 26.76L3.71788 26.3558L2.10105 27.9724L0.484224 26.3558L0.0800171 26.76L1.69685 28.3766L0.0800171 29.9931L0.484224 30.3973L2.10105 28.7807L3.71788 30.3973L4.12209 29.9931L2.50526 28.3766L4.12209 26.76Z" fill="black"/>
<path fill-rule="evenodd" clip-rule="evenodd" d="M12.7836 26.76L12.3794 26.3558L10.7626 27.9724L9.14578 26.3558L8.74158 26.76L10.3584 28.3766L8.74158 29.9931L9.14578 30.3973L10.7626 28.7807L12.3794 30.3973L12.7836 29.9931L11.1668 28.3766L12.7836 26.76Z" fill="black"/>
<path fill-rule="evenodd" clip-rule="evenodd" d="M21.4453 26.76L21.0411 26.3558L19.4242 27.9724L17.8074 26.3558L17.4032 26.76L19.02 28.3766L17.4032 29.9931L17.8074 30.3973L19.4242 28.7807L21.0411 30.3973L21.4453 29.9931L19.8284 28.3766L21.4453 26.76Z" fill="black"/>
<path fill-rule="evenodd" clip-rule="evenodd" d="M30.1068 26.76L29.7026 26.3558L28.0858 27.9724L26.469 26.3558L26.0648 26.76L27.6816 28.3766L26.0648 29.9931L26.469 30.3973L28.0858 28.7807L29.7026 30.3973L30.1068 29.9931L28.49 28.3766L30.1068 26.76Z" fill="black"/>
<path fill-rule="evenodd" clip-rule="evenodd" d="M38.7684 26.76L38.3642 26.3558L36.7474 27.9724L35.1305 26.3558L34.7263 26.76L36.3431 28.3766L34.7263 29.9931L35.1305 30.3973L36.7474 28.7807L38.3642 30.3973L38.7684 29.9931L37.1516 28.3766L38.7684 26.76Z" fill="black"/>
<path fill-rule="evenodd" clip-rule="evenodd" d="M47.43 26.76L47.0258 26.3558L45.409 27.9724L43.7921 26.3558L43.3879 26.76L45.0048 28.3766L43.3879 29.9931L43.7921 30.3973L45.409 28.7807L47.0258 30.3973L47.43 29.9931L45.8132 28.3766L47.43 26.76Z" fill="black"/>
<path fill-rule="evenodd" clip-rule="evenodd" d="M56.0916 26.76L55.6874 26.3558L54.0705 27.9724L52.4537 26.3558L52.0495 26.76L53.6663 28.3766L52.0495 29.9931L52.4537 30.3973L54.0705 28.7807L55.6874 30.3973L56.0916 29.9931L54.4747 28.3766L56.0916 26.76Z" fill="black"/>
<path fill-rule="evenodd" clip-rule="evenodd" d="M64.7531 26.76L64.3489 26.3558L62.7321 27.9724L61.1153 26.3558L60.7111 26.76L62.3279 28.3766L60.7111 29.9931L61.1153 30.3973L62.7321 28.7807L64.3489 30.3973L64.7531 29.9931L63.1363 28.3766L64.7531 26.76Z" fill="black"/>
<path fill-rule="evenodd" clip-rule="evenodd" d="M73.4148 26.76L73.0105 26.3558L71.3937 27.9724L69.7769 26.3558L69.3727 26.76L70.9895 28.3766L69.3727 29.9931L69.7769 30.3973L71.3937 28.7807L73.0105 30.3973L73.4148 29.9931L71.7979 28.3766L73.4148 26.76Z" fill="black"/>
<path fill-rule="evenodd" clip-rule="evenodd" d="M82.0763 26.76L81.6721 26.3558L80.0553 27.9724L78.4384 26.3558L78.0342 26.76L79.6511 28.3766L78.0342 29.9931L78.4384 30.3973L80.0553 28.7807L81.6721 30.3973L82.0763 29.9931L80.4595 28.3766L82.0763 26.76Z" fill="black"/>
<path fill-rule="evenodd" clip-rule="evenodd" d="M90.7379 26.76L90.3337 26.3558L88.7168 27.9724L87.1 26.3558L86.6958 26.76L88.3126 28.3766L86.6958 29.9931L87.1 30.3973L88.7168 28.7807L90.3337 30.3973L90.7379 29.9931L89.121 28.3766L90.7379 26.76Z" fill="black"/>
<path fill-rule="evenodd" clip-rule="evenodd" d="M99.3995 26.76L98.9953 26.3558L97.3785 27.9724L95.7616 26.3558L95.3574 26.76L96.9743 28.3766L95.3574 29.9931L95.7616 30.3973L97.3785 28.7807L98.9953 30.3973L99.3995 29.9931L97.7827 28.3766L99.3995 26.76Z" fill="black"/>
<path fill-rule="evenodd" clip-rule="evenodd" d="M108.061 26.76L107.657 26.3558L106.04 27.9724L104.423 26.3558L104.019 26.76L105.636 28.3766L104.019 29.9931L104.423 30.3973L106.04 28.7807L107.657 30.3973L108.061 29.9931L106.444 28.3766L108.061 26.76Z" fill="black"/>
<path fill-rule="evenodd" clip-rule="evenodd" d="M116.723 26.76L116.318 26.3558L114.702 27.9724L113.085 26.3558L112.681 26.76L114.297 28.3766L112.681 29.9931L113.085 30.3973L114.702 28.7807L116.318 30.3973L116.723 29.9931L115.106 28.3766L116.723 26.76Z" fill="black"/>
<path fill-rule="evenodd" clip-rule="evenodd" d="M125.384 26.76L124.98 26.3558L123.363 27.9724L121.746 26.3558L121.342 26.76L122.959 28.3766L121.342 29.9931L121.746 30.3973L123.363 28.7807L124.98 30.3973L125.384 29.9931L123.767 28.3766L125.384 26.76Z" fill="black"/>
<path fill-rule="evenodd" clip-rule="evenodd" d="M134.046 26.76L133.642 26.3558L132.025 27.9724L130.408 26.3558L130.004 26.76L131.621 28.3766L130.004 29.9931L130.408 30.3973L132.025 28.7807L133.642 30.3973L134.046 29.9931L132.429 28.3766L134.046 26.76Z" fill="black"/>
<path fill-rule="evenodd" clip-rule="evenodd" d="M142.707 26.76L142.303 26.3558L140.686 27.9724L139.069 26.3558L138.665 26.76L140.282 28.3766L138.665 29.9931L139.069 30.3973L140.686 28.7807L142.303 30.3973L142.707 29.9931L141.091 28.3766L142.707 26.76Z" fill="black"/>
<path fill-rule="evenodd" clip-rule="evenodd" d="M151.369 26.76L150.965 26.3558L149.348 27.9724L147.731 26.3558L147.327 26.76L148.944 28.3766L147.327 29.9931L147.731 30.3973L149.348 28.7807L150.965 30.3973L151.369 29.9931L149.752 28.3766L151.369 26.76Z" fill="black"/>
<path fill-rule="evenodd" clip-rule="evenodd" d="M160.031 26.76L159.626 26.3558L158.009 27.9724L156.393 26.3558L155.988 26.76L157.605 28.3766L155.988 29.9931L156.393 30.3973L158.009 28.7807L159.626 30.3973L160.031 29.9931L158.414 28.3766L160.031 26.76Z" fill="black"/>
<path fill-rule="evenodd" clip-rule="evenodd" d="M168.692 26.76L168.288 26.3558L166.671 27.9724L165.054 26.3558L164.65 26.76L166.267 28.3766L164.65 29.9931L165.054 30.3973L166.671 28.7807L168.288 30.3973L168.692 29.9931L167.075 28.3766L168.692 26.76Z" fill="black"/>
<path fill-rule="evenodd" clip-rule="evenodd" d="M177.354 26.76L176.95 26.3558L175.333 27.9724L173.716 26.3558L173.312 26.76L174.928 28.3766L173.312 29.9931L173.716 30.3973L175.333 28.7807L176.95 30.3973L177.354 29.9931L175.737 28.3766L177.354 26.76Z" fill="black"/>
<path fill-rule="evenodd" clip-rule="evenodd" d="M186.015 26.76L185.611 26.3558L183.994 27.9724L182.377 26.3558L181.973 26.76L183.59 28.3766L181.973 29.9931L182.377 30.3973L183.994 28.7807L185.611 30.3973L186.015 29.9931L184.398 28.3766L186.015 26.76Z" fill="black"/>
<path fill-rule="evenodd" clip-rule="evenodd" d="M194.677 26.76L194.273 26.3558L192.656 27.9724L191.039 26.3558L190.635 26.76L192.252 28.3766L190.635 29.9931L191.039 30.3973L192.656 28.7807L194.273 30.3973L194.677 29.9931L193.06 28.3766L194.677 26.76Z" fill="black"/>
<path fill-rule="evenodd" clip-rule="evenodd" d="M203.338 26.76L202.934 26.3558L201.317 27.9724L199.701 26.3558L199.296 26.76L200.913 28.3766L199.296 29.9931L199.701 30.3973L201.317 28.7807L202.934 30.3973L203.338 29.9931L201.722 28.3766L203.338 26.76Z" fill="black"/>
<path fill-rule="evenodd" clip-rule="evenodd" d="M211.879 26.9062L211.475 26.502L209.858 28.1186L208.241 26.502L207.837 26.9062L209.454 28.5227L207.837 30.1393L208.241 30.5435L209.858 28.9269L211.475 30.5435L211.879 30.1393L210.263 28.5227L211.879 26.9062Z" fill="black"/>
<path fill-rule="evenodd" clip-rule="evenodd" d="M4.12209 35.4203L3.71788 35.0161L2.10105 36.6327L0.484224 35.0161L0.0800171 35.4203L1.69685 37.0368L0.0800171 38.6534L0.484224 39.0576L2.10105 37.441L3.71788 39.0576L4.12209 38.6534L2.50526 37.0368L4.12209 35.4203Z" fill="black"/>
<path fill-rule="evenodd" clip-rule="evenodd" d="M12.7836 35.4203L12.3794 35.0161L10.7626 36.6327L9.14578 35.0161L8.74158 35.4203L10.3584 37.0368L8.74158 38.6534L9.14578 39.0576L10.7626 37.441L12.3794 39.0576L12.7836 38.6534L11.1668 37.0368L12.7836 35.4203Z" fill="black"/>
<path fill-rule="evenodd" clip-rule="evenodd" d="M21.4453 35.4203L21.0411 35.0161L19.4242 36.6327L17.8074 35.0161L17.4032 35.4203L19.02 37.0368L17.4032 38.6534L17.8074 39.0576L19.4242 37.441L21.0411 39.0576L21.4453 38.6534L19.8284 37.0368L21.4453 35.4203Z" fill="black"/>
<path fill-rule="evenodd" clip-rule="evenodd" d="M30.1068 35.4203L29.7026 35.0161L28.0858 36.6327L26.469 35.0161L26.0648 35.4203L27.6816 37.0368L26.0648 38.6534L26.469 39.0576L28.0858 37.441L29.7026 39.0576L30.1068 38.6534L28.49 37.0368L30.1068 35.4203Z" fill="black"/>
<path fill-rule="evenodd" clip-rule="evenodd" d="M38.7684 35.4203L38.3642 35.0161L36.7474 36.6327L35.1305 35.0161L34.7263 35.4203L36.3431 37.0368L34.7263 38.6534L35.1305 39.0576L36.7474 37.441L38.3642 39.0576L38.7684 38.6534L37.1516 37.0368L38.7684 35.4203Z" fill="black"/>
<path fill-rule="evenodd" clip-rule="evenodd" d="M47.43 35.4203L47.0258 35.0161L45.409 36.6327L43.7921 35.0161L43.3879 35.4203L45.0048 37.0368L43.3879 38.6534L43.7921 39.0576L45.409 37.441L47.0258 39.0576L47.43 38.6534L45.8132 37.0368L47.43 35.4203Z" fill="black"/>
<path fill-rule="evenodd" clip-rule="evenodd" d="M56.0916 35.4203L55.6874 35.0161L54.0705 36.6327L52.4537 35.0161L52.0495 35.4203L53.6663 37.0368L52.0495 38.6534L52.4537 39.0576L54.0705 37.441L55.6874 39.0576L56.0916 38.6534L54.4747 37.0368L56.0916 35.4203Z" fill="black"/>
<path fill-rule="evenodd" clip-rule="evenodd" d="M64.7531 35.4203L64.3489 35.0161L62.7321 36.6327L61.1153 35.0161L60.7111 35.4203L62.3279 37.0368L60.7111 38.6534L61.1153 39.0576L62.7321 37.441L64.3489 39.0576L64.7531 38.6534L63.1363 37.0368L64.7531 35.4203Z" fill="black"/>
<path fill-rule="evenodd" clip-rule="evenodd" d="M73.4148 35.4203L73.0105 35.0161L71.3937 36.6327L69.7769 35.0161L69.3727 35.4203L70.9895 37.0368L69.3727 38.6534L69.7769 39.0576L71.3937 37.441L73.0105 39.0576L73.4148 38.6534L71.7979 37.0368L73.4148 35.4203Z" fill="black"/>
<path fill-rule="evenodd" clip-rule="evenodd" d="M82.0763 35.4203L81.6721 35.0161L80.0553 36.6327L78.4384 35.0161L78.0342 35.4203L79.6511 37.0368L78.0342 38.6534L78.4384 39.0576L80.0553 37.441L81.6721 39.0576L82.0763 38.6534L80.4595 37.0368L82.0763 35.4203Z" fill="black"/>
<path fill-rule="evenodd" clip-rule="evenodd" d="M90.7379 35.4203L90.3337 35.0161L88.7168 36.6327L87.1 35.0161L86.6958 35.4203L88.3126 37.0368L86.6958 38.6534L87.1 39.0576L88.7168 37.441L90.3337 39.0576L90.7379 38.6534L89.121 37.0368L90.7379 35.4203Z" fill="black"/>
<path fill-rule="evenodd" clip-rule="evenodd" d="M99.3995 35.4203L98.9953 35.0161L97.3785 36.6327L95.7616 35.0161L95.3574 35.4203L96.9743 37.0368L95.3574 38.6534L95.7616 39.0576L97.3785 37.441L98.9953 39.0576L99.3995 38.6534L97.7827 37.0368L99.3995 35.4203Z" fill="black"/>
<path fill-rule="evenodd" clip-rule="evenodd" d="M108.061 35.4203L107.657 35.0161L106.04 36.6327L104.423 35.0161L104.019 35.4203L105.636 37.0368L104.019 38.6534L104.423 39.0576L106.04 37.441L107.657 39.0576L108.061 38.6534L106.444 37.0368L108.061 35.4203Z" fill="black"/>
<path fill-rule="evenodd" clip-rule="evenodd" d="M116.723 35.4203L116.318 35.0161L114.702 36.6327L113.085 35.0161L112.681 35.4203L114.297 37.0368L112.681 38.6534L113.085 39.0576L114.702 37.441L116.318 39.0576L116.723 38.6534L115.106 37.0368L116.723 35.4203Z" fill="black"/>
<path fill-rule="evenodd" clip-rule="evenodd" d="M125.384 35.4203L124.98 35.0161L123.363 36.6327L121.746 35.0161L121.342 35.4203L122.959 37.0368L121.342 38.6534L121.746 39.0576L123.363 37.441L124.98 39.0576L125.384 38.6534L123.767 37.0368L125.384 35.4203Z" fill="black"/>
<path fill-rule="evenodd" clip-rule="evenodd" d="M134.046 35.4203L133.642 35.0161L132.025 36.6327L130.408 35.0161L130.004 35.4203L131.621 37.0368L130.004 38.6534L130.408 39.0576L132.025 37.441L133.642 39.0576L134.046 38.6534L132.429 37.0368L134.046 35.4203Z" fill="black"/>
<path fill-rule="evenodd" clip-rule="evenodd" d="M142.707 35.4203L142.303 35.0161L140.686 36.6327L139.069 35.0161L138.665 35.4203L140.282 37.0368L138.665 38.6534L139.069 39.0576L140.686 37.441L142.303 39.0576L142.707 38.6534L141.091 37.0368L142.707 35.4203Z" fill="black"/>
<path fill-rule="evenodd" clip-rule="evenodd" d="M151.369 35.4203L150.965 35.0161L149.348 36.6327L147.731 35.0161L147.327 35.4203L148.944 37.0368L147.327 38.6534L147.731 39.0576L149.348 37.441L150.965 39.0576L151.369 38.6534L149.752 37.0368L151.369 35.4203Z" fill="black"/>
<path fill-rule="evenodd" clip-rule="evenodd" d="M160.031 35.4203L159.626 35.0161L158.009 36.6327L156.393 35.0161L155.988 35.4203L157.605 37.0368L155.988 38.6534L156.393 39.0576L158.009 37.441L159.626 39.0576L160.031 38.6534L158.414 37.0368L160.031 35.4203Z" fill="black"/>
<path fill-rule="evenodd" clip-rule="evenodd" d="M168.692 35.4203L168.288 35.0161L166.671 36.6327L165.054 35.0161L164.65 35.4203L166.267 37.0368L164.65 38.6534L165.054 39.0576L166.671 37.441L168.288 39.0576L168.692 38.6534L167.075 37.0368L168.692 35.4203Z" fill="black"/>
<path fill-rule="evenodd" clip-rule="evenodd" d="M177.354 35.4203L176.95 35.0161L175.333 36.6327L173.716 35.0161L173.312 35.4203L174.928 37.0368L173.312 38.6534L173.716 39.0576L175.333 37.441L176.95 39.0576L177.354 38.6534L175.737 37.0368L177.354 35.4203Z" fill="black"/>
<path fill-rule="evenodd" clip-rule="evenodd" d="M186.015 35.4203L185.611 35.0161L183.994 36.6327L182.377 35.0161L181.973 35.4203L183.59 37.0368L181.973 38.6534L182.377 39.0576L183.994 37.441L185.611 39.0576L186.015 38.6534L184.398 37.0368L186.015 35.4203Z" fill="black"/>
<path fill-rule="evenodd" clip-rule="evenodd" d="M194.677 35.4203L194.273 35.0161L192.656 36.6327L191.039 35.0161L190.635 35.4203L192.252 37.0368L190.635 38.6534L191.039 39.0576L192.656 37.441L194.273 39.0576L194.677 38.6534L193.06 37.0368L194.677 35.4203Z" fill="black"/>
<path fill-rule="evenodd" clip-rule="evenodd" d="M203.338 35.4203L202.934 35.0161L201.317 36.6327L199.701 35.0161L199.296 35.4203L200.913 37.0368L199.296 38.6534L199.701 39.0576L201.317 37.441L202.934 39.0576L203.338 38.6534L201.722 37.0368L203.338 35.4203Z" fill="black"/>
<path fill-rule="evenodd" clip-rule="evenodd" d="M211.879 35.2365L211.475 34.8324L209.858 36.449L208.241 34.8324L207.837 35.2365L209.454 36.8531L207.837 38.4697L208.241 38.8739L209.858 37.2573L211.475 38.8739L211.879 38.4697L210.263 36.8531L211.879 35.2365Z" fill="black"/>
<path fill-rule="evenodd" clip-rule="evenodd" d="M4.12209 44.0805L3.71788 43.6764L2.10105 45.293L0.484224 43.6764L0.0800171 44.0805L1.69685 45.6971L0.0800171 47.3137L0.484224 47.7179L2.10105 46.1013L3.71788 47.7179L4.12209 47.3137L2.50526 45.6971L4.12209 44.0805Z" fill="black"/>
<path fill-rule="evenodd" clip-rule="evenodd" d="M12.7836 44.0805L12.3794 43.6764L10.7626 45.293L9.14578 43.6764L8.74158 44.0805L10.3584 45.6971L8.74158 47.3137L9.14578 47.7179L10.7626 46.1013L12.3794 47.7179L12.7836 47.3137L11.1668 45.6971L12.7836 44.0805Z" fill="black"/>
<path fill-rule="evenodd" clip-rule="evenodd" d="M21.4453 44.0805L21.0411 43.6764L19.4242 45.293L17.8074 43.6764L17.4032 44.0805L19.02 45.6971L17.4032 47.3137L17.8074 47.7179L19.4242 46.1013L21.0411 47.7179L21.4453 47.3137L19.8284 45.6971L21.4453 44.0805Z" fill="black"/>
<path fill-rule="evenodd" clip-rule="evenodd" d="M30.1068 44.0805L29.7026 43.6764L28.0858 45.293L26.469 43.6764L26.0648 44.0805L27.6816 45.6971L26.0648 47.3137L26.469 47.7179L28.0858 46.1013L29.7026 47.7179L30.1068 47.3137L28.49 45.6971L30.1068 44.0805Z" fill="black"/>
<path fill-rule="evenodd" clip-rule="evenodd" d="M38.7684 44.0805L38.3642 43.6764L36.7474 45.293L35.1305 43.6764L34.7263 44.0805L36.3431 45.6971L34.7263 47.3137L35.1305 47.7179L36.7474 46.1013L38.3642 47.7179L38.7684 47.3137L37.1516 45.6971L38.7684 44.0805Z" fill="black"/>
<path fill-rule="evenodd" clip-rule="evenodd" d="M47.43 44.0805L47.0258 43.6764L45.409 45.293L43.7921 43.6764L43.3879 44.0805L45.0048 45.6971L43.3879 47.3137L43.7921 47.7179L45.409 46.1013L47.0258 47.7179L47.43 47.3137L45.8132 45.6971L47.43 44.0805Z" fill="black"/>
<path fill-rule="evenodd" clip-rule="evenodd" d="M56.0916 44.0805L55.6874 43.6764L54.0705 45.293L52.4537 43.6764L52.0495 44.0805L53.6663 45.6971L52.0495 47.3137L52.4537 47.7179L54.0705 46.1013L55.6874 47.7179L56.0916 47.3137L54.4747 45.6971L56.0916 44.0805Z" fill="black"/>
<path fill-rule="evenodd" clip-rule="evenodd" d="M64.7531 44.0805L64.3489 43.6764L62.7321 45.293L61.1153 43.6764L60.7111 44.0805L62.3279 45.6971L60.7111 47.3137L61.1153 47.7179L62.7321 46.1013L64.3489 47.7179L64.7531 47.3137L63.1363 45.6971L64.7531 44.0805Z" fill="black"/>
<path fill-rule="evenodd" clip-rule="evenodd" d="M73.4148 44.0805L73.0105 43.6764L71.3937 45.293L69.7769 43.6764L69.3727 44.0805L70.9895 45.6971L69.3727 47.3137L69.7769 47.7179L71.3937 46.1013L73.0105 47.7179L73.4148 47.3137L71.7979 45.6971L73.4148 44.0805Z" fill="black"/>
<path fill-rule="evenodd" clip-rule="evenodd" d="M82.0763 44.0805L81.6721 43.6764L80.0553 45.293L78.4384 43.6764L78.0342 44.0805L79.6511 45.6971L78.0342 47.3137L78.4384 47.7179L80.0553 46.1013L81.6721 47.7179L82.0763 47.3137L80.4595 45.6971L82.0763 44.0805Z" fill="black"/>
<path fill-rule="evenodd" clip-rule="evenodd" d="M90.7379 44.0805L90.3337 43.6764L88.7168 45.293L87.1 43.6764L86.6958 44.0805L88.3126 45.6971L86.6958 47.3137L87.1 47.7179L88.7168 46.1013L90.3337 47.7179L90.7379 47.3137L89.121 45.6971L90.7379 44.0805Z" fill="black"/>
<path fill-rule="evenodd" clip-rule="evenodd" d="M99.3995 44.0805L98.9953 43.6764L97.3785 45.293L95.7616 43.6764L95.3574 44.0805L96.9743 45.6971L95.3574 47.3137L95.7616 47.7179L97.3785 46.1013L98.9953 47.7179L99.3995 47.3137L97.7827 45.6971L99.3995 44.0805Z" fill="black"/>
<path fill-rule="evenodd" clip-rule="evenodd" d="M108.061 44.0805L107.657 43.6764L106.04 45.293L104.423 43.6764L104.019 44.0805L105.636 45.6971L104.019 47.3137L104.423 47.7179L106.04 46.1013L107.657 47.7179L108.061 47.3137L106.444 45.6971L108.061 44.0805Z" fill="black"/>
<path fill-rule="evenodd" clip-rule="evenodd" d="M116.723 44.0805L116.318 43.6764L114.702 45.293L113.085 43.6764L112.681 44.0805L114.297 45.6971L112.681 47.3137L113.085 47.7179L114.702 46.1013L116.318 47.7179L116.723 47.3137L115.106 45.6971L116.723 44.0805Z" fill="black"/>
<path fill-rule="evenodd" clip-rule="evenodd" d="M125.384 44.0805L124.98 43.6764L123.363 45.293L121.746 43.6764L121.342 44.0805L122.959 45.6971L121.342 47.3137L121.746 47.7179L123.363 46.1013L124.98 47.7179L125.384 47.3137L123.767 45.6971L125.384 44.0805Z" fill="black"/>
<path fill-rule="evenodd" clip-rule="evenodd" d="M134.046 44.0805L133.642 43.6764L132.025 45.293L130.408 43.6764L130.004 44.0805L131.621 45.6971L130.004 47.3137L130.408 47.7179L132.025 46.1013L133.642 47.7179L134.046 47.3137L132.429 45.6971L134.046 44.0805Z" fill="black"/>
<path fill-rule="evenodd" clip-rule="evenodd" d="M142.707 44.0805L142.303 43.6764L140.686 45.293L139.069 43.6764L138.665 44.0805L140.282 45.6971L138.665 47.3137L139.069 47.7179L140.686 46.1013L142.303 47.7179L142.707 47.3137L141.091 45.6971L142.707 44.0805Z" fill="black"/>
<path fill-rule="evenodd" clip-rule="evenodd" d="M151.369 44.0805L150.965 43.6764L149.348 45.293L147.731 43.6764L147.327 44.0805L148.944 45.6971L147.327 47.3137L147.731 47.7179L149.348 46.1013L150.965 47.7179L151.369 47.3137L149.752 45.6971L151.369 44.0805Z" fill="black"/>
<path fill-rule="evenodd" clip-rule="evenodd" d="M160.031 44.0805L159.626 43.6764L158.009 45.293L156.393 43.6764L155.988 44.0805L157.605 45.6971L155.988 47.3137L156.393 47.7179L158.009 46.1013L159.626 47.7179L160.031 47.3137L158.414 45.6971L160.031 44.0805Z" fill="black"/>
<path fill-rule="evenodd" clip-rule="evenodd" d="M168.692 44.0805L168.288 43.6764L166.671 45.293L165.054 43.6764L164.65 44.0805L166.267 45.6971L164.65 47.3137L165.054 47.7179L166.671 46.1013L168.288 47.7179L168.692 47.3137L167.075 45.6971L168.692 44.0805Z" fill="black"/>
<path fill-rule="evenodd" clip-rule="evenodd" d="M177.354 44.0805L176.95 43.6764L175.333 45.293L173.716 43.6764L173.312 44.0805L174.928 45.6971L173.312 47.3137L173.716 47.7179L175.333 46.1013L176.95 47.7179L177.354 47.3137L175.737 45.6971L177.354 44.0805Z" fill="black"/>
<path fill-rule="evenodd" clip-rule="evenodd" d="M186.015 44.0805L185.611 43.6764L183.994 45.293L182.377 43.6764L181.973 44.0805L183.59 45.6971L181.973 47.3137L182.377 47.7179L183.994 46.1013L185.611 47.7179L186.015 47.3137L184.398 45.6971L186.015 44.0805Z" fill="black"/>
<path fill-rule="evenodd" clip-rule="evenodd" d="M194.677 44.0805L194.273 43.6764L192.656 45.293L191.039 43.6764L190.635 44.0805L192.252 45.6971L190.635 47.3137L191.039 47.7179L192.656 46.1013L194.273 47.7179L194.677 47.3137L193.06 45.6971L194.677 44.0805Z" fill="black"/>
<path fill-rule="evenodd" clip-rule="evenodd" d="M203.338 44.0805L202.934 43.6764L201.317 45.293L199.701 43.6764L199.296 44.0805L200.913 45.6971L199.296 47.3137L199.701 47.7179L201.317 46.1013L202.934 47.7179L203.338 47.3137L201.722 45.6971L203.338 44.0805Z" fill="black"/>
<path fill-rule="evenodd" clip-rule="evenodd" d="M211.879 43.9455L211.475 43.5414L209.858 45.158L208.241 43.5414L207.837 43.9455L209.454 45.5621L207.837 47.1787L208.241 47.5828L209.858 45.9663L211.475 47.5828L211.879 47.1787L210.263 45.5621L211.879 43.9455Z" fill="black"/>
<path fill-rule="evenodd" clip-rule="evenodd" d="M4.12209 52.7408L3.71788 52.3367L2.10105 53.9533L0.484224 52.3367L0.0800171 52.7408L1.69685 54.3574L0.0800171 55.974L0.484224 56.3781L2.10105 54.7615L3.71788 56.3781L4.12209 55.974L2.50526 54.3574L4.12209 52.7408Z" fill="black"/>
<path fill-rule="evenodd" clip-rule="evenodd" d="M12.7836 52.7408L12.3794 52.3367L10.7626 53.9533L9.14578 52.3367L8.74158 52.7408L10.3584 54.3574L8.74158 55.974L9.14578 56.3781L10.7626 54.7615L12.3794 56.3781L12.7836 55.974L11.1668 54.3574L12.7836 52.7408Z" fill="black"/>
<path fill-rule="evenodd" clip-rule="evenodd" d="M21.4453 52.7408L21.0411 52.3367L19.4242 53.9533L17.8074 52.3367L17.4032 52.7408L19.02 54.3574L17.4032 55.974L17.8074 56.3781L19.4242 54.7615L21.0411 56.3781L21.4453 55.974L19.8284 54.3574L21.4453 52.7408Z" fill="black"/>
<path fill-rule="evenodd" clip-rule="evenodd" d="M30.1068 52.7408L29.7026 52.3367L28.0858 53.9533L26.469 52.3367L26.0648 52.7408L27.6816 54.3574L26.0648 55.974L26.469 56.3781L28.0858 54.7615L29.7026 56.3781L30.1068 55.974L28.49 54.3574L30.1068 52.7408Z" fill="black"/>
<path fill-rule="evenodd" clip-rule="evenodd" d="M38.7684 52.7408L38.3642 52.3367L36.7474 53.9533L35.1305 52.3367L34.7263 52.7408L36.3431 54.3574L34.7263 55.974L35.1305 56.3781L36.7474 54.7615L38.3642 56.3781L38.7684 55.974L37.1516 54.3574L38.7684 52.7408Z" fill="black"/>
<path fill-rule="evenodd" clip-rule="evenodd" d="M47.43 52.7408L47.0258 52.3367L45.409 53.9533L43.7921 52.3367L43.3879 52.7408L45.0048 54.3574L43.3879 55.974L43.7921 56.3781L45.409 54.7615L47.0258 56.3781L47.43 55.974L45.8132 54.3574L47.43 52.7408Z" fill="black"/>
<path fill-rule="evenodd" clip-rule="evenodd" d="M56.0916 52.7408L55.6874 52.3367L54.0705 53.9533L52.4537 52.3367L52.0495 52.7408L53.6663 54.3574L52.0495 55.974L52.4537 56.3781L54.0705 54.7615L55.6874 56.3781L56.0916 55.974L54.4747 54.3574L56.0916 52.7408Z" fill="black"/>
<path fill-rule="evenodd" clip-rule="evenodd" d="M64.7531 52.7408L64.3489 52.3367L62.7321 53.9533L61.1153 52.3367L60.7111 52.7408L62.3279 54.3574L60.7111 55.974L61.1153 56.3781L62.7321 54.7615L64.3489 56.3781L64.7531 55.974L63.1363 54.3574L64.7531 52.7408Z" fill="black"/>
<path fill-rule="evenodd" clip-rule="evenodd" d="M73.4148 52.7408L73.0105 52.3367L71.3937 53.9533L69.7769 52.3367L69.3727 52.7408L70.9895 54.3574L69.3727 55.974L69.7769 56.3781L71.3937 54.7615L73.0105 56.3781L73.4148 55.974L71.7979 54.3574L73.4148 52.7408Z" fill="black"/>
<path fill-rule="evenodd" clip-rule="evenodd" d="M82.0763 52.7408L81.6721 52.3367L80.0553 53.9533L78.4384 52.3367L78.0342 52.7408L79.6511 54.3574L78.0342 55.974L78.4384 56.3781L80.0553 54.7615L81.6721 56.3781L82.0763 55.974L80.4595 54.3574L82.0763 52.7408Z" fill="black"/>
<path fill-rule="evenodd" clip-rule="evenodd" d="M90.7379 52.7408L90.3337 52.3367L88.7168 53.9533L87.1 52.3367L86.6958 52.7408L88.3126 54.3574L86.6958 55.974L87.1 56.3781L88.7168 54.7615L90.3337 56.3781L90.7379 55.974L89.121 54.3574L90.7379 52.7408Z" fill="black"/>
<path fill-rule="evenodd" clip-rule="evenodd" d="M99.3995 52.7408L98.9953 52.3367L97.3785 53.9533L95.7616 52.3367L95.3574 52.7408L96.9743 54.3574L95.3574 55.974L95.7616 56.3781L97.3785 54.7615L98.9953 56.3781L99.3995 55.974L97.7827 54.3574L99.3995 52.7408Z" fill="black"/>
<path fill-rule="evenodd" clip-rule="evenodd" d="M108.061 52.7408L107.657 52.3367L106.04 53.9533L104.423 52.3367L104.019 52.7408L105.636 54.3574L104.019 55.974L104.423 56.3781L106.04 54.7615L107.657 56.3781L108.061 55.974L106.444 54.3574L108.061 52.7408Z" fill="black"/>
<path fill-rule="evenodd" clip-rule="evenodd" d="M116.723 52.7408L116.318 52.3367L114.702 53.9533L113.085 52.3367L112.681 52.7408L114.297 54.3574L112.681 55.974L113.085 56.3781L114.702 54.7615L116.318 56.3781L116.723 55.974L115.106 54.3574L116.723 52.7408Z" fill="black"/>
<path fill-rule="evenodd" clip-rule="evenodd" d="M125.384 52.7408L124.98 52.3367L123.363 53.9533L121.746 52.3367L121.342 52.7408L122.959 54.3574L121.342 55.974L121.746 56.3781L123.363 54.7615L124.98 56.3781L125.384 55.974L123.767 54.3574L125.384 52.7408Z" fill="black"/>
<path fill-rule="evenodd" clip-rule="evenodd" d="M134.046 52.7408L133.642 52.3367L132.025 53.9533L130.408 52.3367L130.004 52.7408L131.621 54.3574L130.004 55.974L130.408 56.3781L132.025 54.7615L133.642 56.3781L134.046 55.974L132.429 54.3574L134.046 52.7408Z" fill="black"/>
<path fill-rule="evenodd" clip-rule="evenodd" d="M142.707 52.7408L142.303 52.3367L140.686 53.9533L139.069 52.3367L138.665 52.7408L140.282 54.3574L138.665 55.974L139.069 56.3781L140.686 54.7615L142.303 56.3781L142.707 55.974L141.091 54.3574L142.707 52.7408Z" fill="black"/>
<path fill-rule="evenodd" clip-rule="evenodd" d="M151.369 52.7408L150.965 52.3367L149.348 53.9533L147.731 52.3367L147.327 52.7408L148.944 54.3574L147.327 55.974L147.731 56.3781L149.348 54.7615L150.965 56.3781L151.369 55.974L149.752 54.3574L151.369 52.7408Z" fill="black"/>
<path fill-rule="evenodd" clip-rule="evenodd" d="M160.031 52.7408L159.626 52.3367L158.009 53.9533L156.393 52.3367L155.988 52.7408L157.605 54.3574L155.988 55.974L156.393 56.3781L158.009 54.7615L159.626 56.3781L160.031 55.974L158.414 54.3574L160.031 52.7408Z" fill="black"/>
<path fill-rule="evenodd" clip-rule="evenodd" d="M168.692 52.7408L168.288 52.3367L166.671 53.9533L165.054 52.3367L164.65 52.7408L166.267 54.3574L164.65 55.974L165.054 56.3781L166.671 54.7615L168.288 56.3781L168.692 55.974L167.075 54.3574L168.692 52.7408Z" fill="black"/>
<path fill-rule="evenodd" clip-rule="evenodd" d="M177.354 52.7408L176.95 52.3367L175.333 53.9533L173.716 52.3367L173.312 52.7408L174.928 54.3574L173.312 55.974L173.716 56.3781L175.333 54.7615L176.95 56.3781L177.354 55.974L175.737 54.3574L177.354 52.7408Z" fill="black"/>
<path fill-rule="evenodd" clip-rule="evenodd" d="M186.015 52.7408L185.611 52.3367L183.994 53.9533L182.377 52.3367L181.973 52.7408L183.59 54.3574L181.973 55.974L182.377 56.3781L183.994 54.7615L185.611 56.3781L186.015 55.974L184.398 54.3574L186.015 52.7408Z" fill="black"/>
<path fill-rule="evenodd" clip-rule="evenodd" d="M194.677 52.7408L194.273 52.3367L192.656 53.9533L191.039 52.3367L190.635 52.7408L192.252 54.3574L190.635 55.974L191.039 56.3781L192.656 54.7615L194.273 56.3781L194.677 55.974L193.06 54.3574L194.677 52.7408Z" fill="black"/>
<path fill-rule="evenodd" clip-rule="evenodd" d="M203.338 52.7408L202.934 52.3367L201.317 53.9533L199.701 52.3367L199.296 52.7408L200.913 54.3574L199.296 55.974L199.701 56.3781L201.317 54.7615L202.934 56.3781L203.338 55.974L201.722 54.3574L203.338 52.7408Z" fill="black"/>
<path fill-rule="evenodd" clip-rule="evenodd" d="M211.879 52.6546L211.475 52.2504L209.858 53.867L208.241 52.2504L207.837 52.6546L209.454 54.2712L207.837 55.8877L208.241 56.2919L209.858 54.6753L211.475 56.2919L211.879 55.8877L210.263 54.2712L211.879 52.6546Z" fill="black"/>
<path fill-rule="evenodd" clip-rule="evenodd" d="M4.12209 61.401L3.71788 60.9969L2.10105 62.6135L0.484224 60.9969L0.0800171 61.401L1.69685 63.0176L0.0800171 64.6342L0.484224 65.0383L2.10105 63.4218L3.71788 65.0383L4.12209 64.6342L2.50526 63.0176L4.12209 61.401Z" fill="black"/>
<path fill-rule="evenodd" clip-rule="evenodd" d="M12.7836 61.401L12.3794 60.9969L10.7626 62.6135L9.14578 60.9969L8.74158 61.401L10.3584 63.0176L8.74158 64.6342L9.14578 65.0383L10.7626 63.4218L12.3794 65.0383L12.7836 64.6342L11.1668 63.0176L12.7836 61.401Z" fill="black"/>
<path fill-rule="evenodd" clip-rule="evenodd" d="M21.4453 61.401L21.0411 60.9969L19.4242 62.6135L17.8074 60.9969L17.4032 61.401L19.02 63.0176L17.4032 64.6342L17.8074 65.0383L19.4242 63.4218L21.0411 65.0383L21.4453 64.6342L19.8284 63.0176L21.4453 61.401Z" fill="black"/>
<path fill-rule="evenodd" clip-rule="evenodd" d="M30.1068 61.401L29.7026 60.9969L28.0858 62.6135L26.469 60.9969L26.0648 61.401L27.6816 63.0176L26.0648 64.6342L26.469 65.0383L28.0858 63.4218L29.7026 65.0383L30.1068 64.6342L28.49 63.0176L30.1068 61.401Z" fill="black"/>
<path fill-rule="evenodd" clip-rule="evenodd" d="M38.7684 61.401L38.3642 60.9969L36.7474 62.6135L35.1305 60.9969L34.7263 61.401L36.3431 63.0176L34.7263 64.6342L35.1305 65.0383L36.7474 63.4218L38.3642 65.0383L38.7684 64.6342L37.1516 63.0176L38.7684 61.401Z" fill="black"/>
<path fill-rule="evenodd" clip-rule="evenodd" d="M47.43 61.401L47.0258 60.9969L45.409 62.6135L43.7921 60.9969L43.3879 61.401L45.0048 63.0176L43.3879 64.6342L43.7921 65.0383L45.409 63.4218L47.0258 65.0383L47.43 64.6342L45.8132 63.0176L47.43 61.401Z" fill="black"/>
<path fill-rule="evenodd" clip-rule="evenodd" d="M56.0916 61.401L55.6874 60.9969L54.0705 62.6135L52.4537 60.9969L52.0495 61.401L53.6663 63.0176L52.0495 64.6342L52.4537 65.0383L54.0705 63.4218L55.6874 65.0383L56.0916 64.6342L54.4747 63.0176L56.0916 61.401Z" fill="black"/>
<path fill-rule="evenodd" clip-rule="evenodd" d="M64.7531 61.401L64.3489 60.9969L62.7321 62.6135L61.1153 60.9969L60.7111 61.401L62.3279 63.0176L60.7111 64.6342L61.1153 65.0383L62.7321 63.4218L64.3489 65.0383L64.7531 64.6342L63.1363 63.0176L64.7531 61.401Z" fill="black"/>
<path fill-rule="evenodd" clip-rule="evenodd" d="M73.4148 61.401L73.0105 60.9969L71.3937 62.6135L69.7769 60.9969L69.3727 61.401L70.9895 63.0176L69.3727 64.6342L69.7769 65.0383L71.3937 63.4218L73.0105 65.0383L73.4148 64.6342L71.7979 63.0176L73.4148 61.401Z" fill="black"/>
<path fill-rule="evenodd" clip-rule="evenodd" d="M82.0763 61.401L81.6721 60.9969L80.0553 62.6135L78.4384 60.9969L78.0342 61.401L79.6511 63.0176L78.0342 64.6342L78.4384 65.0383L80.0553 63.4218L81.6721 65.0383L82.0763 64.6342L80.4595 63.0176L82.0763 61.401Z" fill="black"/>
<path fill-rule="evenodd" clip-rule="evenodd" d="M90.7379 61.401L90.3337 60.9969L88.7168 62.6135L87.1 60.9969L86.6958 61.401L88.3126 63.0176L86.6958 64.6342L87.1 65.0383L88.7168 63.4218L90.3337 65.0383L90.7379 64.6342L89.121 63.0176L90.7379 61.401Z" fill="black"/>
<path fill-rule="evenodd" clip-rule="evenodd" d="M99.3995 61.401L98.9953 60.9969L97.3785 62.6135L95.7616 60.9969L95.3574 61.401L96.9743 63.0176L95.3574 64.6342L95.7616 65.0383L97.3785 63.4218L98.9953 65.0383L99.3995 64.6342L97.7827 63.0176L99.3995 61.401Z" fill="black"/>
<path fill-rule="evenodd" clip-rule="evenodd" d="M108.061 61.401L107.657 60.9969L106.04 62.6135L104.423 60.9969L104.019 61.401L105.636 63.0176L104.019 64.6342L104.423 65.0383L106.04 63.4218L107.657 65.0383L108.061 64.6342L106.444 63.0176L108.061 61.401Z" fill="black"/>
<path fill-rule="evenodd" clip-rule="evenodd" d="M116.723 61.401L116.318 60.9969L114.702 62.6135L113.085 60.9969L112.681 61.401L114.297 63.0176L112.681 64.6342L113.085 65.0383L114.702 63.4218L116.318 65.0383L116.723 64.6342L115.106 63.0176L116.723 61.401Z" fill="black"/>
<path fill-rule="evenodd" clip-rule="evenodd" d="M125.384 61.401L124.98 60.9969L123.363 62.6135L121.746 60.9969L121.342 61.401L122.959 63.0176L121.342 64.6342L121.746 65.0383L123.363 63.4218L124.98 65.0383L125.384 64.6342L123.767 63.0176L125.384 61.401Z" fill="black"/>
<path fill-rule="evenodd" clip-rule="evenodd" d="M134.046 61.401L133.642 60.9969L132.025 62.6135L130.408 60.9969L130.004 61.401L131.621 63.0176L130.004 64.6342L130.408 65.0383L132.025 63.4218L133.642 65.0383L134.046 64.6342L132.429 63.0176L134.046 61.401Z" fill="black"/>
<path fill-rule="evenodd" clip-rule="evenodd" d="M142.707 61.401L142.303 60.9969L140.686 62.6135L139.069 60.9969L138.665 61.401L140.282 63.0176L138.665 64.6342L139.069 65.0383L140.686 63.4218L142.303 65.0383L142.707 64.6342L141.091 63.0176L142.707 61.401Z" fill="black"/>
<path fill-rule="evenodd" clip-rule="evenodd" d="M151.369 61.401L150.965 60.9969L149.348 62.6135L147.731 60.9969L147.327 61.401L148.944 63.0176L147.327 64.6342L147.731 65.0383L149.348 63.4218L150.965 65.0383L151.369 64.6342L149.752 63.0176L151.369 61.401Z" fill="black"/>
<path fill-rule="evenodd" clip-rule="evenodd" d="M160.031 61.401L159.626 60.9969L158.009 62.6135L156.393 60.9969L155.988 61.401L157.605 63.0176L155.988 64.6342L156.393 65.0383L158.009 63.4218L159.626 65.0383L160.031 64.6342L158.414 63.0176L160.031 61.401Z" fill="black"/>
<path fill-rule="evenodd" clip-rule="evenodd" d="M168.692 61.401L168.288 60.9969L166.671 62.6135L165.054 60.9969L164.65 61.401L166.267 63.0176L164.65 64.6342L165.054 65.0383L166.671 63.4218L168.288 65.0383L168.692 64.6342L167.075 63.0176L168.692 61.401Z" fill="black"/>
<path fill-rule="evenodd" clip-rule="evenodd" d="M177.354 61.401L176.95 60.9969L175.333 62.6135L173.716 60.9969L173.312 61.401L174.928 63.0176L173.312 64.6342L173.716 65.0383L175.333 63.4218L176.95 65.0383L177.354 64.6342L175.737 63.0176L177.354 61.401Z" fill="black"/>
<path fill-rule="evenodd" clip-rule="evenodd" d="M186.015 61.401L185.611 60.9969L183.994 62.6135L182.377 60.9969L181.973 61.401L183.59 63.0176L181.973 64.6342L182.377 65.0383L183.994 63.4218L185.611 65.0383L186.015 64.6342L184.398 63.0176L186.015 61.401Z" fill="black"/>
<path fill-rule="evenodd" clip-rule="evenodd" d="M194.677 61.401L194.273 60.9969L192.656 62.6135L191.039 60.9969L190.635 61.401L192.252 63.0176L190.635 64.6342L191.039 65.0383L192.656 63.4218L194.273 65.0383L194.677 64.6342L193.06 63.0176L194.677 61.401Z" fill="black"/>
<path fill-rule="evenodd" clip-rule="evenodd" d="M203.338 61.401L202.934 60.9969L201.317 62.6135L199.701 60.9969L199.296 61.401L200.913 63.0176L199.296 64.6342L199.701 65.0383L201.317 63.4218L202.934 65.0383L203.338 64.6342L201.722 63.0176L203.338 61.401Z" fill="black"/>
<path fill-rule="evenodd" clip-rule="evenodd" d="M211.879 61.3636L211.475 60.9594L209.858 62.576L208.241 60.9594L207.837 61.3636L209.454 62.9801L207.837 64.5967L208.241 65.0009L209.858 63.3843L211.475 65.0009L211.879 64.5967L210.263 62.9801L211.879 61.3636Z" fill="black"/>
<path fill-rule="evenodd" clip-rule="evenodd" d="M4.12209 70.0613L3.71788 69.6572L2.10105 71.2737L0.484224 69.6572L0.0800171 70.0613L1.69685 71.6779L0.0800171 73.2945L0.484224 73.6986L2.10105 72.082L3.71788 73.6986L4.12209 73.2945L2.50526 71.6779L4.12209 70.0613Z" fill="black"/>
<path fill-rule="evenodd" clip-rule="evenodd" d="M12.7836 70.0613L12.3794 69.6572L10.7626 71.2737L9.14578 69.6572L8.74158 70.0613L10.3584 71.6779L8.74158 73.2945L9.14578 73.6986L10.7626 72.082L12.3794 73.6986L12.7836 73.2945L11.1668 71.6779L12.7836 70.0613Z" fill="black"/>
<path fill-rule="evenodd" clip-rule="evenodd" d="M21.4453 70.0613L21.0411 69.6572L19.4242 71.2737L17.8074 69.6572L17.4032 70.0613L19.02 71.6779L17.4032 73.2945L17.8074 73.6986L19.4242 72.082L21.0411 73.6986L21.4453 73.2945L19.8284 71.6779L21.4453 70.0613Z" fill="black"/>
<path fill-rule="evenodd" clip-rule="evenodd" d="M30.1068 70.0613L29.7026 69.6572L28.0858 71.2737L26.469 69.6572L26.0648 70.0613L27.6816 71.6779L26.0648 73.2945L26.469 73.6986L28.0858 72.082L29.7026 73.6986L30.1068 73.2945L28.49 71.6779L30.1068 70.0613Z" fill="black"/>
<path fill-rule="evenodd" clip-rule="evenodd" d="M38.7684 70.0613L38.3642 69.6572L36.7474 71.2737L35.1305 69.6572L34.7263 70.0613L36.3431 71.6779L34.7263 73.2945L35.1305 73.6986L36.7474 72.082L38.3642 73.6986L38.7684 73.2945L37.1516 71.6779L38.7684 70.0613Z" fill="black"/>
<path fill-rule="evenodd" clip-rule="evenodd" d="M47.43 70.0613L47.0258 69.6572L45.409 71.2737L43.7921 69.6572L43.3879 70.0613L45.0048 71.6779L43.3879 73.2945L43.7921 73.6986L45.409 72.082L47.0258 73.6986L47.43 73.2945L45.8132 71.6779L47.43 70.0613Z" fill="black"/>
<path fill-rule="evenodd" clip-rule="evenodd" d="M56.0916 70.0613L55.6874 69.6572L54.0705 71.2737L52.4537 69.6572L52.0495 70.0613L53.6663 71.6779L52.0495 73.2945L52.4537 73.6986L54.0705 72.082L55.6874 73.6986L56.0916 73.2945L54.4747 71.6779L56.0916 70.0613Z" fill="black"/>
<path fill-rule="evenodd" clip-rule="evenodd" d="M64.7531 70.0613L64.3489 69.6572L62.7321 71.2737L61.1153 69.6572L60.7111 70.0613L62.3279 71.6779L60.7111 73.2945L61.1153 73.6986L62.7321 72.082L64.3489 73.6986L64.7531 73.2945L63.1363 71.6779L64.7531 70.0613Z" fill="black"/>
<path fill-rule="evenodd" clip-rule="evenodd" d="M73.4148 70.0613L73.0105 69.6572L71.3937 71.2737L69.7769 69.6572L69.3727 70.0613L70.9895 71.6779L69.3727 73.2945L69.7769 73.6986L71.3937 72.082L73.0105 73.6986L73.4148 73.2945L71.7979 71.6779L73.4148 70.0613Z" fill="black"/>
<path fill-rule="evenodd" clip-rule="evenodd" d="M82.0763 70.0613L81.6721 69.6572L80.0553 71.2737L78.4384 69.6572L78.0342 70.0613L79.6511 71.6779L78.0342 73.2945L78.4384 73.6986L80.0553 72.082L81.6721 73.6986L82.0763 73.2945L80.4595 71.6779L82.0763 70.0613Z" fill="black"/>
<path fill-rule="evenodd" clip-rule="evenodd" d="M90.7379 70.0613L90.3337 69.6572L88.7168 71.2737L87.1 69.6572L86.6958 70.0613L88.3126 71.6779L86.6958 73.2945L87.1 73.6986L88.7168 72.082L90.3337 73.6986L90.7379 73.2945L89.121 71.6779L90.7379 70.0613Z" fill="black"/>
<path fill-rule="evenodd" clip-rule="evenodd" d="M99.3995 70.0613L98.9953 69.6572L97.3785 71.2737L95.7616 69.6572L95.3574 70.0613L96.9743 71.6779L95.3574 73.2945L95.7616 73.6986L97.3785 72.082L98.9953 73.6986L99.3995 73.2945L97.7827 71.6779L99.3995 70.0613Z" fill="black"/>
<path fill-rule="evenodd" clip-rule="evenodd" d="M108.061 70.0613L107.657 69.6572L106.04 71.2737L104.423 69.6572L104.019 70.0613L105.636 71.6779L104.019 73.2945L104.423 73.6986L106.04 72.082L107.657 73.6986L108.061 73.2945L106.444 71.6779L108.061 70.0613Z" fill="black"/>
<path fill-rule="evenodd" clip-rule="evenodd" d="M116.723 70.0613L116.318 69.6572L114.702 71.2737L113.085 69.6572L112.681 70.0613L114.297 71.6779L112.681 73.2945L113.085 73.6986L114.702 72.082L116.318 73.6986L116.723 73.2945L115.106 71.6779L116.723 70.0613Z" fill="black"/>
<path fill-rule="evenodd" clip-rule="evenodd" d="M125.384 70.0613L124.98 69.6572L123.363 71.2737L121.746 69.6572L121.342 70.0613L122.959 71.6779L121.342 73.2945L121.746 73.6986L123.363 72.082L124.98 73.6986L125.384 73.2945L123.767 71.6779L125.384 70.0613Z" fill="black"/>
<path fill-rule="evenodd" clip-rule="evenodd" d="M134.046 70.0613L133.642 69.6572L132.025 71.2737L130.408 69.6572L130.004 70.0613L131.621 71.6779L130.004 73.2945L130.408 73.6986L132.025 72.082L133.642 73.6986L134.046 73.2945L132.429 71.6779L134.046 70.0613Z" fill="black"/>
<path fill-rule="evenodd" clip-rule="evenodd" d="M142.707 70.0613L142.303 69.6572L140.686 71.2737L139.069 69.6572L138.665 70.0613L140.282 71.6779L138.665 73.2945L139.069 73.6986L140.686 72.082L142.303 73.6986L142.707 73.2945L141.091 71.6779L142.707 70.0613Z" fill="black"/>
<path fill-rule="evenodd" clip-rule="evenodd" d="M151.369 70.0613L150.965 69.6572L149.348 71.2737L147.731 69.6572L147.327 70.0613L148.944 71.6779L147.327 73.2945L147.731 73.6986L149.348 72.082L150.965 73.6986L151.369 73.2945L149.752 71.6779L151.369 70.0613Z" fill="black"/>
<path fill-rule="evenodd" clip-rule="evenodd" d="M160.031 70.0613L159.626 69.6572L158.009 71.2737L156.393 69.6572L155.988 70.0613L157.605 71.6779L155.988 73.2945L156.393 73.6986L158.009 72.082L159.626 73.6986L160.031 73.2945L158.414 71.6779L160.031 70.0613Z" fill="black"/>
<path fill-rule="evenodd" clip-rule="evenodd" d="M168.692 70.0613L168.288 69.6572L166.671 71.2737L165.054 69.6572L164.65 70.0613L166.267 71.6779L164.65 73.2945L165.054 73.6986L166.671 72.082L168.288 73.6986L168.692 73.2945L167.075 71.6779L168.692 70.0613Z" fill="black"/>
<path fill-rule="evenodd" clip-rule="evenodd" d="M177.354 70.0613L176.95 69.6572L175.333 71.2737L173.716 69.6572L173.312 70.0613L174.928 71.6779L173.312 73.2945L173.716 73.6986L175.333 72.082L176.95 73.6986L177.354 73.2945L175.737 71.6779L177.354 70.0613Z" fill="black"/>
<path fill-rule="evenodd" clip-rule="evenodd" d="M186.015 70.0613L185.611 69.6572L183.994 71.2737L182.377 69.6572L181.973 70.0613L183.59 71.6779L181.973 73.2945L182.377 73.6986L183.994 72.082L185.611 73.6986L186.015 73.2945L184.398 71.6779L186.015 70.0613Z" fill="black"/>
<path fill-rule="evenodd" clip-rule="evenodd" d="M194.677 70.0613L194.273 69.6572L192.656 71.2737L191.039 69.6572L190.635 70.0613L192.252 71.6779L190.635 73.2945L191.039 73.6986L192.656 72.082L194.273 73.6986L194.677 73.2945L193.06 71.6779L194.677 70.0613Z" fill="black"/>
<path fill-rule="evenodd" clip-rule="evenodd" d="M203.338 70.0613L202.934 69.6572L201.317 71.2737L199.701 69.6572L199.296 70.0613L200.913 71.6779L199.296 73.2945L199.701 73.6986L201.317 72.082L202.934 73.6986L203.338 73.2945L201.722 71.6779L203.338 70.0613Z" fill="black"/>
<path fill-rule="evenodd" clip-rule="evenodd" d="M211.879 70.0726L211.475 69.6685L209.858 71.285L208.241 69.6685L207.837 70.0726L209.454 71.6892L207.837 73.3058L208.241 73.7099L209.858 72.0933L211.475 73.7099L211.879 73.3058L210.263 71.6892L211.879 70.0726Z" fill="black"/>
<path fill-rule="evenodd" clip-rule="evenodd" d="M4.12209 78.7216L3.71788 78.3174L2.10105 79.934L0.484224 78.3174L0.0800171 78.7216L1.69685 80.3382L0.0800171 81.9548L0.484224 82.3589L2.10105 80.7423L3.71788 82.3589L4.12209 81.9548L2.50526 80.3382L4.12209 78.7216Z" fill="black"/>
<path fill-rule="evenodd" clip-rule="evenodd" d="M12.7836 78.7216L12.3794 78.3174L10.7626 79.934L9.14578 78.3174L8.74158 78.7216L10.3584 80.3382L8.74158 81.9548L9.14578 82.3589L10.7626 80.7423L12.3794 82.3589L12.7836 81.9548L11.1668 80.3382L12.7836 78.7216Z" fill="black"/>
<path fill-rule="evenodd" clip-rule="evenodd" d="M21.4453 78.7216L21.0411 78.3174L19.4242 79.934L17.8074 78.3174L17.4032 78.7216L19.02 80.3382L17.4032 81.9548L17.8074 82.3589L19.4242 80.7423L21.0411 82.3589L21.4453 81.9548L19.8284 80.3382L21.4453 78.7216Z" fill="black"/>
<path fill-rule="evenodd" clip-rule="evenodd" d="M30.1068 78.7216L29.7026 78.3174L28.0858 79.934L26.469 78.3174L26.0648 78.7216L27.6816 80.3382L26.0648 81.9548L26.469 82.3589L28.0858 80.7423L29.7026 82.3589L30.1068 81.9548L28.49 80.3382L30.1068 78.7216Z" fill="black"/>
<path fill-rule="evenodd" clip-rule="evenodd" d="M38.7684 78.7216L38.3642 78.3174L36.7474 79.934L35.1305 78.3174L34.7263 78.7216L36.3431 80.3382L34.7263 81.9548L35.1305 82.3589L36.7474 80.7423L38.3642 82.3589L38.7684 81.9548L37.1516 80.3382L38.7684 78.7216Z" fill="black"/>
<path fill-rule="evenodd" clip-rule="evenodd" d="M47.43 78.7216L47.0258 78.3174L45.409 79.934L43.7921 78.3174L43.3879 78.7216L45.0048 80.3382L43.3879 81.9548L43.7921 82.3589L45.409 80.7423L47.0258 82.3589L47.43 81.9548L45.8132 80.3382L47.43 78.7216Z" fill="black"/>
<path fill-rule="evenodd" clip-rule="evenodd" d="M56.0916 78.7216L55.6874 78.3174L54.0705 79.934L52.4537 78.3174L52.0495 78.7216L53.6663 80.3382L52.0495 81.9548L52.4537 82.3589L54.0705 80.7423L55.6874 82.3589L56.0916 81.9548L54.4747 80.3382L56.0916 78.7216Z" fill="black"/>
<path fill-rule="evenodd" clip-rule="evenodd" d="M64.7531 78.7216L64.3489 78.3174L62.7321 79.934L61.1153 78.3174L60.7111 78.7216L62.3279 80.3382L60.7111 81.9548L61.1153 82.3589L62.7321 80.7423L64.3489 82.3589L64.7531 81.9548L63.1363 80.3382L64.7531 78.7216Z" fill="black"/>
<path fill-rule="evenodd" clip-rule="evenodd" d="M73.4148 78.7216L73.0105 78.3174L71.3937 79.934L69.7769 78.3174L69.3727 78.7216L70.9895 80.3382L69.3727 81.9548L69.7769 82.3589L71.3937 80.7423L73.0105 82.3589L73.4148 81.9548L71.7979 80.3382L73.4148 78.7216Z" fill="black"/>
<path fill-rule="evenodd" clip-rule="evenodd" d="M82.0763 78.7216L81.6721 78.3174L80.0553 79.934L78.4384 78.3174L78.0342 78.7216L79.6511 80.3382L78.0342 81.9548L78.4384 82.3589L80.0553 80.7423L81.6721 82.3589L82.0763 81.9548L80.4595 80.3382L82.0763 78.7216Z" fill="black"/>
<path fill-rule="evenodd" clip-rule="evenodd" d="M90.7379 78.7216L90.3337 78.3174L88.7168 79.934L87.1 78.3174L86.6958 78.7216L88.3126 80.3382L86.6958 81.9548L87.1 82.3589L88.7168 80.7423L90.3337 82.3589L90.7379 81.9548L89.121 80.3382L90.7379 78.7216Z" fill="black"/>
<path fill-rule="evenodd" clip-rule="evenodd" d="M99.3995 78.7216L98.9953 78.3174L97.3785 79.934L95.7616 78.3174L95.3574 78.7216L96.9743 80.3382L95.3574 81.9548L95.7616 82.3589L97.3785 80.7423L98.9953 82.3589L99.3995 81.9548L97.7827 80.3382L99.3995 78.7216Z" fill="black"/>
<path fill-rule="evenodd" clip-rule="evenodd" d="M108.061 78.7216L107.657 78.3174L106.04 79.934L104.423 78.3174L104.019 78.7216L105.636 80.3382L104.019 81.9548L104.423 82.3589L106.04 80.7423L107.657 82.3589L108.061 81.9548L106.444 80.3382L108.061 78.7216Z" fill="black"/>
<path fill-rule="evenodd" clip-rule="evenodd" d="M116.723 78.7216L116.318 78.3174L114.702 79.934L113.085 78.3174L112.681 78.7216L114.297 80.3382L112.681 81.9548L113.085 82.3589L114.702 80.7423L116.318 82.3589L116.723 81.9548L115.106 80.3382L116.723 78.7216Z" fill="black"/>
<path fill-rule="evenodd" clip-rule="evenodd" d="M125.384 78.7216L124.98 78.3174L123.363 79.934L121.746 78.3174L121.342 78.7216L122.959 80.3382L121.342 81.9548L121.746 82.3589L123.363 80.7423L124.98 82.3589L125.384 81.9548L123.767 80.3382L125.384 78.7216Z" fill="black"/>
<path fill-rule="evenodd" clip-rule="evenodd" d="M134.046 78.7216L133.642 78.3174L132.025 79.934L130.408 78.3174L130.004 78.7216L131.621 80.3382L130.004 81.9548L130.408 82.3589L132.025 80.7423L133.642 82.3589L134.046 81.9548L132.429 80.3382L134.046 78.7216Z" fill="black"/>
<path fill-rule="evenodd" clip-rule="evenodd" d="M142.707 78.7216L142.303 78.3174L140.686 79.934L139.069 78.3174L138.665 78.7216L140.282 80.3382L138.665 81.9548L139.069 82.3589L140.686 80.7423L142.303 82.3589L142.707 81.9548L141.091 80.3382L142.707 78.7216Z" fill="black"/>
<path fill-rule="evenodd" clip-rule="evenodd" d="M151.369 78.7216L150.965 78.3174L149.348 79.934L147.731 78.3174L147.327 78.7216L148.944 80.3382L147.327 81.9548L147.731 82.3589L149.348 80.7423L150.965 82.3589L151.369 81.9548L149.752 80.3382L151.369 78.7216Z" fill="black"/>
<path fill-rule="evenodd" clip-rule="evenodd" d="M160.031 78.7216L159.626 78.3174L158.009 79.934L156.393 78.3174L155.988 78.7216L157.605 80.3382L155.988 81.9548L156.393 82.3589L158.009 80.7423L159.626 82.3589L160.031 81.9548L158.414 80.3382L160.031 78.7216Z" fill="black"/>
<path fill-rule="evenodd" clip-rule="evenodd" d="M168.692 78.7216L168.288 78.3174L166.671 79.934L165.054 78.3174L164.65 78.7216L166.267 80.3382L164.65 81.9548L165.054 82.3589L166.671 80.7423L168.288 82.3589L168.692 81.9548L167.075 80.3382L168.692 78.7216Z" fill="black"/>
<path fill-rule="evenodd" clip-rule="evenodd" d="M177.354 78.7216L176.95 78.3174L175.333 79.934L173.716 78.3174L173.312 78.7216L174.928 80.3382L173.312 81.9548L173.716 82.3589L175.333 80.7423L176.95 82.3589L177.354 81.9548L175.737 80.3382L177.354 78.7216Z" fill="black"/>
<path fill-rule="evenodd" clip-rule="evenodd" d="M186.015 78.7216L185.611 78.3174L183.994 79.934L182.377 78.3174L181.973 78.7216L183.59 80.3382L181.973 81.9548L182.377 82.3589L183.994 80.7423L185.611 82.3589L186.015 81.9548L184.398 80.3382L186.015 78.7216Z" fill="black"/>
<path fill-rule="evenodd" clip-rule="evenodd" d="M194.677 78.7216L194.273 78.3174L192.656 79.934L191.039 78.3174L190.635 78.7216L192.252 80.3382L190.635 81.9548L191.039 82.3589L192.656 80.7423L194.273 82.3589L194.677 81.9548L193.06 80.3382L194.677 78.7216Z" fill="black"/>
<path fill-rule="evenodd" clip-rule="evenodd" d="M203.338 78.7216L202.934 78.3174L201.317 79.934L199.701 78.3174L199.296 78.7216L200.913 80.3382L199.296 81.9548L199.701 82.3589L201.317 80.7423L202.934 82.3589L203.338 81.9548L201.722 80.3382L203.338 78.7216Z" fill="black"/>
<path fill-rule="evenodd" clip-rule="evenodd" d="M211.879 78.7816L211.475 78.3774L209.858 79.994L208.241 78.3774L207.837 78.7816L209.454 80.3982L207.837 82.0148L208.241 82.4189L209.858 80.8023L211.475 82.4189L211.879 82.0148L210.263 80.3982L211.879 78.7816Z" fill="black"/>
<path fill-rule="evenodd" clip-rule="evenodd" d="M4.12209 87.3819L3.71788 86.9777L2.10105 88.5943L0.484224 86.9777L0.0800171 87.3819L1.69685 88.9985L0.0800171 90.615L0.484224 91.0192L2.10105 89.4026L3.71788 91.0192L4.12209 90.615L2.50526 88.9985L4.12209 87.3819Z" fill="black"/>
<path fill-rule="evenodd" clip-rule="evenodd" d="M12.7836 87.3819L12.3794 86.9777L10.7626 88.5943L9.14578 86.9777L8.74158 87.3819L10.3584 88.9985L8.74158 90.615L9.14578 91.0192L10.7626 89.4026L12.3794 91.0192L12.7836 90.615L11.1668 88.9985L12.7836 87.3819Z" fill="black"/>
<path fill-rule="evenodd" clip-rule="evenodd" d="M21.4453 87.3819L21.0411 86.9777L19.4242 88.5943L17.8074 86.9777L17.4032 87.3819L19.02 88.9985L17.4032 90.615L17.8074 91.0192L19.4242 89.4026L21.0411 91.0192L21.4453 90.615L19.8284 88.9985L21.4453 87.3819Z" fill="black"/>
<path fill-rule="evenodd" clip-rule="evenodd" d="M30.1068 87.3819L29.7026 86.9777L28.0858 88.5943L26.469 86.9777L26.0648 87.3819L27.6816 88.9985L26.0648 90.615L26.469 91.0192L28.0858 89.4026L29.7026 91.0192L30.1068 90.615L28.49 88.9985L30.1068 87.3819Z" fill="black"/>
<path fill-rule="evenodd" clip-rule="evenodd" d="M38.7684 87.3819L38.3642 86.9777L36.7474 88.5943L35.1305 86.9777L34.7263 87.3819L36.3431 88.9985L34.7263 90.615L35.1305 91.0192L36.7474 89.4026L38.3642 91.0192L38.7684 90.615L37.1516 88.9985L38.7684 87.3819Z" fill="black"/>
<path fill-rule="evenodd" clip-rule="evenodd" d="M47.43 87.3819L47.0258 86.9777L45.409 88.5943L43.7921 86.9777L43.3879 87.3819L45.0048 88.9985L43.3879 90.615L43.7921 91.0192L45.409 89.4026L47.0258 91.0192L47.43 90.615L45.8132 88.9985L47.43 87.3819Z" fill="black"/>
<path fill-rule="evenodd" clip-rule="evenodd" d="M56.0916 87.3819L55.6874 86.9777L54.0705 88.5943L52.4537 86.9777L52.0495 87.3819L53.6663 88.9985L52.0495 90.615L52.4537 91.0192L54.0705 89.4026L55.6874 91.0192L56.0916 90.615L54.4747 88.9985L56.0916 87.3819Z" fill="black"/>
<path fill-rule="evenodd" clip-rule="evenodd" d="M64.7531 87.3819L64.3489 86.9777L62.7321 88.5943L61.1153 86.9777L60.7111 87.3819L62.3279 88.9985L60.7111 90.615L61.1153 91.0192L62.7321 89.4026L64.3489 91.0192L64.7531 90.615L63.1363 88.9985L64.7531 87.3819Z" fill="black"/>
<path fill-rule="evenodd" clip-rule="evenodd" d="M73.4148 87.3819L73.0105 86.9777L71.3937 88.5943L69.7769 86.9777L69.3727 87.3819L70.9895 88.9985L69.3727 90.615L69.7769 91.0192L71.3937 89.4026L73.0105 91.0192L73.4148 90.615L71.7979 88.9985L73.4148 87.3819Z" fill="black"/>
<path fill-rule="evenodd" clip-rule="evenodd" d="M82.0763 87.3819L81.6721 86.9777L80.0553 88.5943L78.4384 86.9777L78.0342 87.3819L79.6511 88.9985L78.0342 90.615L78.4384 91.0192L80.0553 89.4026L81.6721 91.0192L82.0763 90.615L80.4595 88.9985L82.0763 87.3819Z" fill="black"/>
<path fill-rule="evenodd" clip-rule="evenodd" d="M90.7379 87.3819L90.3337 86.9777L88.7168 88.5943L87.1 86.9777L86.6958 87.3819L88.3126 88.9985L86.6958 90.615L87.1 91.0192L88.7168 89.4026L90.3337 91.0192L90.7379 90.615L89.121 88.9985L90.7379 87.3819Z" fill="black"/>
<path fill-rule="evenodd" clip-rule="evenodd" d="M99.3995 87.3819L98.9953 86.9777L97.3785 88.5943L95.7616 86.9777L95.3574 87.3819L96.9743 88.9985L95.3574 90.615L95.7616 91.0192L97.3785 89.4026L98.9953 91.0192L99.3995 90.615L97.7827 88.9985L99.3995 87.3819Z" fill="black"/>
<path fill-rule="evenodd" clip-rule="evenodd" d="M108.061 87.3819L107.657 86.9777L106.04 88.5943L104.423 86.9777L104.019 87.3819L105.636 88.9985L104.019 90.615L104.423 91.0192L106.04 89.4026L107.657 91.0192L108.061 90.615L106.444 88.9985L108.061 87.3819Z" fill="black"/>
<path fill-rule="evenodd" clip-rule="evenodd" d="M116.723 87.3819L116.318 86.9777L114.702 88.5943L113.085 86.9777L112.681 87.3819L114.297 88.9985L112.681 90.615L113.085 91.0192L114.702 89.4026L116.318 91.0192L116.723 90.615L115.106 88.9985L116.723 87.3819Z" fill="black"/>
<path fill-rule="evenodd" clip-rule="evenodd" d="M125.384 87.3819L124.98 86.9777L123.363 88.5943L121.746 86.9777L121.342 87.3819L122.959 88.9985L121.342 90.615L121.746 91.0192L123.363 89.4026L124.98 91.0192L125.384 90.615L123.767 88.9985L125.384 87.3819Z" fill="black"/>
<path fill-rule="evenodd" clip-rule="evenodd" d="M134.046 87.3819L133.642 86.9777L132.025 88.5943L130.408 86.9777L130.004 87.3819L131.621 88.9985L130.004 90.615L130.408 91.0192L132.025 89.4026L133.642 91.0192L134.046 90.615L132.429 88.9985L134.046 87.3819Z" fill="black"/>
<path fill-rule="evenodd" clip-rule="evenodd" d="M142.707 87.3819L142.303 86.9777L140.686 88.5943L139.069 86.9777L138.665 87.3819L140.282 88.9985L138.665 90.615L139.069 91.0192L140.686 89.4026L142.303 91.0192L142.707 90.615L141.091 88.9985L142.707 87.3819Z" fill="black"/>
<path fill-rule="evenodd" clip-rule="evenodd" d="M151.369 87.3819L150.965 86.9777L149.348 88.5943L147.731 86.9777L147.327 87.3819L148.944 88.9985L147.327 90.615L147.731 91.0192L149.348 89.4026L150.965 91.0192L151.369 90.615L149.752 88.9985L151.369 87.3819Z" fill="black"/>
<path fill-rule="evenodd" clip-rule="evenodd" d="M160.031 87.3819L159.626 86.9777L158.009 88.5943L156.393 86.9777L155.988 87.3819L157.605 88.9985L155.988 90.615L156.393 91.0192L158.009 89.4026L159.626 91.0192L160.031 90.615L158.414 88.9985L160.031 87.3819Z" fill="black"/>
<path fill-rule="evenodd" clip-rule="evenodd" d="M168.692 87.3819L168.288 86.9777L166.671 88.5943L165.054 86.9777L164.65 87.3819L166.267 88.9985L164.65 90.615L165.054 91.0192L166.671 89.4026L168.288 91.0192L168.692 90.615L167.075 88.9985L168.692 87.3819Z" fill="black"/>
<path fill-rule="evenodd" clip-rule="evenodd" d="M177.354 87.3819L176.95 86.9777L175.333 88.5943L173.716 86.9777L173.312 87.3819L174.928 88.9985L173.312 90.615L173.716 91.0192L175.333 89.4026L176.95 91.0192L177.354 90.615L175.737 88.9985L177.354 87.3819Z" fill="black"/>
<path fill-rule="evenodd" clip-rule="evenodd" d="M186.015 87.3819L185.611 86.9777L183.994 88.5943L182.377 86.9777L181.973 87.3819L183.59 88.9985L181.973 90.615L182.377 91.0192L183.994 89.4026L185.611 91.0192L186.015 90.615L184.398 88.9985L186.015 87.3819Z" fill="black"/>
<path fill-rule="evenodd" clip-rule="evenodd" d="M194.677 87.3819L194.273 86.9777L192.656 88.5943L191.039 86.9777L190.635 87.3819L192.252 88.9985L190.635 90.615L191.039 91.0192L192.656 89.4026L194.273 91.0192L194.677 90.615L193.06 88.9985L194.677 87.3819Z" fill="black"/>
<path fill-rule="evenodd" clip-rule="evenodd" d="M203.338 87.3819L202.934 86.9777L201.317 88.5943L199.701 86.9777L199.296 87.3819L200.913 88.9985L199.296 90.615L199.701 91.0192L201.317 89.4026L202.934 91.0192L203.338 90.615L201.722 88.9985L203.338 87.3819Z" fill="black"/>
<path fill-rule="evenodd" clip-rule="evenodd" d="M211.879 87.4906L211.475 87.0864L209.858 88.703L208.241 87.0864L207.837 87.4906L209.454 89.1072L207.837 90.7237L208.241 91.1279L209.858 89.5113L211.475 91.1279L211.879 90.7237L210.263 89.1072L211.879 87.4906Z" fill="black"/>
<path fill-rule="evenodd" clip-rule="evenodd" d="M4.12209 96.0421L3.71788 95.638L2.10105 97.2546L0.484224 95.638L0.0800171 96.0421L1.69685 97.6587L0.0800171 99.2753L0.484224 99.6795L2.10105 98.0629L3.71788 99.6795L4.12209 99.2753L2.50526 97.6587L4.12209 96.0421Z" fill="black"/>
<path fill-rule="evenodd" clip-rule="evenodd" d="M12.7836 96.0421L12.3794 95.638L10.7626 97.2546L9.14578 95.638L8.74158 96.0421L10.3584 97.6587L8.74158 99.2753L9.14578 99.6795L10.7626 98.0629L12.3794 99.6795L12.7836 99.2753L11.1668 97.6587L12.7836 96.0421Z" fill="black"/>
<path fill-rule="evenodd" clip-rule="evenodd" d="M21.4453 96.0421L21.0411 95.638L19.4242 97.2546L17.8074 95.638L17.4032 96.0421L19.02 97.6587L17.4032 99.2753L17.8074 99.6795L19.4242 98.0629L21.0411 99.6795L21.4453 99.2753L19.8284 97.6587L21.4453 96.0421Z" fill="black"/>
<path fill-rule="evenodd" clip-rule="evenodd" d="M30.1068 96.0421L29.7026 95.638L28.0858 97.2546L26.469 95.638L26.0648 96.0421L27.6816 97.6587L26.0648 99.2753L26.469 99.6795L28.0858 98.0629L29.7026 99.6795L30.1068 99.2753L28.49 97.6587L30.1068 96.0421Z" fill="black"/>
<path fill-rule="evenodd" clip-rule="evenodd" d="M38.7684 96.0421L38.3642 95.638L36.7474 97.2546L35.1305 95.638L34.7263 96.0421L36.3431 97.6587L34.7263 99.2753L35.1305 99.6795L36.7474 98.0629L38.3642 99.6795L38.7684 99.2753L37.1516 97.6587L38.7684 96.0421Z" fill="black"/>
<path fill-rule="evenodd" clip-rule="evenodd" d="M47.43 96.0421L47.0258 95.638L45.409 97.2546L43.7921 95.638L43.3879 96.0421L45.0048 97.6587L43.3879 99.2753L43.7921 99.6795L45.409 98.0629L47.0258 99.6795L47.43 99.2753L45.8132 97.6587L47.43 96.0421Z" fill="black"/>
<path fill-rule="evenodd" clip-rule="evenodd" d="M56.0916 96.0421L55.6874 95.638L54.0705 97.2546L52.4537 95.638L52.0495 96.0421L53.6663 97.6587L52.0495 99.2753L52.4537 99.6795L54.0705 98.0629L55.6874 99.6795L56.0916 99.2753L54.4747 97.6587L56.0916 96.0421Z" fill="black"/>
<path fill-rule="evenodd" clip-rule="evenodd" d="M64.7531 96.0421L64.3489 95.638L62.7321 97.2546L61.1153 95.638L60.7111 96.0421L62.3279 97.6587L60.7111 99.2753L61.1153 99.6795L62.7321 98.0629L64.3489 99.6795L64.7531 99.2753L63.1363 97.6587L64.7531 96.0421Z" fill="black"/>
<path fill-rule="evenodd" clip-rule="evenodd" d="M73.4148 96.0421L73.0105 95.638L71.3937 97.2546L69.7769 95.638L69.3727 96.0421L70.9895 97.6587L69.3727 99.2753L69.7769 99.6795L71.3937 98.0629L73.0105 99.6795L73.4148 99.2753L71.7979 97.6587L73.4148 96.0421Z" fill="black"/>
<path fill-rule="evenodd" clip-rule="evenodd" d="M82.0763 96.0421L81.6721 95.638L80.0553 97.2546L78.4384 95.638L78.0342 96.0421L79.6511 97.6587L78.0342 99.2753L78.4384 99.6795L80.0553 98.0629L81.6721 99.6795L82.0763 99.2753L80.4595 97.6587L82.0763 96.0421Z" fill="black"/>
<path fill-rule="evenodd" clip-rule="evenodd" d="M90.7379 96.0421L90.3337 95.638L88.7168 97.2546L87.1 95.638L86.6958 96.0421L88.3126 97.6587L86.6958 99.2753L87.1 99.6795L88.7168 98.0629L90.3337 99.6795L90.7379 99.2753L89.121 97.6587L90.7379 96.0421Z" fill="black"/>
<path fill-rule="evenodd" clip-rule="evenodd" d="M99.3995 96.0421L98.9953 95.638L97.3785 97.2546L95.7616 95.638L95.3574 96.0421L96.9743 97.6587L95.3574 99.2753L95.7616 99.6795L97.3785 98.0629L98.9953 99.6795L99.3995 99.2753L97.7827 97.6587L99.3995 96.0421Z" fill="black"/>
<path fill-rule="evenodd" clip-rule="evenodd" d="M108.061 96.0421L107.657 95.638L106.04 97.2546L104.423 95.638L104.019 96.0421L105.636 97.6587L104.019 99.2753L104.423 99.6795L106.04 98.0629L107.657 99.6795L108.061 99.2753L106.444 97.6587L108.061 96.0421Z" fill="black"/>
<path fill-rule="evenodd" clip-rule="evenodd" d="M116.723 96.0421L116.318 95.638L114.702 97.2546L113.085 95.638L112.681 96.0421L114.297 97.6587L112.681 99.2753L113.085 99.6795L114.702 98.0629L116.318 99.6795L116.723 99.2753L115.106 97.6587L116.723 96.0421Z" fill="black"/>
<path fill-rule="evenodd" clip-rule="evenodd" d="M125.384 96.0421L124.98 95.638L123.363 97.2546L121.746 95.638L121.342 96.0421L122.959 97.6587L121.342 99.2753L121.746 99.6795L123.363 98.0629L124.98 99.6795L125.384 99.2753L123.767 97.6587L125.384 96.0421Z" fill="black"/>
<path fill-rule="evenodd" clip-rule="evenodd" d="M134.046 96.0421L133.642 95.638L132.025 97.2546L130.408 95.638L130.004 96.0421L131.621 97.6587L130.004 99.2753L130.408 99.6795L132.025 98.0629L133.642 99.6795L134.046 99.2753L132.429 97.6587L134.046 96.0421Z" fill="black"/>
<path fill-rule="evenodd" clip-rule="evenodd" d="M142.707 96.0421L142.303 95.638L140.686 97.2546L139.069 95.638L138.665 96.0421L140.282 97.6587L138.665 99.2753L139.069 99.6795L140.686 98.0629L142.303 99.6795L142.707 99.2753L141.091 97.6587L142.707 96.0421Z" fill="black"/>
<path fill-rule="evenodd" clip-rule="evenodd" d="M151.369 96.0421L150.965 95.638L149.348 97.2546L147.731 95.638L147.327 96.0421L148.944 97.6587L147.327 99.2753L147.731 99.6795L149.348 98.0629L150.965 99.6795L151.369 99.2753L149.752 97.6587L151.369 96.0421Z" fill="black"/>
<path fill-rule="evenodd" clip-rule="evenodd" d="M160.031 96.0421L159.626 95.638L158.009 97.2546L156.393 95.638L155.988 96.0421L157.605 97.6587L155.988 99.2753L156.393 99.6795L158.009 98.0629L159.626 99.6795L160.031 99.2753L158.414 97.6587L160.031 96.0421Z" fill="black"/>
<path fill-rule="evenodd" clip-rule="evenodd" d="M168.692 96.0421L168.288 95.638L166.671 97.2546L165.054 95.638L164.65 96.0421L166.267 97.6587L164.65 99.2753L165.054 99.6795L166.671 98.0629L168.288 99.6795L168.692 99.2753L167.075 97.6587L168.692 96.0421Z" fill="black"/>
<path fill-rule="evenodd" clip-rule="evenodd" d="M177.354 96.0421L176.95 95.638L175.333 97.2546L173.716 95.638L173.312 96.0421L174.928 97.6587L173.312 99.2753L173.716 99.6795L175.333 98.0629L176.95 99.6795L177.354 99.2753L175.737 97.6587L177.354 96.0421Z" fill="black"/>
<path fill-rule="evenodd" clip-rule="evenodd" d="M186.015 96.0421L185.611 95.638L183.994 97.2546L182.377 95.638L181.973 96.0421L183.59 97.6587L181.973 99.2753L182.377 99.6795L183.994 98.0629L185.611 99.6795L186.015 99.2753L184.398 97.6587L186.015 96.0421Z" fill="black"/>
<path fill-rule="evenodd" clip-rule="evenodd" d="M194.677 96.0421L194.273 95.638L192.656 97.2546L191.039 95.638L190.635 96.0421L192.252 97.6587L190.635 99.2753L191.039 99.6795L192.656 98.0629L194.273 99.6795L194.677 99.2753L193.06 97.6587L194.677 96.0421Z" fill="black"/>
<path fill-rule="evenodd" clip-rule="evenodd" d="M203.338 96.0421L202.934 95.638L201.317 97.2546L199.701 95.638L199.296 96.0421L200.913 97.6587L199.296 99.2753L199.701 99.6795L201.317 98.0629L202.934 99.6795L203.338 99.2753L201.722 97.6587L203.338 96.0421Z" fill="black"/>
<path fill-rule="evenodd" clip-rule="evenodd" d="M211.879 96.1996L211.475 95.7955L209.858 97.4121L208.241 95.7955L207.837 96.1996L209.454 97.8162L207.837 99.4328L208.241 99.8369L209.858 98.2203L211.475 99.8369L211.879 99.4328L210.263 97.8162L211.879 96.1996Z" fill="black"/>
<path fill-rule="evenodd" clip-rule="evenodd" d="M4.12209 104.702L3.71788 104.298L2.10105 105.915L0.484224 104.298L0.0800171 104.702L1.69685 106.319L0.0800171 107.936L0.484224 108.34L2.10105 106.723L3.71788 108.34L4.12209 107.936L2.50526 106.319L4.12209 104.702Z" fill="black"/>
<path fill-rule="evenodd" clip-rule="evenodd" d="M12.7836 104.702L12.3794 104.298L10.7626 105.915L9.14578 104.298L8.74158 104.702L10.3584 106.319L8.74158 107.936L9.14578 108.34L10.7626 106.723L12.3794 108.34L12.7836 107.936L11.1668 106.319L12.7836 104.702Z" fill="black"/>
<path fill-rule="evenodd" clip-rule="evenodd" d="M21.4453 104.702L21.0411 104.298L19.4242 105.915L17.8074 104.298L17.4032 104.702L19.02 106.319L17.4032 107.936L17.8074 108.34L19.4242 106.723L21.0411 108.34L21.4453 107.936L19.8284 106.319L21.4453 104.702Z" fill="black"/>
<path fill-rule="evenodd" clip-rule="evenodd" d="M30.1068 104.702L29.7026 104.298L28.0858 105.915L26.469 104.298L26.0648 104.702L27.6816 106.319L26.0648 107.936L26.469 108.34L28.0858 106.723L29.7026 108.34L30.1068 107.936L28.49 106.319L30.1068 104.702Z" fill="black"/>
<path fill-rule="evenodd" clip-rule="evenodd" d="M38.7684 104.702L38.3642 104.298L36.7474 105.915L35.1305 104.298L34.7263 104.702L36.3431 106.319L34.7263 107.936L35.1305 108.34L36.7474 106.723L38.3642 108.34L38.7684 107.936L37.1516 106.319L38.7684 104.702Z" fill="black"/>
<path fill-rule="evenodd" clip-rule="evenodd" d="M47.43 104.702L47.0258 104.298L45.409 105.915L43.7921 104.298L43.3879 104.702L45.0048 106.319L43.3879 107.936L43.7921 108.34L45.409 106.723L47.0258 108.34L47.43 107.936L45.8132 106.319L47.43 104.702Z" fill="black"/>
<path fill-rule="evenodd" clip-rule="evenodd" d="M56.0916 104.702L55.6874 104.298L54.0705 105.915L52.4537 104.298L52.0495 104.702L53.6663 106.319L52.0495 107.936L52.4537 108.34L54.0705 106.723L55.6874 108.34L56.0916 107.936L54.4747 106.319L56.0916 104.702Z" fill="black"/>
<path fill-rule="evenodd" clip-rule="evenodd" d="M64.7531 104.702L64.3489 104.298L62.7321 105.915L61.1153 104.298L60.7111 104.702L62.3279 106.319L60.7111 107.936L61.1153 108.34L62.7321 106.723L64.3489 108.34L64.7531 107.936L63.1363 106.319L64.7531 104.702Z" fill="black"/>
<path fill-rule="evenodd" clip-rule="evenodd" d="M73.4148 104.702L73.0105 104.298L71.3937 105.915L69.7769 104.298L69.3727 104.702L70.9895 106.319L69.3727 107.936L69.7769 108.34L71.3937 106.723L73.0105 108.34L73.4148 107.936L71.7979 106.319L73.4148 104.702Z" fill="black"/>
<path fill-rule="evenodd" clip-rule="evenodd" d="M82.0763 104.702L81.6721 104.298L80.0553 105.915L78.4384 104.298L78.0342 104.702L79.6511 106.319L78.0342 107.936L78.4384 108.34L80.0553 106.723L81.6721 108.34L82.0763 107.936L80.4595 106.319L82.0763 104.702Z" fill="black"/>
<path fill-rule="evenodd" clip-rule="evenodd" d="M90.7379 104.702L90.3337 104.298L88.7168 105.915L87.1 104.298L86.6958 104.702L88.3126 106.319L86.6958 107.936L87.1 108.34L88.7168 106.723L90.3337 108.34L90.7379 107.936L89.121 106.319L90.7379 104.702Z" fill="black"/>
<path fill-rule="evenodd" clip-rule="evenodd" d="M99.3995 104.702L98.9953 104.298L97.3785 105.915L95.7616 104.298L95.3574 104.702L96.9743 106.319L95.3574 107.936L95.7616 108.34L97.3785 106.723L98.9953 108.34L99.3995 107.936L97.7827 106.319L99.3995 104.702Z" fill="black"/>
<path fill-rule="evenodd" clip-rule="evenodd" d="M108.061 104.702L107.657 104.298L106.04 105.915L104.423 104.298L104.019 104.702L105.636 106.319L104.019 107.936L104.423 108.34L106.04 106.723L107.657 108.34L108.061 107.936L106.444 106.319L108.061 104.702Z" fill="black"/>
<path fill-rule="evenodd" clip-rule="evenodd" d="M116.723 104.702L116.318 104.298L114.702 105.915L113.085 104.298L112.681 104.702L114.297 106.319L112.681 107.936L113.085 108.34L114.702 106.723L116.318 108.34L116.723 107.936L115.106 106.319L116.723 104.702Z" fill="black"/>
<path fill-rule="evenodd" clip-rule="evenodd" d="M125.384 104.702L124.98 104.298L123.363 105.915L121.746 104.298L121.342 104.702L122.959 106.319L121.342 107.936L121.746 108.34L123.363 106.723L124.98 108.34L125.384 107.936L123.767 106.319L125.384 104.702Z" fill="black"/>
<path fill-rule="evenodd" clip-rule="evenodd" d="M134.046 104.702L133.642 104.298L132.025 105.915L130.408 104.298L130.004 104.702L131.621 106.319L130.004 107.936L130.408 108.34L132.025 106.723L133.642 108.34L134.046 107.936L132.429 106.319L134.046 104.702Z" fill="black"/>
<path fill-rule="evenodd" clip-rule="evenodd" d="M142.707 104.702L142.303 104.298L140.686 105.915L139.069 104.298L138.665 104.702L140.282 106.319L138.665 107.936L139.069 108.34L140.686 106.723L142.303 108.34L142.707 107.936L141.091 106.319L142.707 104.702Z" fill="black"/>
<path fill-rule="evenodd" clip-rule="evenodd" d="M151.369 104.702L150.965 104.298L149.348 105.915L147.731 104.298L147.327 104.702L148.944 106.319L147.327 107.936L147.731 108.34L149.348 106.723L150.965 108.34L151.369 107.936L149.752 106.319L151.369 104.702Z" fill="black"/>
<path fill-rule="evenodd" clip-rule="evenodd" d="M160.031 104.702L159.626 104.298L158.009 105.915L156.393 104.298L155.988 104.702L157.605 106.319L155.988 107.936L156.393 108.34L158.009 106.723L159.626 108.34L160.031 107.936L158.414 106.319L160.031 104.702Z" fill="black"/>
<path fill-rule="evenodd" clip-rule="evenodd" d="M168.692 104.702L168.288 104.298L166.671 105.915L165.054 104.298L164.65 104.702L166.267 106.319L164.65 107.936L165.054 108.34L166.671 106.723L168.288 108.34L168.692 107.936L167.075 106.319L168.692 104.702Z" fill="black"/>
<path fill-rule="evenodd" clip-rule="evenodd" d="M177.354 104.702L176.95 104.298L175.333 105.915L173.716 104.298L173.312 104.702L174.928 106.319L173.312 107.936L173.716 108.34L175.333 106.723L176.95 108.34L177.354 107.936L175.737 106.319L177.354 104.702Z" fill="black"/>
<path fill-rule="evenodd" clip-rule="evenodd" d="M186.015 104.702L185.611 104.298L183.994 105.915L182.377 104.298L181.973 104.702L183.59 106.319L181.973 107.936L182.377 108.34L183.994 106.723L185.611 108.34L186.015 107.936L184.398 106.319L186.015 104.702Z" fill="black"/>
<path fill-rule="evenodd" clip-rule="evenodd" d="M194.677 104.702L194.273 104.298L192.656 105.915L191.039 104.298L190.635 104.702L192.252 106.319L190.635 107.936L191.039 108.34L192.656 106.723L194.273 108.34L194.677 107.936L193.06 106.319L194.677 104.702Z" fill="black"/>
<path fill-rule="evenodd" clip-rule="evenodd" d="M203.338 104.702L202.934 104.298L201.317 105.915L199.701 104.298L199.296 104.702L200.913 106.319L199.296 107.936L199.701 108.34L201.317 106.723L202.934 108.34L203.338 107.936L201.722 106.319L203.338 104.702Z" fill="black"/>
<path fill-rule="evenodd" clip-rule="evenodd" d="M211.879 104.53L211.475 104.126L209.858 105.742L208.241 104.126L207.837 104.53L209.454 106.147L207.837 107.763L208.241 108.167L209.858 106.551L211.475 108.167L211.879 107.763L210.263 106.147L211.879 104.53Z" fill="black"/>
<path fill-rule="evenodd" clip-rule="evenodd" d="M211.879 113.239L211.475 112.835L209.858 114.451L208.241 112.835L207.837 113.239L209.454 114.856L207.837 116.472L208.241 116.876L209.858 115.26L211.475 116.876L211.879 116.472L210.263 114.856L211.879 113.239Z" fill="black"/>
<path fill-rule="evenodd" clip-rule="evenodd" d="M4.12209 113.239L3.71788 112.835L2.10105 114.451L0.484224 112.835L0.0800171 113.239L1.69685 114.856L0.0800171 116.472L0.484224 116.876L2.10105 115.26L3.71788 116.876L4.12209 116.472L2.50526 114.856L4.12209 113.239Z" fill="black"/>
<path fill-rule="evenodd" clip-rule="evenodd" d="M12.8259 113.239L12.4217 112.835L10.8049 114.451L9.18808 112.835L8.78387 113.239L10.4007 114.856L8.78387 116.472L9.18808 116.876L10.8049 115.26L12.4217 116.876L12.8259 116.472L11.2091 114.856L12.8259 113.239Z" fill="black"/>
<path fill-rule="evenodd" clip-rule="evenodd" d="M21.5298 113.239L21.1256 112.835L19.5088 114.451L17.8919 112.835L17.4877 113.239L19.1046 114.856L17.4877 116.472L17.8919 116.876L19.5088 115.26L21.1256 116.876L21.5298 116.472L19.913 114.856L21.5298 113.239Z" fill="black"/>
<path fill-rule="evenodd" clip-rule="evenodd" d="M30.2337 113.239L29.8295 112.835L28.2126 114.451L26.5958 112.835L26.1916 113.239L27.8084 114.856L26.1916 116.472L26.5958 116.876L28.2126 115.26L29.8295 116.876L30.2337 116.472L28.6168 114.856L30.2337 113.239Z" fill="black"/>
<path fill-rule="evenodd" clip-rule="evenodd" d="M38.9375 113.239L38.5333 112.835L36.9165 114.451L35.2997 112.835L34.8954 113.239L36.5123 114.856L34.8954 116.472L35.2997 116.876L36.9165 115.26L38.5333 116.876L38.9375 116.472L37.3207 114.856L38.9375 113.239Z" fill="black"/>
<path fill-rule="evenodd" clip-rule="evenodd" d="M47.263 113.239L46.8587 112.835L45.2419 114.451L43.6251 112.835L43.2209 113.239L44.8377 114.856L43.2209 116.472L43.6251 116.876L45.2419 115.26L46.8587 116.876L47.263 116.472L45.6461 114.856L47.263 113.239Z" fill="black"/>
<path fill-rule="evenodd" clip-rule="evenodd" d="M55.9668 113.239L55.5626 112.835L53.9458 114.451L52.329 112.835L51.9247 113.239L53.5416 114.856L51.9247 116.472L52.329 116.876L53.9458 115.26L55.5626 116.876L55.9668 116.472L54.35 114.856L55.9668 113.239Z" fill="black"/>
<path fill-rule="evenodd" clip-rule="evenodd" d="M64.6707 113.239L64.2665 112.835L62.6496 114.451L61.0328 112.835L60.6286 113.239L62.2454 114.856L60.6286 116.472L61.0328 116.876L62.6496 115.26L64.2665 116.876L64.6707 116.472L63.0538 114.856L64.6707 113.239Z" fill="black"/>
<path fill-rule="evenodd" clip-rule="evenodd" d="M73.3745 113.239L72.9703 112.835L71.3535 114.451L69.7367 112.835L69.3325 113.239L70.9493 114.856L69.3325 116.472L69.7367 116.876L71.3535 115.26L72.9703 116.876L73.3745 116.472L71.7577 114.856L73.3745 113.239Z" fill="black"/>
<path fill-rule="evenodd" clip-rule="evenodd" d="M82.0784 113.239L81.6742 112.835L80.0574 114.451L78.4405 112.835L78.0363 113.239L79.6531 114.856L78.0363 116.472L78.4405 116.876L80.0574 115.26L81.6742 116.876L82.0784 116.472L80.4616 114.856L82.0784 113.239Z" fill="black"/>
<path fill-rule="evenodd" clip-rule="evenodd" d="M90.7822 113.239L90.378 112.835L88.7612 114.451L87.1444 112.835L86.7402 113.239L88.357 114.856L86.7402 116.472L87.1444 116.876L88.7612 115.26L90.378 116.876L90.7822 116.472L89.1654 114.856L90.7822 113.239Z" fill="black"/>
<path fill-rule="evenodd" clip-rule="evenodd" d="M99.4861 113.239L99.0819 112.835L97.4651 114.451L95.8482 112.835L95.444 113.239L97.0609 114.856L95.444 116.472L95.8482 116.876L97.4651 115.26L99.0819 116.876L99.4861 116.472L97.8693 114.856L99.4861 113.239Z" fill="black"/>
<path fill-rule="evenodd" clip-rule="evenodd" d="M108.19 113.239L107.786 112.835L106.169 114.451L104.552 112.835L104.148 113.239L105.765 114.856L104.148 116.472L104.552 116.876L106.169 115.26L107.786 116.876L108.19 116.472L106.573 114.856L108.19 113.239Z" fill="black"/>
<path fill-rule="evenodd" clip-rule="evenodd" d="M116.894 113.239L116.49 112.835L114.873 114.451L113.256 112.835L112.852 113.239L114.469 114.856L112.852 116.472L113.256 116.876L114.873 115.26L116.49 116.876L116.894 116.472L115.277 114.856L116.894 113.239Z" fill="black"/>
<path fill-rule="evenodd" clip-rule="evenodd" d="M125.219 113.239L124.815 112.835L123.198 114.451L121.581 112.835L121.177 113.239L122.794 114.856L121.177 116.472L121.581 116.876L123.198 115.26L124.815 116.876L125.219 116.472L123.602 114.856L125.219 113.239Z" fill="black"/>
<path fill-rule="evenodd" clip-rule="evenodd" d="M133.923 113.239L133.519 112.835L131.902 114.451L130.285 112.835L129.881 113.239L131.498 114.856L129.881 116.472L130.285 116.876L131.902 115.26L133.519 116.876L133.923 116.472L132.306 114.856L133.923 113.239Z" fill="black"/>
<path fill-rule="evenodd" clip-rule="evenodd" d="M142.627 113.239L142.223 112.835L140.606 114.451L138.989 112.835L138.585 113.239L140.202 114.856L138.585 116.472L138.989 116.876L140.606 115.26L142.223 116.876L142.627 116.472L141.01 114.856L142.627 113.239Z" fill="black"/>
<path fill-rule="evenodd" clip-rule="evenodd" d="M151.331 113.239L150.927 112.835L149.31 114.451L147.693 112.835L147.289 113.239L148.906 114.856L147.289 116.472L147.693 116.876L149.31 115.26L150.927 116.876L151.331 116.472L149.714 114.856L151.331 113.239Z" fill="black"/>
<path fill-rule="evenodd" clip-rule="evenodd" d="M160.035 113.239L159.63 112.835L158.014 114.451L156.397 112.835L155.993 113.239L157.609 114.856L155.993 116.472L156.397 116.876L158.014 115.26L159.63 116.876L160.035 116.472L158.418 114.856L160.035 113.239Z" fill="black"/>
<path fill-rule="evenodd" clip-rule="evenodd" d="M168.738 113.239L168.334 112.835L166.717 114.451L165.101 112.835L164.696 113.239L166.313 114.856L164.696 116.472L165.101 116.876L166.717 115.26L168.334 116.876L168.738 116.472L167.122 114.856L168.738 113.239Z" fill="black"/>
<path fill-rule="evenodd" clip-rule="evenodd" d="M177.442 113.239L177.038 112.835L175.421 114.451L173.804 112.835L173.4 113.239L175.017 114.856L173.4 116.472L173.804 116.876L175.421 115.26L177.038 116.876L177.442 116.472L175.826 114.856L177.442 113.239Z" fill="black"/>
<path fill-rule="evenodd" clip-rule="evenodd" d="M186.146 113.239L185.742 112.835L184.125 114.451L182.508 112.835L182.104 113.239L183.721 114.856L182.104 116.472L182.508 116.876L184.125 115.26L185.742 116.876L186.146 116.472L184.529 114.856L186.146 113.239Z" fill="black"/>
<path fill-rule="evenodd" clip-rule="evenodd" d="M194.85 113.239L194.446 112.835L192.829 114.451L191.212 112.835L190.808 113.239L192.425 114.856L190.808 116.472L191.212 116.876L192.829 115.26L194.446 116.876L194.85 116.472L193.233 114.856L194.85 113.239Z" fill="black"/>
<path fill-rule="evenodd" clip-rule="evenodd" d="M203.175 113.239L202.771 112.835L201.154 114.451L199.538 112.835L199.133 113.239L200.75 114.856L199.133 116.472L199.538 116.876L201.154 115.26L202.771 116.876L203.175 116.472L201.559 114.856L203.175 113.239Z" fill="black"/>
</g>
</svg>
