<svg width="107" height="60" viewBox="0 0 107 60" fill="none" xmlns="http://www.w3.org/2000/svg">
<g opacity="0.41948">
<path fill-rule="evenodd" clip-rule="evenodd" d="M2.43827 1.12167L2.23617 0.919067L1.42775 1.72947L0.61934 0.919067L0.417236 1.12167L1.22565 1.93207L0.417236 2.74247L0.61934 2.94507L1.42775 2.13467L2.23617 2.94507L2.43827 2.74247L1.62986 1.93207L2.43827 1.12167Z" fill="black"/>
<path fill-rule="evenodd" clip-rule="evenodd" d="M2.43827 5.4631L2.23617 5.2605L1.42775 6.0709L0.61934 5.2605L0.417236 5.4631L1.22565 6.2735L0.417236 7.0839L0.61934 7.2865L1.42775 6.4761L2.23617 7.2865L2.43827 7.0839L1.62986 6.2735L2.43827 5.4631Z" fill="black"/>
<path fill-rule="evenodd" clip-rule="evenodd" d="M6.76908 1.12167L6.56698 0.919067L5.75856 1.72947L4.95015 0.919067L4.74805 1.12167L5.55646 1.93207L4.74805 2.74247L4.95015 2.94507L5.75856 2.13467L6.56698 2.94507L6.76908 2.74247L5.96067 1.93207L6.76908 1.12167Z" fill="black"/>
<path fill-rule="evenodd" clip-rule="evenodd" d="M6.76908 5.4631L6.56698 5.2605L5.75856 6.0709L4.95015 5.2605L4.74805 5.4631L5.55646 6.2735L4.74805 7.0839L4.95015 7.2865L5.75856 6.4761L6.56698 7.2865L6.76908 7.0839L5.96067 6.2735L6.76908 5.4631Z" fill="black"/>
<path fill-rule="evenodd" clip-rule="evenodd" d="M11.0999 1.12167L10.8978 0.919067L10.0894 1.72947L9.28096 0.919067L9.07886 1.12167L9.88727 1.93207L9.07886 2.74247L9.28096 2.94507L10.0894 2.13467L10.8978 2.94507L11.0999 2.74247L10.2915 1.93207L11.0999 1.12167Z" fill="black"/>
<path fill-rule="evenodd" clip-rule="evenodd" d="M11.0999 5.4631L10.8978 5.2605L10.0894 6.0709L9.28096 5.2605L9.07886 5.4631L9.88727 6.2735L9.07886 7.0839L9.28096 7.2865L10.0894 6.4761L10.8978 7.2865L11.0999 7.0839L10.2915 6.2735L11.0999 5.4631Z" fill="black"/>
<path fill-rule="evenodd" clip-rule="evenodd" d="M15.4306 1.12167L15.2285 0.919067L14.4201 1.72947L13.6116 0.919067L13.4095 1.12167L14.218 1.93207L13.4095 2.74247L13.6116 2.94507L14.4201 2.13467L15.2285 2.94507L15.4306 2.74247L14.6222 1.93207L15.4306 1.12167Z" fill="black"/>
<path fill-rule="evenodd" clip-rule="evenodd" d="M15.4306 5.4631L15.2285 5.2605L14.4201 6.0709L13.6116 5.2605L13.4095 5.4631L14.218 6.2735L13.4095 7.0839L13.6116 7.2865L14.4201 6.4761L15.2285 7.2865L15.4306 7.0839L14.6222 6.2735L15.4306 5.4631Z" fill="black"/>
<path fill-rule="evenodd" clip-rule="evenodd" d="M19.7614 1.12167L19.5593 0.919067L18.7509 1.72947L17.9425 0.919067L17.7404 1.12167L18.5488 1.93207L17.7404 2.74247L17.9425 2.94507L18.7509 2.13467L19.5593 2.94507L19.7614 2.74247L18.953 1.93207L19.7614 1.12167Z" fill="black"/>
<path fill-rule="evenodd" clip-rule="evenodd" d="M19.7614 5.4631L19.5593 5.2605L18.7509 6.0709L17.9425 5.2605L17.7404 5.4631L18.5488 6.2735L17.7404 7.0839L17.9425 7.2865L18.7509 6.4761L19.5593 7.2865L19.7614 7.0839L18.953 6.2735L19.7614 5.4631Z" fill="black"/>
<path fill-rule="evenodd" clip-rule="evenodd" d="M24.0922 1.12167L23.8901 0.919067L23.0817 1.72947L22.2733 0.919067L22.0712 1.12167L22.8796 1.93207L22.0712 2.74247L22.2733 2.94507L23.0817 2.13467L23.8901 2.94507L24.0922 2.74247L23.2838 1.93207L24.0922 1.12167Z" fill="black"/>
<path fill-rule="evenodd" clip-rule="evenodd" d="M24.0922 5.4631L23.8901 5.2605L23.0817 6.0709L22.2733 5.2605L22.0712 5.4631L22.8796 6.2735L22.0712 7.0839L22.2733 7.2865L23.0817 6.4761L23.8901 7.2865L24.0922 7.0839L23.2838 6.2735L24.0922 5.4631Z" fill="black"/>
<path fill-rule="evenodd" clip-rule="evenodd" d="M28.423 1.12167L28.2209 0.919067L27.4125 1.72947L26.6041 0.919067L26.402 1.12167L27.2104 1.93207L26.402 2.74247L26.6041 2.94507L27.4125 2.13467L28.2209 2.94507L28.423 2.74247L27.6146 1.93207L28.423 1.12167Z" fill="black"/>
<path fill-rule="evenodd" clip-rule="evenodd" d="M28.423 5.4631L28.2209 5.2605L27.4125 6.0709L26.6041 5.2605L26.402 5.4631L27.2104 6.2735L26.402 7.0839L26.6041 7.2865L27.4125 6.4761L28.2209 7.2865L28.423 7.0839L27.6146 6.2735L28.423 5.4631Z" fill="black"/>
<path fill-rule="evenodd" clip-rule="evenodd" d="M32.7538 1.12167L32.5517 0.919067L31.7433 1.72947L30.9349 0.919067L30.7328 1.12167L31.5412 1.93207L30.7328 2.74247L30.9349 2.94507L31.7433 2.13467L32.5517 2.94507L32.7538 2.74247L31.9454 1.93207L32.7538 1.12167Z" fill="black"/>
<path fill-rule="evenodd" clip-rule="evenodd" d="M32.7538 5.4631L32.5517 5.2605L31.7433 6.0709L30.9349 5.2605L30.7328 5.4631L31.5412 6.2735L30.7328 7.0839L30.9349 7.2865L31.7433 6.4761L32.5517 7.2865L32.7538 7.0839L31.9454 6.2735L32.7538 5.4631Z" fill="black"/>
<path fill-rule="evenodd" clip-rule="evenodd" d="M37.0846 1.12167L36.8825 0.919067L36.0741 1.72947L35.2657 0.919067L35.0636 1.12167L35.872 1.93207L35.0636 2.74247L35.2657 2.94507L36.0741 2.13467L36.8825 2.94507L37.0846 2.74247L36.2762 1.93207L37.0846 1.12167Z" fill="black"/>
<path fill-rule="evenodd" clip-rule="evenodd" d="M37.0846 5.4631L36.8825 5.2605L36.0741 6.0709L35.2657 5.2605L35.0636 5.4631L35.872 6.2735L35.0636 7.0839L35.2657 7.2865L36.0741 6.4761L36.8825 7.2865L37.0846 7.0839L36.2762 6.2735L37.0846 5.4631Z" fill="black"/>
<path fill-rule="evenodd" clip-rule="evenodd" d="M41.4153 1.12167L41.2132 0.919067L40.4048 1.72947L39.5964 0.919067L39.3943 1.12167L40.2027 1.93207L39.3943 2.74247L39.5964 2.94507L40.4048 2.13467L41.2132 2.94507L41.4153 2.74247L40.6069 1.93207L41.4153 1.12167Z" fill="black"/>
<path fill-rule="evenodd" clip-rule="evenodd" d="M41.4153 5.4631L41.2132 5.2605L40.4048 6.0709L39.5964 5.2605L39.3943 5.4631L40.2027 6.2735L39.3943 7.0839L39.5964 7.2865L40.4048 6.4761L41.2132 7.2865L41.4153 7.0839L40.6069 6.2735L41.4153 5.4631Z" fill="black"/>
<path fill-rule="evenodd" clip-rule="evenodd" d="M45.7461 1.12167L45.544 0.919067L44.7356 1.72947L43.9272 0.919067L43.7251 1.12167L44.5335 1.93207L43.7251 2.74247L43.9272 2.94507L44.7356 2.13467L45.544 2.94507L45.7461 2.74247L44.9377 1.93207L45.7461 1.12167Z" fill="black"/>
<path fill-rule="evenodd" clip-rule="evenodd" d="M45.7461 5.4631L45.544 5.2605L44.7356 6.0709L43.9272 5.2605L43.7251 5.4631L44.5335 6.2735L43.7251 7.0839L43.9272 7.2865L44.7356 6.4761L45.544 7.2865L45.7461 7.0839L44.9377 6.2735L45.7461 5.4631Z" fill="black"/>
<path fill-rule="evenodd" clip-rule="evenodd" d="M50.0769 1.12167L49.8748 0.919067L49.0664 1.72947L48.258 0.919067L48.0559 1.12167L48.8643 1.93207L48.0559 2.74247L48.258 2.94507L49.0664 2.13467L49.8748 2.94507L50.0769 2.74247L49.2685 1.93207L50.0769 1.12167Z" fill="black"/>
<path fill-rule="evenodd" clip-rule="evenodd" d="M50.0769 5.4631L49.8748 5.2605L49.0664 6.0709L48.258 5.2605L48.0559 5.4631L48.8643 6.2735L48.0559 7.0839L48.258 7.2865L49.0664 6.4761L49.8748 7.2865L50.0769 7.0839L49.2685 6.2735L50.0769 5.4631Z" fill="black"/>
<path fill-rule="evenodd" clip-rule="evenodd" d="M54.4078 1.12167L54.2057 0.919067L53.3972 1.72947L52.5888 0.919067L52.3867 1.12167L53.1951 1.93207L52.3867 2.74247L52.5888 2.94507L53.3972 2.13467L54.2057 2.94507L54.4078 2.74247L53.5993 1.93207L54.4078 1.12167Z" fill="black"/>
<path fill-rule="evenodd" clip-rule="evenodd" d="M54.4078 5.4631L54.2057 5.2605L53.3972 6.0709L52.5888 5.2605L52.3867 5.4631L53.1951 6.2735L52.3867 7.0839L52.5888 7.2865L53.3972 6.4761L54.2057 7.2865L54.4078 7.0839L53.5993 6.2735L54.4078 5.4631Z" fill="black"/>
<path fill-rule="evenodd" clip-rule="evenodd" d="M58.7386 1.12167L58.5365 0.919067L57.728 1.72947L56.9196 0.919067L56.7175 1.12167L57.5259 1.93207L56.7175 2.74247L56.9196 2.94507L57.728 2.13467L58.5365 2.94507L58.7386 2.74247L57.9302 1.93207L58.7386 1.12167Z" fill="black"/>
<path fill-rule="evenodd" clip-rule="evenodd" d="M58.7386 5.4631L58.5365 5.2605L57.728 6.0709L56.9196 5.2605L56.7175 5.4631L57.5259 6.2735L56.7175 7.0839L56.9196 7.2865L57.728 6.4761L58.5365 7.2865L58.7386 7.0839L57.9302 6.2735L58.7386 5.4631Z" fill="black"/>
<path fill-rule="evenodd" clip-rule="evenodd" d="M63.0694 1.12167L62.8673 0.919067L62.0589 1.72947L61.2504 0.919067L61.0483 1.12167L61.8568 1.93207L61.0483 2.74247L61.2504 2.94507L62.0589 2.13467L62.8673 2.94507L63.0694 2.74247L62.261 1.93207L63.0694 1.12167Z" fill="black"/>
<path fill-rule="evenodd" clip-rule="evenodd" d="M63.0694 5.4631L62.8673 5.2605L62.0589 6.0709L61.2504 5.2605L61.0483 5.4631L61.8568 6.2735L61.0483 7.0839L61.2504 7.2865L62.0589 6.4761L62.8673 7.2865L63.0694 7.0839L62.261 6.2735L63.0694 5.4631Z" fill="black"/>
<path fill-rule="evenodd" clip-rule="evenodd" d="M67.4001 1.12167L67.198 0.919067L66.3895 1.72947L65.5811 0.919067L65.379 1.12167L66.1874 1.93207L65.379 2.74247L65.5811 2.94507L66.3895 2.13467L67.198 2.94507L67.4001 2.74247L66.5916 1.93207L67.4001 1.12167Z" fill="black"/>
<path fill-rule="evenodd" clip-rule="evenodd" d="M67.4001 5.4631L67.198 5.2605L66.3895 6.0709L65.5811 5.2605L65.379 5.4631L66.1874 6.2735L65.379 7.0839L65.5811 7.2865L66.3895 6.4761L67.198 7.2865L67.4001 7.0839L66.5916 6.2735L67.4001 5.4631Z" fill="black"/>
<path fill-rule="evenodd" clip-rule="evenodd" d="M71.7309 1.12167L71.5288 0.919067L70.7204 1.72947L69.9119 0.919067L69.7098 1.12167L70.5183 1.93207L69.7098 2.74247L69.9119 2.94507L70.7204 2.13467L71.5288 2.94507L71.7309 2.74247L70.9225 1.93207L71.7309 1.12167Z" fill="black"/>
<path fill-rule="evenodd" clip-rule="evenodd" d="M71.7309 5.4631L71.5288 5.2605L70.7204 6.0709L69.9119 5.2605L69.7098 5.4631L70.5183 6.2735L69.7098 7.0839L69.9119 7.2865L70.7204 6.4761L71.5288 7.2865L71.7309 7.0839L70.9225 6.2735L71.7309 5.4631Z" fill="black"/>
<path fill-rule="evenodd" clip-rule="evenodd" d="M76.0617 1.12167L75.8596 0.919067L75.0512 1.72947L74.2428 0.919067L74.0406 1.12167L74.8491 1.93207L74.0406 2.74247L74.2428 2.94507L75.0512 2.13467L75.8596 2.94507L76.0617 2.74247L75.2533 1.93207L76.0617 1.12167Z" fill="black"/>
<path fill-rule="evenodd" clip-rule="evenodd" d="M76.0617 5.4631L75.8596 5.2605L75.0512 6.0709L74.2428 5.2605L74.0406 5.4631L74.8491 6.2735L74.0406 7.0839L74.2428 7.2865L75.0512 6.4761L75.8596 7.2865L76.0617 7.0839L75.2533 6.2735L76.0617 5.4631Z" fill="black"/>
<path fill-rule="evenodd" clip-rule="evenodd" d="M80.3925 1.12167L80.1904 0.919067L79.382 1.72947L78.5736 0.919067L78.3715 1.12167L79.1799 1.93207L78.3715 2.74247L78.5736 2.94507L79.382 2.13467L80.1904 2.94507L80.3925 2.74247L79.5841 1.93207L80.3925 1.12167Z" fill="black"/>
<path fill-rule="evenodd" clip-rule="evenodd" d="M80.3925 5.4631L80.1904 5.2605L79.382 6.0709L78.5736 5.2605L78.3715 5.4631L79.1799 6.2735L78.3715 7.0839L78.5736 7.2865L79.382 6.4761L80.1904 7.2865L80.3925 7.0839L79.5841 6.2735L80.3925 5.4631Z" fill="black"/>
<path fill-rule="evenodd" clip-rule="evenodd" d="M84.7233 1.12167L84.5212 0.919067L83.7128 1.72947L82.9044 0.919067L82.7023 1.12167L83.5107 1.93207L82.7023 2.74247L82.9044 2.94507L83.7128 2.13467L84.5212 2.94507L84.7233 2.74247L83.9149 1.93207L84.7233 1.12167Z" fill="black"/>
<path fill-rule="evenodd" clip-rule="evenodd" d="M84.7233 5.4631L84.5212 5.2605L83.7128 6.0709L82.9044 5.2605L82.7023 5.4631L83.5107 6.2735L82.7023 7.0839L82.9044 7.2865L83.7128 6.4761L84.5212 7.2865L84.7233 7.0839L83.9149 6.2735L84.7233 5.4631Z" fill="black"/>
<path fill-rule="evenodd" clip-rule="evenodd" d="M89.0541 1.12167L88.852 0.919067L88.0436 1.72947L87.2352 0.919067L87.0331 1.12167L87.8415 1.93207L87.0331 2.74247L87.2352 2.94507L88.0436 2.13467L88.852 2.94507L89.0541 2.74247L88.2457 1.93207L89.0541 1.12167Z" fill="black"/>
<path fill-rule="evenodd" clip-rule="evenodd" d="M89.0541 5.4631L88.852 5.2605L88.0436 6.0709L87.2352 5.2605L87.0331 5.4631L87.8415 6.2735L87.0331 7.0839L87.2352 7.2865L88.0436 6.4761L88.852 7.2865L89.0541 7.0839L88.2457 6.2735L89.0541 5.4631Z" fill="black"/>
<path fill-rule="evenodd" clip-rule="evenodd" d="M93.3848 1.12167L93.1827 0.919067L92.3743 1.72947L91.5659 0.919067L91.3638 1.12167L92.1722 1.93207L91.3638 2.74247L91.5659 2.94507L92.3743 2.13467L93.1827 2.94507L93.3848 2.74247L92.5764 1.93207L93.3848 1.12167Z" fill="black"/>
<path fill-rule="evenodd" clip-rule="evenodd" d="M93.3848 5.4631L93.1827 5.2605L92.3743 6.0709L91.5659 5.2605L91.3638 5.4631L92.1722 6.2735L91.3638 7.0839L91.5659 7.2865L92.3743 6.4761L93.1827 7.2865L93.3848 7.0839L92.5764 6.2735L93.3848 5.4631Z" fill="black"/>
<path fill-rule="evenodd" clip-rule="evenodd" d="M97.7156 1.12167L97.5135 0.919067L96.7051 1.72947L95.8967 0.919067L95.6946 1.12167L96.503 1.93207L95.6946 2.74247L95.8967 2.94507L96.7051 2.13467L97.5135 2.94507L97.7156 2.74247L96.9072 1.93207L97.7156 1.12167Z" fill="black"/>
<path fill-rule="evenodd" clip-rule="evenodd" d="M97.7156 5.4631L97.5135 5.2605L96.7051 6.0709L95.8967 5.2605L95.6946 5.4631L96.503 6.2735L95.6946 7.0839L95.8967 7.2865L96.7051 6.4761L97.5135 7.2865L97.7156 7.0839L96.9072 6.2735L97.7156 5.4631Z" fill="black"/>
<path fill-rule="evenodd" clip-rule="evenodd" d="M102.046 1.12167L101.844 0.919067L101.036 1.72947L100.227 0.919067L100.025 1.12167L100.834 1.93207L100.025 2.74247L100.227 2.94507L101.036 2.13467L101.844 2.94507L102.046 2.74247L101.238 1.93207L102.046 1.12167Z" fill="black"/>
<path fill-rule="evenodd" clip-rule="evenodd" d="M102.046 5.4631L101.844 5.2605L101.036 6.0709L100.227 5.2605L100.025 5.4631L100.834 6.2735L100.025 7.0839L100.227 7.2865L101.036 6.4761L101.844 7.2865L102.046 7.0839L101.238 6.2735L102.046 5.4631Z" fill="black"/>
<path fill-rule="evenodd" clip-rule="evenodd" d="M106.317 1.12167L106.115 0.919067L105.306 1.72947L104.498 0.919067L104.296 1.12167L105.104 1.93207L104.296 2.74247L104.498 2.94507L105.306 2.13467L106.115 2.94507L106.317 2.74247L105.509 1.93207L106.317 1.12167Z" fill="black"/>
<path fill-rule="evenodd" clip-rule="evenodd" d="M106.317 5.48751L106.115 5.28491L105.306 6.09531L104.498 5.28491L104.296 5.48751L105.104 6.29792L104.296 7.10832L104.498 7.31092L105.306 6.50052L106.115 7.31092L106.317 7.10832L105.509 6.29792L106.317 5.48751Z" fill="black"/>
<path fill-rule="evenodd" clip-rule="evenodd" d="M2.43827 9.80453L2.23617 9.60193L1.42775 10.4123L0.61934 9.60193L0.417236 9.80453L1.22565 10.6149L0.417236 11.4253L0.61934 11.6279L1.42775 10.8175L2.23617 11.6279L2.43827 11.4253L1.62986 10.6149L2.43827 9.80453Z" fill="black"/>
<path fill-rule="evenodd" clip-rule="evenodd" d="M6.76908 9.80453L6.56698 9.60193L5.75856 10.4123L4.95015 9.60193L4.74805 9.80453L5.55646 10.6149L4.74805 11.4253L4.95015 11.6279L5.75856 10.8175L6.56698 11.6279L6.76908 11.4253L5.96067 10.6149L6.76908 9.80453Z" fill="black"/>
<path fill-rule="evenodd" clip-rule="evenodd" d="M11.0999 9.80453L10.8978 9.60193L10.0894 10.4123L9.28096 9.60193L9.07886 9.80453L9.88727 10.6149L9.07886 11.4253L9.28096 11.6279L10.0894 10.8175L10.8978 11.6279L11.0999 11.4253L10.2915 10.6149L11.0999 9.80453Z" fill="black"/>
<path fill-rule="evenodd" clip-rule="evenodd" d="M15.4306 9.80453L15.2285 9.60193L14.4201 10.4123L13.6116 9.60193L13.4095 9.80453L14.218 10.6149L13.4095 11.4253L13.6116 11.6279L14.4201 10.8175L15.2285 11.6279L15.4306 11.4253L14.6222 10.6149L15.4306 9.80453Z" fill="black"/>
<path fill-rule="evenodd" clip-rule="evenodd" d="M19.7614 9.80453L19.5593 9.60193L18.7509 10.4123L17.9425 9.60193L17.7404 9.80453L18.5488 10.6149L17.7404 11.4253L17.9425 11.6279L18.7509 10.8175L19.5593 11.6279L19.7614 11.4253L18.953 10.6149L19.7614 9.80453Z" fill="black"/>
<path fill-rule="evenodd" clip-rule="evenodd" d="M24.0922 9.80453L23.8901 9.60193L23.0817 10.4123L22.2733 9.60193L22.0712 9.80453L22.8796 10.6149L22.0712 11.4253L22.2733 11.6279L23.0817 10.8175L23.8901 11.6279L24.0922 11.4253L23.2838 10.6149L24.0922 9.80453Z" fill="black"/>
<path fill-rule="evenodd" clip-rule="evenodd" d="M28.423 9.80453L28.2209 9.60193L27.4125 10.4123L26.6041 9.60193L26.402 9.80453L27.2104 10.6149L26.402 11.4253L26.6041 11.6279L27.4125 10.8175L28.2209 11.6279L28.423 11.4253L27.6146 10.6149L28.423 9.80453Z" fill="black"/>
<path fill-rule="evenodd" clip-rule="evenodd" d="M32.7538 9.80453L32.5517 9.60193L31.7433 10.4123L30.9349 9.60193L30.7328 9.80453L31.5412 10.6149L30.7328 11.4253L30.9349 11.6279L31.7433 10.8175L32.5517 11.6279L32.7538 11.4253L31.9454 10.6149L32.7538 9.80453Z" fill="black"/>
<path fill-rule="evenodd" clip-rule="evenodd" d="M37.0846 9.80453L36.8825 9.60193L36.0741 10.4123L35.2657 9.60193L35.0636 9.80453L35.872 10.6149L35.0636 11.4253L35.2657 11.6279L36.0741 10.8175L36.8825 11.6279L37.0846 11.4253L36.2762 10.6149L37.0846 9.80453Z" fill="black"/>
<path fill-rule="evenodd" clip-rule="evenodd" d="M41.4153 9.80453L41.2132 9.60193L40.4048 10.4123L39.5964 9.60193L39.3943 9.80453L40.2027 10.6149L39.3943 11.4253L39.5964 11.6279L40.4048 10.8175L41.2132 11.6279L41.4153 11.4253L40.6069 10.6149L41.4153 9.80453Z" fill="black"/>
<path fill-rule="evenodd" clip-rule="evenodd" d="M45.7461 9.80453L45.544 9.60193L44.7356 10.4123L43.9272 9.60193L43.7251 9.80453L44.5335 10.6149L43.7251 11.4253L43.9272 11.6279L44.7356 10.8175L45.544 11.6279L45.7461 11.4253L44.9377 10.6149L45.7461 9.80453Z" fill="black"/>
<path fill-rule="evenodd" clip-rule="evenodd" d="M50.0769 9.80453L49.8748 9.60193L49.0664 10.4123L48.258 9.60193L48.0559 9.80453L48.8643 10.6149L48.0559 11.4253L48.258 11.6279L49.0664 10.8175L49.8748 11.6279L50.0769 11.4253L49.2685 10.6149L50.0769 9.80453Z" fill="black"/>
<path fill-rule="evenodd" clip-rule="evenodd" d="M54.4078 9.80453L54.2057 9.60193L53.3972 10.4123L52.5888 9.60193L52.3867 9.80453L53.1951 10.6149L52.3867 11.4253L52.5888 11.6279L53.3972 10.8175L54.2057 11.6279L54.4078 11.4253L53.5993 10.6149L54.4078 9.80453Z" fill="black"/>
<path fill-rule="evenodd" clip-rule="evenodd" d="M58.7386 9.80453L58.5365 9.60193L57.728 10.4123L56.9196 9.60193L56.7175 9.80453L57.5259 10.6149L56.7175 11.4253L56.9196 11.6279L57.728 10.8175L58.5365 11.6279L58.7386 11.4253L57.9302 10.6149L58.7386 9.80453Z" fill="black"/>
<path fill-rule="evenodd" clip-rule="evenodd" d="M63.0694 9.80453L62.8673 9.60193L62.0589 10.4123L61.2504 9.60193L61.0483 9.80453L61.8568 10.6149L61.0483 11.4253L61.2504 11.6279L62.0589 10.8175L62.8673 11.6279L63.0694 11.4253L62.261 10.6149L63.0694 9.80453Z" fill="black"/>
<path fill-rule="evenodd" clip-rule="evenodd" d="M67.4001 9.80453L67.198 9.60193L66.3895 10.4123L65.5811 9.60193L65.379 9.80453L66.1874 10.6149L65.379 11.4253L65.5811 11.6279L66.3895 10.8175L67.198 11.6279L67.4001 11.4253L66.5916 10.6149L67.4001 9.80453Z" fill="black"/>
<path fill-rule="evenodd" clip-rule="evenodd" d="M71.7309 9.80453L71.5288 9.60193L70.7204 10.4123L69.9119 9.60193L69.7098 9.80453L70.5183 10.6149L69.7098 11.4253L69.9119 11.6279L70.7204 10.8175L71.5288 11.6279L71.7309 11.4253L70.9225 10.6149L71.7309 9.80453Z" fill="black"/>
<path fill-rule="evenodd" clip-rule="evenodd" d="M76.0617 9.80453L75.8596 9.60193L75.0512 10.4123L74.2428 9.60193L74.0406 9.80453L74.8491 10.6149L74.0406 11.4253L74.2428 11.6279L75.0512 10.8175L75.8596 11.6279L76.0617 11.4253L75.2533 10.6149L76.0617 9.80453Z" fill="black"/>
<path fill-rule="evenodd" clip-rule="evenodd" d="M80.3925 9.80453L80.1904 9.60193L79.382 10.4123L78.5736 9.60193L78.3715 9.80453L79.1799 10.6149L78.3715 11.4253L78.5736 11.6279L79.382 10.8175L80.1904 11.6279L80.3925 11.4253L79.5841 10.6149L80.3925 9.80453Z" fill="black"/>
<path fill-rule="evenodd" clip-rule="evenodd" d="M84.7233 9.80453L84.5212 9.60193L83.7128 10.4123L82.9044 9.60193L82.7023 9.80453L83.5107 10.6149L82.7023 11.4253L82.9044 11.6279L83.7128 10.8175L84.5212 11.6279L84.7233 11.4253L83.9149 10.6149L84.7233 9.80453Z" fill="black"/>
<path fill-rule="evenodd" clip-rule="evenodd" d="M89.0541 9.80453L88.852 9.60193L88.0436 10.4123L87.2352 9.60193L87.0331 9.80453L87.8415 10.6149L87.0331 11.4253L87.2352 11.6279L88.0436 10.8175L88.852 11.6279L89.0541 11.4253L88.2457 10.6149L89.0541 9.80453Z" fill="black"/>
<path fill-rule="evenodd" clip-rule="evenodd" d="M93.3848 9.80453L93.1827 9.60193L92.3743 10.4123L91.5659 9.60193L91.3638 9.80453L92.1722 10.6149L91.3638 11.4253L91.5659 11.6279L92.3743 10.8175L93.1827 11.6279L93.3848 11.4253L92.5764 10.6149L93.3848 9.80453Z" fill="black"/>
<path fill-rule="evenodd" clip-rule="evenodd" d="M97.7156 9.80453L97.5135 9.60193L96.7051 10.4123L95.8967 9.60193L95.6946 9.80453L96.503 10.6149L95.6946 11.4253L95.8967 11.6279L96.7051 10.8175L97.5135 11.6279L97.7156 11.4253L96.9072 10.6149L97.7156 9.80453Z" fill="black"/>
<path fill-rule="evenodd" clip-rule="evenodd" d="M102.046 9.80453L101.844 9.60193L101.036 10.4123L100.227 9.60193L100.025 9.80453L100.834 10.6149L100.025 11.4253L100.227 11.6279L101.036 10.8175L101.844 11.6279L102.046 11.4253L101.238 10.6149L102.046 9.80453Z" fill="black"/>
<path fill-rule="evenodd" clip-rule="evenodd" d="M106.317 9.85348L106.115 9.65088L105.306 10.4613L104.498 9.65088L104.296 9.85348L105.104 10.6639L104.296 11.4743L104.498 11.6769L105.306 10.8665L106.115 11.6769L106.317 11.4743L105.509 10.6639L106.317 9.85348Z" fill="black"/>
<path fill-rule="evenodd" clip-rule="evenodd" d="M2.43827 14.146L2.23617 13.9434L1.42775 14.7538L0.61934 13.9434L0.417236 14.146L1.22565 14.9564L0.417236 15.7668L0.61934 15.9694L1.42775 15.159L2.23617 15.9694L2.43827 15.7668L1.62986 14.9564L2.43827 14.146Z" fill="black"/>
<path fill-rule="evenodd" clip-rule="evenodd" d="M6.76908 14.146L6.56698 13.9434L5.75856 14.7538L4.95015 13.9434L4.74805 14.146L5.55646 14.9564L4.74805 15.7668L4.95015 15.9694L5.75856 15.159L6.56698 15.9694L6.76908 15.7668L5.96067 14.9564L6.76908 14.146Z" fill="black"/>
<path fill-rule="evenodd" clip-rule="evenodd" d="M11.0999 14.146L10.8978 13.9434L10.0894 14.7538L9.28096 13.9434L9.07886 14.146L9.88727 14.9564L9.07886 15.7668L9.28096 15.9694L10.0894 15.159L10.8978 15.9694L11.0999 15.7668L10.2915 14.9564L11.0999 14.146Z" fill="black"/>
<path fill-rule="evenodd" clip-rule="evenodd" d="M15.4306 14.146L15.2285 13.9434L14.4201 14.7538L13.6116 13.9434L13.4095 14.146L14.218 14.9564L13.4095 15.7668L13.6116 15.9694L14.4201 15.159L15.2285 15.9694L15.4306 15.7668L14.6222 14.9564L15.4306 14.146Z" fill="black"/>
<path fill-rule="evenodd" clip-rule="evenodd" d="M19.7614 14.146L19.5593 13.9434L18.7509 14.7538L17.9425 13.9434L17.7404 14.146L18.5488 14.9564L17.7404 15.7668L17.9425 15.9694L18.7509 15.159L19.5593 15.9694L19.7614 15.7668L18.953 14.9564L19.7614 14.146Z" fill="black"/>
<path fill-rule="evenodd" clip-rule="evenodd" d="M24.0922 14.146L23.8901 13.9434L23.0817 14.7538L22.2733 13.9434L22.0712 14.146L22.8796 14.9564L22.0712 15.7668L22.2733 15.9694L23.0817 15.159L23.8901 15.9694L24.0922 15.7668L23.2838 14.9564L24.0922 14.146Z" fill="black"/>
<path fill-rule="evenodd" clip-rule="evenodd" d="M28.423 14.146L28.2209 13.9434L27.4125 14.7538L26.6041 13.9434L26.402 14.146L27.2104 14.9564L26.402 15.7668L26.6041 15.9694L27.4125 15.159L28.2209 15.9694L28.423 15.7668L27.6146 14.9564L28.423 14.146Z" fill="black"/>
<path fill-rule="evenodd" clip-rule="evenodd" d="M32.7538 14.146L32.5517 13.9434L31.7433 14.7538L30.9349 13.9434L30.7328 14.146L31.5412 14.9564L30.7328 15.7668L30.9349 15.9694L31.7433 15.159L32.5517 15.9694L32.7538 15.7668L31.9454 14.9564L32.7538 14.146Z" fill="black"/>
<path fill-rule="evenodd" clip-rule="evenodd" d="M37.0846 14.146L36.8825 13.9434L36.0741 14.7538L35.2657 13.9434L35.0636 14.146L35.872 14.9564L35.0636 15.7668L35.2657 15.9694L36.0741 15.159L36.8825 15.9694L37.0846 15.7668L36.2762 14.9564L37.0846 14.146Z" fill="black"/>
<path fill-rule="evenodd" clip-rule="evenodd" d="M41.4153 14.146L41.2132 13.9434L40.4048 14.7538L39.5964 13.9434L39.3943 14.146L40.2027 14.9564L39.3943 15.7668L39.5964 15.9694L40.4048 15.159L41.2132 15.9694L41.4153 15.7668L40.6069 14.9564L41.4153 14.146Z" fill="black"/>
<path fill-rule="evenodd" clip-rule="evenodd" d="M45.7461 14.146L45.544 13.9434L44.7356 14.7538L43.9272 13.9434L43.7251 14.146L44.5335 14.9564L43.7251 15.7668L43.9272 15.9694L44.7356 15.159L45.544 15.9694L45.7461 15.7668L44.9377 14.9564L45.7461 14.146Z" fill="black"/>
<path fill-rule="evenodd" clip-rule="evenodd" d="M50.0769 14.146L49.8748 13.9434L49.0664 14.7538L48.258 13.9434L48.0559 14.146L48.8643 14.9564L48.0559 15.7668L48.258 15.9694L49.0664 15.159L49.8748 15.9694L50.0769 15.7668L49.2685 14.9564L50.0769 14.146Z" fill="black"/>
<path fill-rule="evenodd" clip-rule="evenodd" d="M54.4078 14.146L54.2057 13.9434L53.3972 14.7538L52.5888 13.9434L52.3867 14.146L53.1951 14.9564L52.3867 15.7668L52.5888 15.9694L53.3972 15.159L54.2057 15.9694L54.4078 15.7668L53.5993 14.9564L54.4078 14.146Z" fill="black"/>
<path fill-rule="evenodd" clip-rule="evenodd" d="M58.7386 14.146L58.5365 13.9434L57.728 14.7538L56.9196 13.9434L56.7175 14.146L57.5259 14.9564L56.7175 15.7668L56.9196 15.9694L57.728 15.159L58.5365 15.9694L58.7386 15.7668L57.9302 14.9564L58.7386 14.146Z" fill="black"/>
<path fill-rule="evenodd" clip-rule="evenodd" d="M63.0694 14.146L62.8673 13.9434L62.0589 14.7538L61.2504 13.9434L61.0483 14.146L61.8568 14.9564L61.0483 15.7668L61.2504 15.9694L62.0589 15.159L62.8673 15.9694L63.0694 15.7668L62.261 14.9564L63.0694 14.146Z" fill="black"/>
<path fill-rule="evenodd" clip-rule="evenodd" d="M67.4001 14.146L67.198 13.9434L66.3895 14.7538L65.5811 13.9434L65.379 14.146L66.1874 14.9564L65.379 15.7668L65.5811 15.9694L66.3895 15.159L67.198 15.9694L67.4001 15.7668L66.5916 14.9564L67.4001 14.146Z" fill="black"/>
<path fill-rule="evenodd" clip-rule="evenodd" d="M71.7309 14.146L71.5288 13.9434L70.7204 14.7538L69.9119 13.9434L69.7098 14.146L70.5183 14.9564L69.7098 15.7668L69.9119 15.9694L70.7204 15.159L71.5288 15.9694L71.7309 15.7668L70.9225 14.9564L71.7309 14.146Z" fill="black"/>
<path fill-rule="evenodd" clip-rule="evenodd" d="M76.0617 14.146L75.8596 13.9434L75.0512 14.7538L74.2428 13.9434L74.0406 14.146L74.8491 14.9564L74.0406 15.7668L74.2428 15.9694L75.0512 15.159L75.8596 15.9694L76.0617 15.7668L75.2533 14.9564L76.0617 14.146Z" fill="black"/>
<path fill-rule="evenodd" clip-rule="evenodd" d="M80.3925 14.146L80.1904 13.9434L79.382 14.7538L78.5736 13.9434L78.3715 14.146L79.1799 14.9564L78.3715 15.7668L78.5736 15.9694L79.382 15.159L80.1904 15.9694L80.3925 15.7668L79.5841 14.9564L80.3925 14.146Z" fill="black"/>
<path fill-rule="evenodd" clip-rule="evenodd" d="M84.7233 14.146L84.5212 13.9434L83.7128 14.7538L82.9044 13.9434L82.7023 14.146L83.5107 14.9564L82.7023 15.7668L82.9044 15.9694L83.7128 15.159L84.5212 15.9694L84.7233 15.7668L83.9149 14.9564L84.7233 14.146Z" fill="black"/>
<path fill-rule="evenodd" clip-rule="evenodd" d="M89.0541 14.146L88.852 13.9434L88.0436 14.7538L87.2352 13.9434L87.0331 14.146L87.8415 14.9564L87.0331 15.7668L87.2352 15.9694L88.0436 15.159L88.852 15.9694L89.0541 15.7668L88.2457 14.9564L89.0541 14.146Z" fill="black"/>
<path fill-rule="evenodd" clip-rule="evenodd" d="M93.3848 14.146L93.1827 13.9434L92.3743 14.7538L91.5659 13.9434L91.3638 14.146L92.1722 14.9564L91.3638 15.7668L91.5659 15.9694L92.3743 15.159L93.1827 15.9694L93.3848 15.7668L92.5764 14.9564L93.3848 14.146Z" fill="black"/>
<path fill-rule="evenodd" clip-rule="evenodd" d="M97.7156 14.146L97.5135 13.9434L96.7051 14.7538L95.8967 13.9434L95.6946 14.146L96.503 14.9564L95.6946 15.7668L95.8967 15.9694L96.7051 15.159L97.5135 15.9694L97.7156 15.7668L96.9072 14.9564L97.7156 14.146Z" fill="black"/>
<path fill-rule="evenodd" clip-rule="evenodd" d="M102.046 14.146L101.844 13.9434L101.036 14.7538L100.227 13.9434L100.025 14.146L100.834 14.9564L100.025 15.7668L100.227 15.9694L101.036 15.159L101.844 15.9694L102.046 15.7668L101.238 14.9564L102.046 14.146Z" fill="black"/>
<path fill-rule="evenodd" clip-rule="evenodd" d="M106.317 14.2193L106.115 14.0167L105.306 14.8271L104.498 14.0167L104.296 14.2193L105.104 15.0297L104.296 15.8401L104.498 16.0427L105.306 15.2323L106.115 16.0427L106.317 15.8401L105.509 15.0297L106.317 14.2193Z" fill="black"/>
<path fill-rule="evenodd" clip-rule="evenodd" d="M2.43827 18.4874L2.23617 18.2848L1.42775 19.0952L0.61934 18.2848L0.417236 18.4874L1.22565 19.2978L0.417236 20.1082L0.61934 20.3108L1.42775 19.5004L2.23617 20.3108L2.43827 20.1082L1.62986 19.2978L2.43827 18.4874Z" fill="black"/>
<path fill-rule="evenodd" clip-rule="evenodd" d="M6.76908 18.4874L6.56698 18.2848L5.75856 19.0952L4.95015 18.2848L4.74805 18.4874L5.55646 19.2978L4.74805 20.1082L4.95015 20.3108L5.75856 19.5004L6.56698 20.3108L6.76908 20.1082L5.96067 19.2978L6.76908 18.4874Z" fill="black"/>
<path fill-rule="evenodd" clip-rule="evenodd" d="M11.0999 18.4874L10.8978 18.2848L10.0894 19.0952L9.28096 18.2848L9.07886 18.4874L9.88727 19.2978L9.07886 20.1082L9.28096 20.3108L10.0894 19.5004L10.8978 20.3108L11.0999 20.1082L10.2915 19.2978L11.0999 18.4874Z" fill="black"/>
<path fill-rule="evenodd" clip-rule="evenodd" d="M15.4306 18.4874L15.2285 18.2848L14.4201 19.0952L13.6116 18.2848L13.4095 18.4874L14.218 19.2978L13.4095 20.1082L13.6116 20.3108L14.4201 19.5004L15.2285 20.3108L15.4306 20.1082L14.6222 19.2978L15.4306 18.4874Z" fill="black"/>
<path fill-rule="evenodd" clip-rule="evenodd" d="M19.7614 18.4874L19.5593 18.2848L18.7509 19.0952L17.9425 18.2848L17.7404 18.4874L18.5488 19.2978L17.7404 20.1082L17.9425 20.3108L18.7509 19.5004L19.5593 20.3108L19.7614 20.1082L18.953 19.2978L19.7614 18.4874Z" fill="black"/>
<path fill-rule="evenodd" clip-rule="evenodd" d="M24.0922 18.4874L23.8901 18.2848L23.0817 19.0952L22.2733 18.2848L22.0712 18.4874L22.8796 19.2978L22.0712 20.1082L22.2733 20.3108L23.0817 19.5004L23.8901 20.3108L24.0922 20.1082L23.2838 19.2978L24.0922 18.4874Z" fill="black"/>
<path fill-rule="evenodd" clip-rule="evenodd" d="M28.423 18.4874L28.2209 18.2848L27.4125 19.0952L26.6041 18.2848L26.402 18.4874L27.2104 19.2978L26.402 20.1082L26.6041 20.3108L27.4125 19.5004L28.2209 20.3108L28.423 20.1082L27.6146 19.2978L28.423 18.4874Z" fill="black"/>
<path fill-rule="evenodd" clip-rule="evenodd" d="M32.7538 18.4874L32.5517 18.2848L31.7433 19.0952L30.9349 18.2848L30.7328 18.4874L31.5412 19.2978L30.7328 20.1082L30.9349 20.3108L31.7433 19.5004L32.5517 20.3108L32.7538 20.1082L31.9454 19.2978L32.7538 18.4874Z" fill="black"/>
<path fill-rule="evenodd" clip-rule="evenodd" d="M37.0846 18.4874L36.8825 18.2848L36.0741 19.0952L35.2657 18.2848L35.0636 18.4874L35.872 19.2978L35.0636 20.1082L35.2657 20.3108L36.0741 19.5004L36.8825 20.3108L37.0846 20.1082L36.2762 19.2978L37.0846 18.4874Z" fill="black"/>
<path fill-rule="evenodd" clip-rule="evenodd" d="M41.4153 18.4874L41.2132 18.2848L40.4048 19.0952L39.5964 18.2848L39.3943 18.4874L40.2027 19.2978L39.3943 20.1082L39.5964 20.3108L40.4048 19.5004L41.2132 20.3108L41.4153 20.1082L40.6069 19.2978L41.4153 18.4874Z" fill="black"/>
<path fill-rule="evenodd" clip-rule="evenodd" d="M45.7461 18.4874L45.544 18.2848L44.7356 19.0952L43.9272 18.2848L43.7251 18.4874L44.5335 19.2978L43.7251 20.1082L43.9272 20.3108L44.7356 19.5004L45.544 20.3108L45.7461 20.1082L44.9377 19.2978L45.7461 18.4874Z" fill="black"/>
<path fill-rule="evenodd" clip-rule="evenodd" d="M50.0769 18.4874L49.8748 18.2848L49.0664 19.0952L48.258 18.2848L48.0559 18.4874L48.8643 19.2978L48.0559 20.1082L48.258 20.3108L49.0664 19.5004L49.8748 20.3108L50.0769 20.1082L49.2685 19.2978L50.0769 18.4874Z" fill="black"/>
<path fill-rule="evenodd" clip-rule="evenodd" d="M54.4078 18.4874L54.2057 18.2848L53.3972 19.0952L52.5888 18.2848L52.3867 18.4874L53.1951 19.2978L52.3867 20.1082L52.5888 20.3108L53.3972 19.5004L54.2057 20.3108L54.4078 20.1082L53.5993 19.2978L54.4078 18.4874Z" fill="black"/>
<path fill-rule="evenodd" clip-rule="evenodd" d="M58.7386 18.4874L58.5365 18.2848L57.728 19.0952L56.9196 18.2848L56.7175 18.4874L57.5259 19.2978L56.7175 20.1082L56.9196 20.3108L57.728 19.5004L58.5365 20.3108L58.7386 20.1082L57.9302 19.2978L58.7386 18.4874Z" fill="black"/>
<path fill-rule="evenodd" clip-rule="evenodd" d="M63.0694 18.4874L62.8673 18.2848L62.0589 19.0952L61.2504 18.2848L61.0483 18.4874L61.8568 19.2978L61.0483 20.1082L61.2504 20.3108L62.0589 19.5004L62.8673 20.3108L63.0694 20.1082L62.261 19.2978L63.0694 18.4874Z" fill="black"/>
<path fill-rule="evenodd" clip-rule="evenodd" d="M67.4001 18.4874L67.198 18.2848L66.3895 19.0952L65.5811 18.2848L65.379 18.4874L66.1874 19.2978L65.379 20.1082L65.5811 20.3108L66.3895 19.5004L67.198 20.3108L67.4001 20.1082L66.5916 19.2978L67.4001 18.4874Z" fill="black"/>
<path fill-rule="evenodd" clip-rule="evenodd" d="M71.7309 18.4874L71.5288 18.2848L70.7204 19.0952L69.9119 18.2848L69.7098 18.4874L70.5183 19.2978L69.7098 20.1082L69.9119 20.3108L70.7204 19.5004L71.5288 20.3108L71.7309 20.1082L70.9225 19.2978L71.7309 18.4874Z" fill="black"/>
<path fill-rule="evenodd" clip-rule="evenodd" d="M76.0617 18.4874L75.8596 18.2848L75.0512 19.0952L74.2428 18.2848L74.0406 18.4874L74.8491 19.2978L74.0406 20.1082L74.2428 20.3108L75.0512 19.5004L75.8596 20.3108L76.0617 20.1082L75.2533 19.2978L76.0617 18.4874Z" fill="black"/>
<path fill-rule="evenodd" clip-rule="evenodd" d="M80.3925 18.4874L80.1904 18.2848L79.382 19.0952L78.5736 18.2848L78.3715 18.4874L79.1799 19.2978L78.3715 20.1082L78.5736 20.3108L79.382 19.5004L80.1904 20.3108L80.3925 20.1082L79.5841 19.2978L80.3925 18.4874Z" fill="black"/>
<path fill-rule="evenodd" clip-rule="evenodd" d="M84.7233 18.4874L84.5212 18.2848L83.7128 19.0952L82.9044 18.2848L82.7023 18.4874L83.5107 19.2978L82.7023 20.1082L82.9044 20.3108L83.7128 19.5004L84.5212 20.3108L84.7233 20.1082L83.9149 19.2978L84.7233 18.4874Z" fill="black"/>
<path fill-rule="evenodd" clip-rule="evenodd" d="M89.0541 18.4874L88.852 18.2848L88.0436 19.0952L87.2352 18.2848L87.0331 18.4874L87.8415 19.2978L87.0331 20.1082L87.2352 20.3108L88.0436 19.5004L88.852 20.3108L89.0541 20.1082L88.2457 19.2978L89.0541 18.4874Z" fill="black"/>
<path fill-rule="evenodd" clip-rule="evenodd" d="M93.3848 18.4874L93.1827 18.2848L92.3743 19.0952L91.5659 18.2848L91.3638 18.4874L92.1722 19.2978L91.3638 20.1082L91.5659 20.3108L92.3743 19.5004L93.1827 20.3108L93.3848 20.1082L92.5764 19.2978L93.3848 18.4874Z" fill="black"/>
<path fill-rule="evenodd" clip-rule="evenodd" d="M97.7156 18.4874L97.5135 18.2848L96.7051 19.0952L95.8967 18.2848L95.6946 18.4874L96.503 19.2978L95.6946 20.1082L95.8967 20.3108L96.7051 19.5004L97.5135 20.3108L97.7156 20.1082L96.9072 19.2978L97.7156 18.4874Z" fill="black"/>
<path fill-rule="evenodd" clip-rule="evenodd" d="M102.046 18.4874L101.844 18.2848L101.036 19.0952L100.227 18.2848L100.025 18.4874L100.834 19.2978L100.025 20.1082L100.227 20.3108L101.036 19.5004L101.844 20.3108L102.046 20.1082L101.238 19.2978L102.046 18.4874Z" fill="black"/>
<path fill-rule="evenodd" clip-rule="evenodd" d="M106.317 18.3953L106.115 18.1927L105.306 19.0032L104.498 18.1927L104.296 18.3953L105.104 19.2058L104.296 20.0162L104.498 20.2188L105.306 19.4084L106.115 20.2188L106.317 20.0162L105.509 19.2058L106.317 18.3953Z" fill="black"/>
<path fill-rule="evenodd" clip-rule="evenodd" d="M2.43827 22.8288L2.23617 22.6262L1.42775 23.4366L0.61934 22.6262L0.417236 22.8288L1.22565 23.6392L0.417236 24.4496L0.61934 24.6522L1.42775 23.8418L2.23617 24.6522L2.43827 24.4496L1.62986 23.6392L2.43827 22.8288Z" fill="black"/>
<path fill-rule="evenodd" clip-rule="evenodd" d="M6.76908 22.8288L6.56698 22.6262L5.75856 23.4366L4.95015 22.6262L4.74805 22.8288L5.55646 23.6392L4.74805 24.4496L4.95015 24.6522L5.75856 23.8418L6.56698 24.6522L6.76908 24.4496L5.96067 23.6392L6.76908 22.8288Z" fill="black"/>
<path fill-rule="evenodd" clip-rule="evenodd" d="M11.0999 22.8288L10.8978 22.6262L10.0894 23.4366L9.28096 22.6262L9.07886 22.8288L9.88727 23.6392L9.07886 24.4496L9.28096 24.6522L10.0894 23.8418L10.8978 24.6522L11.0999 24.4496L10.2915 23.6392L11.0999 22.8288Z" fill="black"/>
<path fill-rule="evenodd" clip-rule="evenodd" d="M15.4306 22.8288L15.2285 22.6262L14.4201 23.4366L13.6116 22.6262L13.4095 22.8288L14.218 23.6392L13.4095 24.4496L13.6116 24.6522L14.4201 23.8418L15.2285 24.6522L15.4306 24.4496L14.6222 23.6392L15.4306 22.8288Z" fill="black"/>
<path fill-rule="evenodd" clip-rule="evenodd" d="M19.7614 22.8288L19.5593 22.6262L18.7509 23.4366L17.9425 22.6262L17.7404 22.8288L18.5488 23.6392L17.7404 24.4496L17.9425 24.6522L18.7509 23.8418L19.5593 24.6522L19.7614 24.4496L18.953 23.6392L19.7614 22.8288Z" fill="black"/>
<path fill-rule="evenodd" clip-rule="evenodd" d="M24.0922 22.8288L23.8901 22.6262L23.0817 23.4366L22.2733 22.6262L22.0712 22.8288L22.8796 23.6392L22.0712 24.4496L22.2733 24.6522L23.0817 23.8418L23.8901 24.6522L24.0922 24.4496L23.2838 23.6392L24.0922 22.8288Z" fill="black"/>
<path fill-rule="evenodd" clip-rule="evenodd" d="M28.423 22.8288L28.2209 22.6262L27.4125 23.4366L26.6041 22.6262L26.402 22.8288L27.2104 23.6392L26.402 24.4496L26.6041 24.6522L27.4125 23.8418L28.2209 24.6522L28.423 24.4496L27.6146 23.6392L28.423 22.8288Z" fill="black"/>
<path fill-rule="evenodd" clip-rule="evenodd" d="M32.7538 22.8288L32.5517 22.6262L31.7433 23.4366L30.9349 22.6262L30.7328 22.8288L31.5412 23.6392L30.7328 24.4496L30.9349 24.6522L31.7433 23.8418L32.5517 24.6522L32.7538 24.4496L31.9454 23.6392L32.7538 22.8288Z" fill="black"/>
<path fill-rule="evenodd" clip-rule="evenodd" d="M37.0846 22.8288L36.8825 22.6262L36.0741 23.4366L35.2657 22.6262L35.0636 22.8288L35.872 23.6392L35.0636 24.4496L35.2657 24.6522L36.0741 23.8418L36.8825 24.6522L37.0846 24.4496L36.2762 23.6392L37.0846 22.8288Z" fill="black"/>
<path fill-rule="evenodd" clip-rule="evenodd" d="M41.4153 22.8288L41.2132 22.6262L40.4048 23.4366L39.5964 22.6262L39.3943 22.8288L40.2027 23.6392L39.3943 24.4496L39.5964 24.6522L40.4048 23.8418L41.2132 24.6522L41.4153 24.4496L40.6069 23.6392L41.4153 22.8288Z" fill="black"/>
<path fill-rule="evenodd" clip-rule="evenodd" d="M45.7461 22.8288L45.544 22.6262L44.7356 23.4366L43.9272 22.6262L43.7251 22.8288L44.5335 23.6392L43.7251 24.4496L43.9272 24.6522L44.7356 23.8418L45.544 24.6522L45.7461 24.4496L44.9377 23.6392L45.7461 22.8288Z" fill="black"/>
<path fill-rule="evenodd" clip-rule="evenodd" d="M50.0769 22.8288L49.8748 22.6262L49.0664 23.4366L48.258 22.6262L48.0559 22.8288L48.8643 23.6392L48.0559 24.4496L48.258 24.6522L49.0664 23.8418L49.8748 24.6522L50.0769 24.4496L49.2685 23.6392L50.0769 22.8288Z" fill="black"/>
<path fill-rule="evenodd" clip-rule="evenodd" d="M54.4078 22.8288L54.2057 22.6262L53.3972 23.4366L52.5888 22.6262L52.3867 22.8288L53.1951 23.6392L52.3867 24.4496L52.5888 24.6522L53.3972 23.8418L54.2057 24.6522L54.4078 24.4496L53.5993 23.6392L54.4078 22.8288Z" fill="black"/>
<path fill-rule="evenodd" clip-rule="evenodd" d="M58.7386 22.8288L58.5365 22.6262L57.728 23.4366L56.9196 22.6262L56.7175 22.8288L57.5259 23.6392L56.7175 24.4496L56.9196 24.6522L57.728 23.8418L58.5365 24.6522L58.7386 24.4496L57.9302 23.6392L58.7386 22.8288Z" fill="black"/>
<path fill-rule="evenodd" clip-rule="evenodd" d="M63.0694 22.8288L62.8673 22.6262L62.0589 23.4366L61.2504 22.6262L61.0483 22.8288L61.8568 23.6392L61.0483 24.4496L61.2504 24.6522L62.0589 23.8418L62.8673 24.6522L63.0694 24.4496L62.261 23.6392L63.0694 22.8288Z" fill="black"/>
<path fill-rule="evenodd" clip-rule="evenodd" d="M67.4001 22.8288L67.198 22.6262L66.3895 23.4366L65.5811 22.6262L65.379 22.8288L66.1874 23.6392L65.379 24.4496L65.5811 24.6522L66.3895 23.8418L67.198 24.6522L67.4001 24.4496L66.5916 23.6392L67.4001 22.8288Z" fill="black"/>
<path fill-rule="evenodd" clip-rule="evenodd" d="M71.7309 22.8288L71.5288 22.6262L70.7204 23.4366L69.9119 22.6262L69.7098 22.8288L70.5183 23.6392L69.7098 24.4496L69.9119 24.6522L70.7204 23.8418L71.5288 24.6522L71.7309 24.4496L70.9225 23.6392L71.7309 22.8288Z" fill="black"/>
<path fill-rule="evenodd" clip-rule="evenodd" d="M76.0617 22.8288L75.8596 22.6262L75.0512 23.4366L74.2428 22.6262L74.0406 22.8288L74.8491 23.6392L74.0406 24.4496L74.2428 24.6522L75.0512 23.8418L75.8596 24.6522L76.0617 24.4496L75.2533 23.6392L76.0617 22.8288Z" fill="black"/>
<path fill-rule="evenodd" clip-rule="evenodd" d="M80.3925 22.8288L80.1904 22.6262L79.382 23.4366L78.5736 22.6262L78.3715 22.8288L79.1799 23.6392L78.3715 24.4496L78.5736 24.6522L79.382 23.8418L80.1904 24.6522L80.3925 24.4496L79.5841 23.6392L80.3925 22.8288Z" fill="black"/>
<path fill-rule="evenodd" clip-rule="evenodd" d="M84.7233 22.8288L84.5212 22.6262L83.7128 23.4366L82.9044 22.6262L82.7023 22.8288L83.5107 23.6392L82.7023 24.4496L82.9044 24.6522L83.7128 23.8418L84.5212 24.6522L84.7233 24.4496L83.9149 23.6392L84.7233 22.8288Z" fill="black"/>
<path fill-rule="evenodd" clip-rule="evenodd" d="M89.0541 22.8288L88.852 22.6262L88.0436 23.4366L87.2352 22.6262L87.0331 22.8288L87.8415 23.6392L87.0331 24.4496L87.2352 24.6522L88.0436 23.8418L88.852 24.6522L89.0541 24.4496L88.2457 23.6392L89.0541 22.8288Z" fill="black"/>
<path fill-rule="evenodd" clip-rule="evenodd" d="M93.3848 22.8288L93.1827 22.6262L92.3743 23.4366L91.5659 22.6262L91.3638 22.8288L92.1722 23.6392L91.3638 24.4496L91.5659 24.6522L92.3743 23.8418L93.1827 24.6522L93.3848 24.4496L92.5764 23.6392L93.3848 22.8288Z" fill="black"/>
<path fill-rule="evenodd" clip-rule="evenodd" d="M97.7156 22.8288L97.5135 22.6262L96.7051 23.4366L95.8967 22.6262L95.6946 22.8288L96.503 23.6392L95.6946 24.4496L95.8967 24.6522L96.7051 23.8418L97.5135 24.6522L97.7156 24.4496L96.9072 23.6392L97.7156 22.8288Z" fill="black"/>
<path fill-rule="evenodd" clip-rule="evenodd" d="M102.046 22.8288L101.844 22.6262L101.036 23.4366L100.227 22.6262L100.025 22.8288L100.834 23.6392L100.025 24.4496L100.227 24.6522L101.036 23.8418L101.844 24.6522L102.046 24.4496L101.238 23.6392L102.046 22.8288Z" fill="black"/>
<path fill-rule="evenodd" clip-rule="evenodd" d="M106.317 22.7612L106.115 22.5586L105.306 23.369L104.498 22.5586L104.296 22.7612L105.104 23.5716L104.296 24.382L104.498 24.5846L105.306 23.7742L106.115 24.5846L106.317 24.382L105.509 23.5716L106.317 22.7612Z" fill="black"/>
<path fill-rule="evenodd" clip-rule="evenodd" d="M2.43827 27.1704L2.23617 26.9678L1.42775 27.7782L0.61934 26.9678L0.417236 27.1704L1.22565 27.9808L0.417236 28.7912L0.61934 28.9938L1.42775 28.1834L2.23617 28.9938L2.43827 28.7912L1.62986 27.9808L2.43827 27.1704Z" fill="black"/>
<path fill-rule="evenodd" clip-rule="evenodd" d="M6.76908 27.1704L6.56698 26.9678L5.75856 27.7782L4.95015 26.9678L4.74805 27.1704L5.55646 27.9808L4.74805 28.7912L4.95015 28.9938L5.75856 28.1834L6.56698 28.9938L6.76908 28.7912L5.96067 27.9808L6.76908 27.1704Z" fill="black"/>
<path fill-rule="evenodd" clip-rule="evenodd" d="M11.0999 27.1704L10.8978 26.9678L10.0894 27.7782L9.28096 26.9678L9.07886 27.1704L9.88727 27.9808L9.07886 28.7912L9.28096 28.9938L10.0894 28.1834L10.8978 28.9938L11.0999 28.7912L10.2915 27.9808L11.0999 27.1704Z" fill="black"/>
<path fill-rule="evenodd" clip-rule="evenodd" d="M15.4306 27.1704L15.2285 26.9678L14.4201 27.7782L13.6116 26.9678L13.4095 27.1704L14.218 27.9808L13.4095 28.7912L13.6116 28.9938L14.4201 28.1834L15.2285 28.9938L15.4306 28.7912L14.6222 27.9808L15.4306 27.1704Z" fill="black"/>
<path fill-rule="evenodd" clip-rule="evenodd" d="M19.7614 27.1704L19.5593 26.9678L18.7509 27.7782L17.9425 26.9678L17.7404 27.1704L18.5488 27.9808L17.7404 28.7912L17.9425 28.9938L18.7509 28.1834L19.5593 28.9938L19.7614 28.7912L18.953 27.9808L19.7614 27.1704Z" fill="black"/>
<path fill-rule="evenodd" clip-rule="evenodd" d="M24.0922 27.1704L23.8901 26.9678L23.0817 27.7782L22.2733 26.9678L22.0712 27.1704L22.8796 27.9808L22.0712 28.7912L22.2733 28.9938L23.0817 28.1834L23.8901 28.9938L24.0922 28.7912L23.2838 27.9808L24.0922 27.1704Z" fill="black"/>
<path fill-rule="evenodd" clip-rule="evenodd" d="M28.423 27.1704L28.2209 26.9678L27.4125 27.7782L26.6041 26.9678L26.402 27.1704L27.2104 27.9808L26.402 28.7912L26.6041 28.9938L27.4125 28.1834L28.2209 28.9938L28.423 28.7912L27.6146 27.9808L28.423 27.1704Z" fill="black"/>
<path fill-rule="evenodd" clip-rule="evenodd" d="M32.7538 27.1704L32.5517 26.9678L31.7433 27.7782L30.9349 26.9678L30.7328 27.1704L31.5412 27.9808L30.7328 28.7912L30.9349 28.9938L31.7433 28.1834L32.5517 28.9938L32.7538 28.7912L31.9454 27.9808L32.7538 27.1704Z" fill="black"/>
<path fill-rule="evenodd" clip-rule="evenodd" d="M37.0846 27.1704L36.8825 26.9678L36.0741 27.7782L35.2657 26.9678L35.0636 27.1704L35.872 27.9808L35.0636 28.7912L35.2657 28.9938L36.0741 28.1834L36.8825 28.9938L37.0846 28.7912L36.2762 27.9808L37.0846 27.1704Z" fill="black"/>
<path fill-rule="evenodd" clip-rule="evenodd" d="M41.4153 27.1704L41.2132 26.9678L40.4048 27.7782L39.5964 26.9678L39.3943 27.1704L40.2027 27.9808L39.3943 28.7912L39.5964 28.9938L40.4048 28.1834L41.2132 28.9938L41.4153 28.7912L40.6069 27.9808L41.4153 27.1704Z" fill="black"/>
<path fill-rule="evenodd" clip-rule="evenodd" d="M45.7461 27.1704L45.544 26.9678L44.7356 27.7782L43.9272 26.9678L43.7251 27.1704L44.5335 27.9808L43.7251 28.7912L43.9272 28.9938L44.7356 28.1834L45.544 28.9938L45.7461 28.7912L44.9377 27.9808L45.7461 27.1704Z" fill="black"/>
<path fill-rule="evenodd" clip-rule="evenodd" d="M50.0769 27.1704L49.8748 26.9678L49.0664 27.7782L48.258 26.9678L48.0559 27.1704L48.8643 27.9808L48.0559 28.7912L48.258 28.9938L49.0664 28.1834L49.8748 28.9938L50.0769 28.7912L49.2685 27.9808L50.0769 27.1704Z" fill="black"/>
<path fill-rule="evenodd" clip-rule="evenodd" d="M54.4078 27.1704L54.2057 26.9678L53.3972 27.7782L52.5888 26.9678L52.3867 27.1704L53.1951 27.9808L52.3867 28.7912L52.5888 28.9938L53.3972 28.1834L54.2057 28.9938L54.4078 28.7912L53.5993 27.9808L54.4078 27.1704Z" fill="black"/>
<path fill-rule="evenodd" clip-rule="evenodd" d="M58.7386 27.1704L58.5365 26.9678L57.728 27.7782L56.9196 26.9678L56.7175 27.1704L57.5259 27.9808L56.7175 28.7912L56.9196 28.9938L57.728 28.1834L58.5365 28.9938L58.7386 28.7912L57.9302 27.9808L58.7386 27.1704Z" fill="black"/>
<path fill-rule="evenodd" clip-rule="evenodd" d="M63.0694 27.1704L62.8673 26.9678L62.0589 27.7782L61.2504 26.9678L61.0483 27.1704L61.8568 27.9808L61.0483 28.7912L61.2504 28.9938L62.0589 28.1834L62.8673 28.9938L63.0694 28.7912L62.261 27.9808L63.0694 27.1704Z" fill="black"/>
<path fill-rule="evenodd" clip-rule="evenodd" d="M67.4001 27.1704L67.198 26.9678L66.3895 27.7782L65.5811 26.9678L65.379 27.1704L66.1874 27.9808L65.379 28.7912L65.5811 28.9938L66.3895 28.1834L67.198 28.9938L67.4001 28.7912L66.5916 27.9808L67.4001 27.1704Z" fill="black"/>
<path fill-rule="evenodd" clip-rule="evenodd" d="M71.7309 27.1704L71.5288 26.9678L70.7204 27.7782L69.9119 26.9678L69.7098 27.1704L70.5183 27.9808L69.7098 28.7912L69.9119 28.9938L70.7204 28.1834L71.5288 28.9938L71.7309 28.7912L70.9225 27.9808L71.7309 27.1704Z" fill="black"/>
<path fill-rule="evenodd" clip-rule="evenodd" d="M76.0617 27.1704L75.8596 26.9678L75.0512 27.7782L74.2428 26.9678L74.0406 27.1704L74.8491 27.9808L74.0406 28.7912L74.2428 28.9938L75.0512 28.1834L75.8596 28.9938L76.0617 28.7912L75.2533 27.9808L76.0617 27.1704Z" fill="black"/>
<path fill-rule="evenodd" clip-rule="evenodd" d="M80.3925 27.1704L80.1904 26.9678L79.382 27.7782L78.5736 26.9678L78.3715 27.1704L79.1799 27.9808L78.3715 28.7912L78.5736 28.9938L79.382 28.1834L80.1904 28.9938L80.3925 28.7912L79.5841 27.9808L80.3925 27.1704Z" fill="black"/>
<path fill-rule="evenodd" clip-rule="evenodd" d="M84.7233 27.1704L84.5212 26.9678L83.7128 27.7782L82.9044 26.9678L82.7023 27.1704L83.5107 27.9808L82.7023 28.7912L82.9044 28.9938L83.7128 28.1834L84.5212 28.9938L84.7233 28.7912L83.9149 27.9808L84.7233 27.1704Z" fill="black"/>
<path fill-rule="evenodd" clip-rule="evenodd" d="M89.0541 27.1704L88.852 26.9678L88.0436 27.7782L87.2352 26.9678L87.0331 27.1704L87.8415 27.9808L87.0331 28.7912L87.2352 28.9938L88.0436 28.1834L88.852 28.9938L89.0541 28.7912L88.2457 27.9808L89.0541 27.1704Z" fill="black"/>
<path fill-rule="evenodd" clip-rule="evenodd" d="M93.3848 27.1704L93.1827 26.9678L92.3743 27.7782L91.5659 26.9678L91.3638 27.1704L92.1722 27.9808L91.3638 28.7912L91.5659 28.9938L92.3743 28.1834L93.1827 28.9938L93.3848 28.7912L92.5764 27.9808L93.3848 27.1704Z" fill="black"/>
<path fill-rule="evenodd" clip-rule="evenodd" d="M97.7156 27.1704L97.5135 26.9678L96.7051 27.7782L95.8967 26.9678L95.6946 27.1704L96.503 27.9808L95.6946 28.7912L95.8967 28.9938L96.7051 28.1834L97.5135 28.9938L97.7156 28.7912L96.9072 27.9808L97.7156 27.1704Z" fill="black"/>
<path fill-rule="evenodd" clip-rule="evenodd" d="M102.046 27.1704L101.844 26.9678L101.036 27.7782L100.227 26.9678L100.025 27.1704L100.834 27.9808L100.025 28.7912L100.227 28.9938L101.036 28.1834L101.844 28.9938L102.046 28.7912L101.238 27.9808L102.046 27.1704Z" fill="black"/>
<path fill-rule="evenodd" clip-rule="evenodd" d="M106.317 27.127L106.115 26.9244L105.306 27.7348L104.498 26.9244L104.296 27.127L105.104 27.9374L104.296 28.7478L104.498 28.9504L105.306 28.14L106.115 28.9504L106.317 28.7478L105.509 27.9374L106.317 27.127Z" fill="black"/>
<path fill-rule="evenodd" clip-rule="evenodd" d="M2.43827 31.5118L2.23617 31.3092L1.42775 32.1196L0.61934 31.3092L0.417236 31.5118L1.22565 32.3222L0.417236 33.1326L0.61934 33.3352L1.42775 32.5248L2.23617 33.3352L2.43827 33.1326L1.62986 32.3222L2.43827 31.5118Z" fill="black"/>
<path fill-rule="evenodd" clip-rule="evenodd" d="M6.76908 31.5118L6.56698 31.3092L5.75856 32.1196L4.95015 31.3092L4.74805 31.5118L5.55646 32.3222L4.74805 33.1326L4.95015 33.3352L5.75856 32.5248L6.56698 33.3352L6.76908 33.1326L5.96067 32.3222L6.76908 31.5118Z" fill="black"/>
<path fill-rule="evenodd" clip-rule="evenodd" d="M11.0999 31.5118L10.8978 31.3092L10.0894 32.1196L9.28096 31.3092L9.07886 31.5118L9.88727 32.3222L9.07886 33.1326L9.28096 33.3352L10.0894 32.5248L10.8978 33.3352L11.0999 33.1326L10.2915 32.3222L11.0999 31.5118Z" fill="black"/>
<path fill-rule="evenodd" clip-rule="evenodd" d="M15.4306 31.5118L15.2285 31.3092L14.4201 32.1196L13.6116 31.3092L13.4095 31.5118L14.218 32.3222L13.4095 33.1326L13.6116 33.3352L14.4201 32.5248L15.2285 33.3352L15.4306 33.1326L14.6222 32.3222L15.4306 31.5118Z" fill="black"/>
<path fill-rule="evenodd" clip-rule="evenodd" d="M19.7614 31.5118L19.5593 31.3092L18.7509 32.1196L17.9425 31.3092L17.7404 31.5118L18.5488 32.3222L17.7404 33.1326L17.9425 33.3352L18.7509 32.5248L19.5593 33.3352L19.7614 33.1326L18.953 32.3222L19.7614 31.5118Z" fill="black"/>
<path fill-rule="evenodd" clip-rule="evenodd" d="M24.0922 31.5118L23.8901 31.3092L23.0817 32.1196L22.2733 31.3092L22.0712 31.5118L22.8796 32.3222L22.0712 33.1326L22.2733 33.3352L23.0817 32.5248L23.8901 33.3352L24.0922 33.1326L23.2838 32.3222L24.0922 31.5118Z" fill="black"/>
<path fill-rule="evenodd" clip-rule="evenodd" d="M28.423 31.5118L28.2209 31.3092L27.4125 32.1196L26.6041 31.3092L26.402 31.5118L27.2104 32.3222L26.402 33.1326L26.6041 33.3352L27.4125 32.5248L28.2209 33.3352L28.423 33.1326L27.6146 32.3222L28.423 31.5118Z" fill="black"/>
<path fill-rule="evenodd" clip-rule="evenodd" d="M32.7538 31.5118L32.5517 31.3092L31.7433 32.1196L30.9349 31.3092L30.7328 31.5118L31.5412 32.3222L30.7328 33.1326L30.9349 33.3352L31.7433 32.5248L32.5517 33.3352L32.7538 33.1326L31.9454 32.3222L32.7538 31.5118Z" fill="black"/>
<path fill-rule="evenodd" clip-rule="evenodd" d="M37.0846 31.5118L36.8825 31.3092L36.0741 32.1196L35.2657 31.3092L35.0636 31.5118L35.872 32.3222L35.0636 33.1326L35.2657 33.3352L36.0741 32.5248L36.8825 33.3352L37.0846 33.1326L36.2762 32.3222L37.0846 31.5118Z" fill="black"/>
<path fill-rule="evenodd" clip-rule="evenodd" d="M41.4153 31.5118L41.2132 31.3092L40.4048 32.1196L39.5964 31.3092L39.3943 31.5118L40.2027 32.3222L39.3943 33.1326L39.5964 33.3352L40.4048 32.5248L41.2132 33.3352L41.4153 33.1326L40.6069 32.3222L41.4153 31.5118Z" fill="black"/>
<path fill-rule="evenodd" clip-rule="evenodd" d="M45.7461 31.5118L45.544 31.3092L44.7356 32.1196L43.9272 31.3092L43.7251 31.5118L44.5335 32.3222L43.7251 33.1326L43.9272 33.3352L44.7356 32.5248L45.544 33.3352L45.7461 33.1326L44.9377 32.3222L45.7461 31.5118Z" fill="black"/>
<path fill-rule="evenodd" clip-rule="evenodd" d="M50.0769 31.5118L49.8748 31.3092L49.0664 32.1196L48.258 31.3092L48.0559 31.5118L48.8643 32.3222L48.0559 33.1326L48.258 33.3352L49.0664 32.5248L49.8748 33.3352L50.0769 33.1326L49.2685 32.3222L50.0769 31.5118Z" fill="black"/>
<path fill-rule="evenodd" clip-rule="evenodd" d="M54.4078 31.5118L54.2057 31.3092L53.3972 32.1196L52.5888 31.3092L52.3867 31.5118L53.1951 32.3222L52.3867 33.1326L52.5888 33.3352L53.3972 32.5248L54.2057 33.3352L54.4078 33.1326L53.5993 32.3222L54.4078 31.5118Z" fill="black"/>
<path fill-rule="evenodd" clip-rule="evenodd" d="M58.7386 31.5118L58.5365 31.3092L57.728 32.1196L56.9196 31.3092L56.7175 31.5118L57.5259 32.3222L56.7175 33.1326L56.9196 33.3352L57.728 32.5248L58.5365 33.3352L58.7386 33.1326L57.9302 32.3222L58.7386 31.5118Z" fill="black"/>
<path fill-rule="evenodd" clip-rule="evenodd" d="M63.0694 31.5118L62.8673 31.3092L62.0589 32.1196L61.2504 31.3092L61.0483 31.5118L61.8568 32.3222L61.0483 33.1326L61.2504 33.3352L62.0589 32.5248L62.8673 33.3352L63.0694 33.1326L62.261 32.3222L63.0694 31.5118Z" fill="black"/>
<path fill-rule="evenodd" clip-rule="evenodd" d="M67.4001 31.5118L67.198 31.3092L66.3895 32.1196L65.5811 31.3092L65.379 31.5118L66.1874 32.3222L65.379 33.1326L65.5811 33.3352L66.3895 32.5248L67.198 33.3352L67.4001 33.1326L66.5916 32.3222L67.4001 31.5118Z" fill="black"/>
<path fill-rule="evenodd" clip-rule="evenodd" d="M71.7309 31.5118L71.5288 31.3092L70.7204 32.1196L69.9119 31.3092L69.7098 31.5118L70.5183 32.3222L69.7098 33.1326L69.9119 33.3352L70.7204 32.5248L71.5288 33.3352L71.7309 33.1326L70.9225 32.3222L71.7309 31.5118Z" fill="black"/>
<path fill-rule="evenodd" clip-rule="evenodd" d="M76.0617 31.5118L75.8596 31.3092L75.0512 32.1196L74.2428 31.3092L74.0406 31.5118L74.8491 32.3222L74.0406 33.1326L74.2428 33.3352L75.0512 32.5248L75.8596 33.3352L76.0617 33.1326L75.2533 32.3222L76.0617 31.5118Z" fill="black"/>
<path fill-rule="evenodd" clip-rule="evenodd" d="M80.3925 31.5118L80.1904 31.3092L79.382 32.1196L78.5736 31.3092L78.3715 31.5118L79.1799 32.3222L78.3715 33.1326L78.5736 33.3352L79.382 32.5248L80.1904 33.3352L80.3925 33.1326L79.5841 32.3222L80.3925 31.5118Z" fill="black"/>
<path fill-rule="evenodd" clip-rule="evenodd" d="M84.7233 31.5118L84.5212 31.3092L83.7128 32.1196L82.9044 31.3092L82.7023 31.5118L83.5107 32.3222L82.7023 33.1326L82.9044 33.3352L83.7128 32.5248L84.5212 33.3352L84.7233 33.1326L83.9149 32.3222L84.7233 31.5118Z" fill="black"/>
<path fill-rule="evenodd" clip-rule="evenodd" d="M89.0541 31.5118L88.852 31.3092L88.0436 32.1196L87.2352 31.3092L87.0331 31.5118L87.8415 32.3222L87.0331 33.1326L87.2352 33.3352L88.0436 32.5248L88.852 33.3352L89.0541 33.1326L88.2457 32.3222L89.0541 31.5118Z" fill="black"/>
<path fill-rule="evenodd" clip-rule="evenodd" d="M93.3848 31.5118L93.1827 31.3092L92.3743 32.1196L91.5659 31.3092L91.3638 31.5118L92.1722 32.3222L91.3638 33.1326L91.5659 33.3352L92.3743 32.5248L93.1827 33.3352L93.3848 33.1326L92.5764 32.3222L93.3848 31.5118Z" fill="black"/>
<path fill-rule="evenodd" clip-rule="evenodd" d="M97.7156 31.5118L97.5135 31.3092L96.7051 32.1196L95.8967 31.3092L95.6946 31.5118L96.503 32.3222L95.6946 33.1326L95.8967 33.3352L96.7051 32.5248L97.5135 33.3352L97.7156 33.1326L96.9072 32.3222L97.7156 31.5118Z" fill="black"/>
<path fill-rule="evenodd" clip-rule="evenodd" d="M102.046 31.5118L101.844 31.3092L101.036 32.1196L100.227 31.3092L100.025 31.5118L100.834 32.3222L100.025 33.1326L100.227 33.3352L101.036 32.5248L101.844 33.3352L102.046 33.1326L101.238 32.3222L102.046 31.5118Z" fill="black"/>
<path fill-rule="evenodd" clip-rule="evenodd" d="M106.317 31.493L106.115 31.2904L105.306 32.1008L104.498 31.2904L104.296 31.493L105.104 32.3034L104.296 33.1138L104.498 33.3164L105.306 32.506L106.115 33.3164L106.317 33.1138L105.509 32.3034L106.317 31.493Z" fill="black"/>
<path fill-rule="evenodd" clip-rule="evenodd" d="M2.43827 35.8532L2.23617 35.6506L1.42775 36.461L0.61934 35.6506L0.417236 35.8532L1.22565 36.6636L0.417236 37.474L0.61934 37.6766L1.42775 36.8662L2.23617 37.6766L2.43827 37.474L1.62986 36.6636L2.43827 35.8532Z" fill="black"/>
<path fill-rule="evenodd" clip-rule="evenodd" d="M6.76908 35.8532L6.56698 35.6506L5.75856 36.461L4.95015 35.6506L4.74805 35.8532L5.55646 36.6636L4.74805 37.474L4.95015 37.6766L5.75856 36.8662L6.56698 37.6766L6.76908 37.474L5.96067 36.6636L6.76908 35.8532Z" fill="black"/>
<path fill-rule="evenodd" clip-rule="evenodd" d="M11.0999 35.8532L10.8978 35.6506L10.0894 36.461L9.28096 35.6506L9.07886 35.8532L9.88727 36.6636L9.07886 37.474L9.28096 37.6766L10.0894 36.8662L10.8978 37.6766L11.0999 37.474L10.2915 36.6636L11.0999 35.8532Z" fill="black"/>
<path fill-rule="evenodd" clip-rule="evenodd" d="M15.4306 35.8532L15.2285 35.6506L14.4201 36.461L13.6116 35.6506L13.4095 35.8532L14.218 36.6636L13.4095 37.474L13.6116 37.6766L14.4201 36.8662L15.2285 37.6766L15.4306 37.474L14.6222 36.6636L15.4306 35.8532Z" fill="black"/>
<path fill-rule="evenodd" clip-rule="evenodd" d="M19.7614 35.8532L19.5593 35.6506L18.7509 36.461L17.9425 35.6506L17.7404 35.8532L18.5488 36.6636L17.7404 37.474L17.9425 37.6766L18.7509 36.8662L19.5593 37.6766L19.7614 37.474L18.953 36.6636L19.7614 35.8532Z" fill="black"/>
<path fill-rule="evenodd" clip-rule="evenodd" d="M24.0922 35.8532L23.8901 35.6506L23.0817 36.461L22.2733 35.6506L22.0712 35.8532L22.8796 36.6636L22.0712 37.474L22.2733 37.6766L23.0817 36.8662L23.8901 37.6766L24.0922 37.474L23.2838 36.6636L24.0922 35.8532Z" fill="black"/>
<path fill-rule="evenodd" clip-rule="evenodd" d="M28.423 35.8532L28.2209 35.6506L27.4125 36.461L26.6041 35.6506L26.402 35.8532L27.2104 36.6636L26.402 37.474L26.6041 37.6766L27.4125 36.8662L28.2209 37.6766L28.423 37.474L27.6146 36.6636L28.423 35.8532Z" fill="black"/>
<path fill-rule="evenodd" clip-rule="evenodd" d="M32.7538 35.8532L32.5517 35.6506L31.7433 36.461L30.9349 35.6506L30.7328 35.8532L31.5412 36.6636L30.7328 37.474L30.9349 37.6766L31.7433 36.8662L32.5517 37.6766L32.7538 37.474L31.9454 36.6636L32.7538 35.8532Z" fill="black"/>
<path fill-rule="evenodd" clip-rule="evenodd" d="M37.0846 35.8532L36.8825 35.6506L36.0741 36.461L35.2657 35.6506L35.0636 35.8532L35.872 36.6636L35.0636 37.474L35.2657 37.6766L36.0741 36.8662L36.8825 37.6766L37.0846 37.474L36.2762 36.6636L37.0846 35.8532Z" fill="black"/>
<path fill-rule="evenodd" clip-rule="evenodd" d="M41.4153 35.8532L41.2132 35.6506L40.4048 36.461L39.5964 35.6506L39.3943 35.8532L40.2027 36.6636L39.3943 37.474L39.5964 37.6766L40.4048 36.8662L41.2132 37.6766L41.4153 37.474L40.6069 36.6636L41.4153 35.8532Z" fill="black"/>
<path fill-rule="evenodd" clip-rule="evenodd" d="M45.7461 35.8532L45.544 35.6506L44.7356 36.461L43.9272 35.6506L43.7251 35.8532L44.5335 36.6636L43.7251 37.474L43.9272 37.6766L44.7356 36.8662L45.544 37.6766L45.7461 37.474L44.9377 36.6636L45.7461 35.8532Z" fill="black"/>
<path fill-rule="evenodd" clip-rule="evenodd" d="M50.0769 35.8532L49.8748 35.6506L49.0664 36.461L48.258 35.6506L48.0559 35.8532L48.8643 36.6636L48.0559 37.474L48.258 37.6766L49.0664 36.8662L49.8748 37.6766L50.0769 37.474L49.2685 36.6636L50.0769 35.8532Z" fill="black"/>
<path fill-rule="evenodd" clip-rule="evenodd" d="M54.4078 35.8532L54.2057 35.6506L53.3972 36.461L52.5888 35.6506L52.3867 35.8532L53.1951 36.6636L52.3867 37.474L52.5888 37.6766L53.3972 36.8662L54.2057 37.6766L54.4078 37.474L53.5993 36.6636L54.4078 35.8532Z" fill="black"/>
<path fill-rule="evenodd" clip-rule="evenodd" d="M58.7386 35.8532L58.5365 35.6506L57.728 36.461L56.9196 35.6506L56.7175 35.8532L57.5259 36.6636L56.7175 37.474L56.9196 37.6766L57.728 36.8662L58.5365 37.6766L58.7386 37.474L57.9302 36.6636L58.7386 35.8532Z" fill="black"/>
<path fill-rule="evenodd" clip-rule="evenodd" d="M63.0694 35.8532L62.8673 35.6506L62.0589 36.461L61.2504 35.6506L61.0483 35.8532L61.8568 36.6636L61.0483 37.474L61.2504 37.6766L62.0589 36.8662L62.8673 37.6766L63.0694 37.474L62.261 36.6636L63.0694 35.8532Z" fill="black"/>
<path fill-rule="evenodd" clip-rule="evenodd" d="M67.4001 35.8532L67.198 35.6506L66.3895 36.461L65.5811 35.6506L65.379 35.8532L66.1874 36.6636L65.379 37.474L65.5811 37.6766L66.3895 36.8662L67.198 37.6766L67.4001 37.474L66.5916 36.6636L67.4001 35.8532Z" fill="black"/>
<path fill-rule="evenodd" clip-rule="evenodd" d="M71.7309 35.8532L71.5288 35.6506L70.7204 36.461L69.9119 35.6506L69.7098 35.8532L70.5183 36.6636L69.7098 37.474L69.9119 37.6766L70.7204 36.8662L71.5288 37.6766L71.7309 37.474L70.9225 36.6636L71.7309 35.8532Z" fill="black"/>
<path fill-rule="evenodd" clip-rule="evenodd" d="M76.0617 35.8532L75.8596 35.6506L75.0512 36.461L74.2428 35.6506L74.0406 35.8532L74.8491 36.6636L74.0406 37.474L74.2428 37.6766L75.0512 36.8662L75.8596 37.6766L76.0617 37.474L75.2533 36.6636L76.0617 35.8532Z" fill="black"/>
<path fill-rule="evenodd" clip-rule="evenodd" d="M80.3925 35.8532L80.1904 35.6506L79.382 36.461L78.5736 35.6506L78.3715 35.8532L79.1799 36.6636L78.3715 37.474L78.5736 37.6766L79.382 36.8662L80.1904 37.6766L80.3925 37.474L79.5841 36.6636L80.3925 35.8532Z" fill="black"/>
<path fill-rule="evenodd" clip-rule="evenodd" d="M84.7233 35.8532L84.5212 35.6506L83.7128 36.461L82.9044 35.6506L82.7023 35.8532L83.5107 36.6636L82.7023 37.474L82.9044 37.6766L83.7128 36.8662L84.5212 37.6766L84.7233 37.474L83.9149 36.6636L84.7233 35.8532Z" fill="black"/>
<path fill-rule="evenodd" clip-rule="evenodd" d="M89.0541 35.8532L88.852 35.6506L88.0436 36.461L87.2352 35.6506L87.0331 35.8532L87.8415 36.6636L87.0331 37.474L87.2352 37.6766L88.0436 36.8662L88.852 37.6766L89.0541 37.474L88.2457 36.6636L89.0541 35.8532Z" fill="black"/>
<path fill-rule="evenodd" clip-rule="evenodd" d="M93.3848 35.8532L93.1827 35.6506L92.3743 36.461L91.5659 35.6506L91.3638 35.8532L92.1722 36.6636L91.3638 37.474L91.5659 37.6766L92.3743 36.8662L93.1827 37.6766L93.3848 37.474L92.5764 36.6636L93.3848 35.8532Z" fill="black"/>
<path fill-rule="evenodd" clip-rule="evenodd" d="M97.7156 35.8532L97.5135 35.6506L96.7051 36.461L95.8967 35.6506L95.6946 35.8532L96.503 36.6636L95.6946 37.474L95.8967 37.6766L96.7051 36.8662L97.5135 37.6766L97.7156 37.474L96.9072 36.6636L97.7156 35.8532Z" fill="black"/>
<path fill-rule="evenodd" clip-rule="evenodd" d="M102.046 35.8532L101.844 35.6506L101.036 36.461L100.227 35.6506L100.025 35.8532L100.834 36.6636L100.025 37.474L100.227 37.6766L101.036 36.8662L101.844 37.6766L102.046 37.474L101.238 36.6636L102.046 35.8532Z" fill="black"/>
<path fill-rule="evenodd" clip-rule="evenodd" d="M106.317 35.8589L106.115 35.6562L105.306 36.4667L104.498 35.6562L104.296 35.8589L105.104 36.6693L104.296 37.4797L104.498 37.6823L105.306 36.8719L106.115 37.6823L106.317 37.4797L105.509 36.6693L106.317 35.8589Z" fill="black"/>
<path fill-rule="evenodd" clip-rule="evenodd" d="M2.43827 40.1947L2.23617 39.9921L1.42775 40.8025L0.61934 39.9921L0.417236 40.1947L1.22565 41.0051L0.417236 41.8155L0.61934 42.0181L1.42775 41.2077L2.23617 42.0181L2.43827 41.8155L1.62986 41.0051L2.43827 40.1947Z" fill="black"/>
<path fill-rule="evenodd" clip-rule="evenodd" d="M6.76908 40.1947L6.56698 39.9921L5.75856 40.8025L4.95015 39.9921L4.74805 40.1947L5.55646 41.0051L4.74805 41.8155L4.95015 42.0181L5.75856 41.2077L6.56698 42.0181L6.76908 41.8155L5.96067 41.0051L6.76908 40.1947Z" fill="black"/>
<path fill-rule="evenodd" clip-rule="evenodd" d="M11.0999 40.1947L10.8978 39.9921L10.0894 40.8025L9.28096 39.9921L9.07886 40.1947L9.88727 41.0051L9.07886 41.8155L9.28096 42.0181L10.0894 41.2077L10.8978 42.0181L11.0999 41.8155L10.2915 41.0051L11.0999 40.1947Z" fill="black"/>
<path fill-rule="evenodd" clip-rule="evenodd" d="M15.4306 40.1947L15.2285 39.9921L14.4201 40.8025L13.6116 39.9921L13.4095 40.1947L14.218 41.0051L13.4095 41.8155L13.6116 42.0181L14.4201 41.2077L15.2285 42.0181L15.4306 41.8155L14.6222 41.0051L15.4306 40.1947Z" fill="black"/>
<path fill-rule="evenodd" clip-rule="evenodd" d="M19.7614 40.1947L19.5593 39.9921L18.7509 40.8025L17.9425 39.9921L17.7404 40.1947L18.5488 41.0051L17.7404 41.8155L17.9425 42.0181L18.7509 41.2077L19.5593 42.0181L19.7614 41.8155L18.953 41.0051L19.7614 40.1947Z" fill="black"/>
<path fill-rule="evenodd" clip-rule="evenodd" d="M24.0922 40.1947L23.8901 39.9921L23.0817 40.8025L22.2733 39.9921L22.0712 40.1947L22.8796 41.0051L22.0712 41.8155L22.2733 42.0181L23.0817 41.2077L23.8901 42.0181L24.0922 41.8155L23.2838 41.0051L24.0922 40.1947Z" fill="black"/>
<path fill-rule="evenodd" clip-rule="evenodd" d="M28.423 40.1947L28.2209 39.9921L27.4125 40.8025L26.6041 39.9921L26.402 40.1947L27.2104 41.0051L26.402 41.8155L26.6041 42.0181L27.4125 41.2077L28.2209 42.0181L28.423 41.8155L27.6146 41.0051L28.423 40.1947Z" fill="black"/>
<path fill-rule="evenodd" clip-rule="evenodd" d="M32.7538 40.1947L32.5517 39.9921L31.7433 40.8025L30.9349 39.9921L30.7328 40.1947L31.5412 41.0051L30.7328 41.8155L30.9349 42.0181L31.7433 41.2077L32.5517 42.0181L32.7538 41.8155L31.9454 41.0051L32.7538 40.1947Z" fill="black"/>
<path fill-rule="evenodd" clip-rule="evenodd" d="M37.0846 40.1947L36.8825 39.9921L36.0741 40.8025L35.2657 39.9921L35.0636 40.1947L35.872 41.0051L35.0636 41.8155L35.2657 42.0181L36.0741 41.2077L36.8825 42.0181L37.0846 41.8155L36.2762 41.0051L37.0846 40.1947Z" fill="black"/>
<path fill-rule="evenodd" clip-rule="evenodd" d="M41.4153 40.1947L41.2132 39.9921L40.4048 40.8025L39.5964 39.9921L39.3943 40.1947L40.2027 41.0051L39.3943 41.8155L39.5964 42.0181L40.4048 41.2077L41.2132 42.0181L41.4153 41.8155L40.6069 41.0051L41.4153 40.1947Z" fill="black"/>
<path fill-rule="evenodd" clip-rule="evenodd" d="M45.7461 40.1947L45.544 39.9921L44.7356 40.8025L43.9272 39.9921L43.7251 40.1947L44.5335 41.0051L43.7251 41.8155L43.9272 42.0181L44.7356 41.2077L45.544 42.0181L45.7461 41.8155L44.9377 41.0051L45.7461 40.1947Z" fill="black"/>
<path fill-rule="evenodd" clip-rule="evenodd" d="M50.0769 40.1947L49.8748 39.9921L49.0664 40.8025L48.258 39.9921L48.0559 40.1947L48.8643 41.0051L48.0559 41.8155L48.258 42.0181L49.0664 41.2077L49.8748 42.0181L50.0769 41.8155L49.2685 41.0051L50.0769 40.1947Z" fill="black"/>
<path fill-rule="evenodd" clip-rule="evenodd" d="M54.4078 40.1947L54.2057 39.9921L53.3972 40.8025L52.5888 39.9921L52.3867 40.1947L53.1951 41.0051L52.3867 41.8155L52.5888 42.0181L53.3972 41.2077L54.2057 42.0181L54.4078 41.8155L53.5993 41.0051L54.4078 40.1947Z" fill="black"/>
<path fill-rule="evenodd" clip-rule="evenodd" d="M58.7386 40.1947L58.5365 39.9921L57.728 40.8025L56.9196 39.9921L56.7175 40.1947L57.5259 41.0051L56.7175 41.8155L56.9196 42.0181L57.728 41.2077L58.5365 42.0181L58.7386 41.8155L57.9302 41.0051L58.7386 40.1947Z" fill="black"/>
<path fill-rule="evenodd" clip-rule="evenodd" d="M63.0694 40.1947L62.8673 39.9921L62.0589 40.8025L61.2504 39.9921L61.0483 40.1947L61.8568 41.0051L61.0483 41.8155L61.2504 42.0181L62.0589 41.2077L62.8673 42.0181L63.0694 41.8155L62.261 41.0051L63.0694 40.1947Z" fill="black"/>
<path fill-rule="evenodd" clip-rule="evenodd" d="M67.4001 40.1947L67.198 39.9921L66.3895 40.8025L65.5811 39.9921L65.379 40.1947L66.1874 41.0051L65.379 41.8155L65.5811 42.0181L66.3895 41.2077L67.198 42.0181L67.4001 41.8155L66.5916 41.0051L67.4001 40.1947Z" fill="black"/>
<path fill-rule="evenodd" clip-rule="evenodd" d="M71.7309 40.1947L71.5288 39.9921L70.7204 40.8025L69.9119 39.9921L69.7098 40.1947L70.5183 41.0051L69.7098 41.8155L69.9119 42.0181L70.7204 41.2077L71.5288 42.0181L71.7309 41.8155L70.9225 41.0051L71.7309 40.1947Z" fill="black"/>
<path fill-rule="evenodd" clip-rule="evenodd" d="M76.0617 40.1947L75.8596 39.9921L75.0512 40.8025L74.2428 39.9921L74.0406 40.1947L74.8491 41.0051L74.0406 41.8155L74.2428 42.0181L75.0512 41.2077L75.8596 42.0181L76.0617 41.8155L75.2533 41.0051L76.0617 40.1947Z" fill="black"/>
<path fill-rule="evenodd" clip-rule="evenodd" d="M80.3925 40.1947L80.1904 39.9921L79.382 40.8025L78.5736 39.9921L78.3715 40.1947L79.1799 41.0051L78.3715 41.8155L78.5736 42.0181L79.382 41.2077L80.1904 42.0181L80.3925 41.8155L79.5841 41.0051L80.3925 40.1947Z" fill="black"/>
<path fill-rule="evenodd" clip-rule="evenodd" d="M84.7233 40.1947L84.5212 39.9921L83.7128 40.8025L82.9044 39.9921L82.7023 40.1947L83.5107 41.0051L82.7023 41.8155L82.9044 42.0181L83.7128 41.2077L84.5212 42.0181L84.7233 41.8155L83.9149 41.0051L84.7233 40.1947Z" fill="black"/>
<path fill-rule="evenodd" clip-rule="evenodd" d="M89.0541 40.1947L88.852 39.9921L88.0436 40.8025L87.2352 39.9921L87.0331 40.1947L87.8415 41.0051L87.0331 41.8155L87.2352 42.0181L88.0436 41.2077L88.852 42.0181L89.0541 41.8155L88.2457 41.0051L89.0541 40.1947Z" fill="black"/>
<path fill-rule="evenodd" clip-rule="evenodd" d="M93.3848 40.1947L93.1827 39.9921L92.3743 40.8025L91.5659 39.9921L91.3638 40.1947L92.1722 41.0051L91.3638 41.8155L91.5659 42.0181L92.3743 41.2077L93.1827 42.0181L93.3848 41.8155L92.5764 41.0051L93.3848 40.1947Z" fill="black"/>
<path fill-rule="evenodd" clip-rule="evenodd" d="M97.7156 40.1947L97.5135 39.9921L96.7051 40.8025L95.8967 39.9921L95.6946 40.1947L96.503 41.0051L95.6946 41.8155L95.8967 42.0181L96.7051 41.2077L97.5135 42.0181L97.7156 41.8155L96.9072 41.0051L97.7156 40.1947Z" fill="black"/>
<path fill-rule="evenodd" clip-rule="evenodd" d="M102.046 40.1947L101.844 39.9921L101.036 40.8025L100.227 39.9921L100.025 40.1947L100.834 41.0051L100.025 41.8155L100.227 42.0181L101.036 41.2077L101.844 42.0181L102.046 41.8155L101.238 41.0051L102.046 40.1947Z" fill="black"/>
<path fill-rule="evenodd" clip-rule="evenodd" d="M106.317 40.2247L106.115 40.0221L105.306 40.8325L104.498 40.0221L104.296 40.2247L105.104 41.0351L104.296 41.8455L104.498 42.0481L105.306 41.2377L106.115 42.0481L106.317 41.8455L105.509 41.0351L106.317 40.2247Z" fill="black"/>
<path fill-rule="evenodd" clip-rule="evenodd" d="M2.43827 44.5361L2.23617 44.3335L1.42775 45.1439L0.61934 44.3335L0.417236 44.5361L1.22565 45.3465L0.417236 46.1569L0.61934 46.3595L1.42775 45.5491L2.23617 46.3595L2.43827 46.1569L1.62986 45.3465L2.43827 44.5361Z" fill="black"/>
<path fill-rule="evenodd" clip-rule="evenodd" d="M6.76908 44.5361L6.56698 44.3335L5.75856 45.1439L4.95015 44.3335L4.74805 44.5361L5.55646 45.3465L4.74805 46.1569L4.95015 46.3595L5.75856 45.5491L6.56698 46.3595L6.76908 46.1569L5.96067 45.3465L6.76908 44.5361Z" fill="black"/>
<path fill-rule="evenodd" clip-rule="evenodd" d="M11.0999 44.5361L10.8978 44.3335L10.0894 45.1439L9.28096 44.3335L9.07886 44.5361L9.88727 45.3465L9.07886 46.1569L9.28096 46.3595L10.0894 45.5491L10.8978 46.3595L11.0999 46.1569L10.2915 45.3465L11.0999 44.5361Z" fill="black"/>
<path fill-rule="evenodd" clip-rule="evenodd" d="M15.4306 44.5361L15.2285 44.3335L14.4201 45.1439L13.6116 44.3335L13.4095 44.5361L14.218 45.3465L13.4095 46.1569L13.6116 46.3595L14.4201 45.5491L15.2285 46.3595L15.4306 46.1569L14.6222 45.3465L15.4306 44.5361Z" fill="black"/>
<path fill-rule="evenodd" clip-rule="evenodd" d="M19.7614 44.5361L19.5593 44.3335L18.7509 45.1439L17.9425 44.3335L17.7404 44.5361L18.5488 45.3465L17.7404 46.1569L17.9425 46.3595L18.7509 45.5491L19.5593 46.3595L19.7614 46.1569L18.953 45.3465L19.7614 44.5361Z" fill="black"/>
<path fill-rule="evenodd" clip-rule="evenodd" d="M24.0922 44.5361L23.8901 44.3335L23.0817 45.1439L22.2733 44.3335L22.0712 44.5361L22.8796 45.3465L22.0712 46.1569L22.2733 46.3595L23.0817 45.5491L23.8901 46.3595L24.0922 46.1569L23.2838 45.3465L24.0922 44.5361Z" fill="black"/>
<path fill-rule="evenodd" clip-rule="evenodd" d="M28.423 44.5361L28.2209 44.3335L27.4125 45.1439L26.6041 44.3335L26.402 44.5361L27.2104 45.3465L26.402 46.1569L26.6041 46.3595L27.4125 45.5491L28.2209 46.3595L28.423 46.1569L27.6146 45.3465L28.423 44.5361Z" fill="black"/>
<path fill-rule="evenodd" clip-rule="evenodd" d="M32.7538 44.5361L32.5517 44.3335L31.7433 45.1439L30.9349 44.3335L30.7328 44.5361L31.5412 45.3465L30.7328 46.1569L30.9349 46.3595L31.7433 45.5491L32.5517 46.3595L32.7538 46.1569L31.9454 45.3465L32.7538 44.5361Z" fill="black"/>
<path fill-rule="evenodd" clip-rule="evenodd" d="M37.0846 44.5361L36.8825 44.3335L36.0741 45.1439L35.2657 44.3335L35.0636 44.5361L35.872 45.3465L35.0636 46.1569L35.2657 46.3595L36.0741 45.5491L36.8825 46.3595L37.0846 46.1569L36.2762 45.3465L37.0846 44.5361Z" fill="black"/>
<path fill-rule="evenodd" clip-rule="evenodd" d="M41.4153 44.5361L41.2132 44.3335L40.4048 45.1439L39.5964 44.3335L39.3943 44.5361L40.2027 45.3465L39.3943 46.1569L39.5964 46.3595L40.4048 45.5491L41.2132 46.3595L41.4153 46.1569L40.6069 45.3465L41.4153 44.5361Z" fill="black"/>
<path fill-rule="evenodd" clip-rule="evenodd" d="M45.7461 44.5361L45.544 44.3335L44.7356 45.1439L43.9272 44.3335L43.7251 44.5361L44.5335 45.3465L43.7251 46.1569L43.9272 46.3595L44.7356 45.5491L45.544 46.3595L45.7461 46.1569L44.9377 45.3465L45.7461 44.5361Z" fill="black"/>
<path fill-rule="evenodd" clip-rule="evenodd" d="M50.0769 44.5361L49.8748 44.3335L49.0664 45.1439L48.258 44.3335L48.0559 44.5361L48.8643 45.3465L48.0559 46.1569L48.258 46.3595L49.0664 45.5491L49.8748 46.3595L50.0769 46.1569L49.2685 45.3465L50.0769 44.5361Z" fill="black"/>
<path fill-rule="evenodd" clip-rule="evenodd" d="M54.4078 44.5361L54.2057 44.3335L53.3972 45.1439L52.5888 44.3335L52.3867 44.5361L53.1951 45.3465L52.3867 46.1569L52.5888 46.3595L53.3972 45.5491L54.2057 46.3595L54.4078 46.1569L53.5993 45.3465L54.4078 44.5361Z" fill="black"/>
<path fill-rule="evenodd" clip-rule="evenodd" d="M58.7386 44.5361L58.5365 44.3335L57.728 45.1439L56.9196 44.3335L56.7175 44.5361L57.5259 45.3465L56.7175 46.1569L56.9196 46.3595L57.728 45.5491L58.5365 46.3595L58.7386 46.1569L57.9302 45.3465L58.7386 44.5361Z" fill="black"/>
<path fill-rule="evenodd" clip-rule="evenodd" d="M63.0694 44.5361L62.8673 44.3335L62.0589 45.1439L61.2504 44.3335L61.0483 44.5361L61.8568 45.3465L61.0483 46.1569L61.2504 46.3595L62.0589 45.5491L62.8673 46.3595L63.0694 46.1569L62.261 45.3465L63.0694 44.5361Z" fill="black"/>
<path fill-rule="evenodd" clip-rule="evenodd" d="M67.4001 44.5361L67.198 44.3335L66.3895 45.1439L65.5811 44.3335L65.379 44.5361L66.1874 45.3465L65.379 46.1569L65.5811 46.3595L66.3895 45.5491L67.198 46.3595L67.4001 46.1569L66.5916 45.3465L67.4001 44.5361Z" fill="black"/>
<path fill-rule="evenodd" clip-rule="evenodd" d="M71.7309 44.5361L71.5288 44.3335L70.7204 45.1439L69.9119 44.3335L69.7098 44.5361L70.5183 45.3465L69.7098 46.1569L69.9119 46.3595L70.7204 45.5491L71.5288 46.3595L71.7309 46.1569L70.9225 45.3465L71.7309 44.5361Z" fill="black"/>
<path fill-rule="evenodd" clip-rule="evenodd" d="M76.0617 44.5361L75.8596 44.3335L75.0512 45.1439L74.2428 44.3335L74.0406 44.5361L74.8491 45.3465L74.0406 46.1569L74.2428 46.3595L75.0512 45.5491L75.8596 46.3595L76.0617 46.1569L75.2533 45.3465L76.0617 44.5361Z" fill="black"/>
<path fill-rule="evenodd" clip-rule="evenodd" d="M80.3925 44.5361L80.1904 44.3335L79.382 45.1439L78.5736 44.3335L78.3715 44.5361L79.1799 45.3465L78.3715 46.1569L78.5736 46.3595L79.382 45.5491L80.1904 46.3595L80.3925 46.1569L79.5841 45.3465L80.3925 44.5361Z" fill="black"/>
<path fill-rule="evenodd" clip-rule="evenodd" d="M84.7233 44.5361L84.5212 44.3335L83.7128 45.1439L82.9044 44.3335L82.7023 44.5361L83.5107 45.3465L82.7023 46.1569L82.9044 46.3595L83.7128 45.5491L84.5212 46.3595L84.7233 46.1569L83.9149 45.3465L84.7233 44.5361Z" fill="black"/>
<path fill-rule="evenodd" clip-rule="evenodd" d="M89.0541 44.5361L88.852 44.3335L88.0436 45.1439L87.2352 44.3335L87.0331 44.5361L87.8415 45.3465L87.0331 46.1569L87.2352 46.3595L88.0436 45.5491L88.852 46.3595L89.0541 46.1569L88.2457 45.3465L89.0541 44.5361Z" fill="black"/>
<path fill-rule="evenodd" clip-rule="evenodd" d="M93.3848 44.5361L93.1827 44.3335L92.3743 45.1439L91.5659 44.3335L91.3638 44.5361L92.1722 45.3465L91.3638 46.1569L91.5659 46.3595L92.3743 45.5491L93.1827 46.3595L93.3848 46.1569L92.5764 45.3465L93.3848 44.5361Z" fill="black"/>
<path fill-rule="evenodd" clip-rule="evenodd" d="M97.7156 44.5361L97.5135 44.3335L96.7051 45.1439L95.8967 44.3335L95.6946 44.5361L96.503 45.3465L95.6946 46.1569L95.8967 46.3595L96.7051 45.5491L97.5135 46.3595L97.7156 46.1569L96.9072 45.3465L97.7156 44.5361Z" fill="black"/>
<path fill-rule="evenodd" clip-rule="evenodd" d="M102.046 44.5361L101.844 44.3335L101.036 45.1439L100.227 44.3335L100.025 44.5361L100.834 45.3465L100.025 46.1569L100.227 46.3595L101.036 45.5491L101.844 46.3595L102.046 46.1569L101.238 45.3465L102.046 44.5361Z" fill="black"/>
<path fill-rule="evenodd" clip-rule="evenodd" d="M106.317 44.5905L106.115 44.3879L105.306 45.1983L104.498 44.3879L104.296 44.5905L105.104 45.4009L104.296 46.2113L104.498 46.4139L105.306 45.6035L106.115 46.4139L106.317 46.2113L105.509 45.4009L106.317 44.5905Z" fill="black"/>
<path fill-rule="evenodd" clip-rule="evenodd" d="M2.43827 48.8775L2.23617 48.6749L1.42775 49.4853L0.61934 48.6749L0.417236 48.8775L1.22565 49.6879L0.417236 50.4983L0.61934 50.7009L1.42775 49.8905L2.23617 50.7009L2.43827 50.4983L1.62986 49.6879L2.43827 48.8775Z" fill="black"/>
<path fill-rule="evenodd" clip-rule="evenodd" d="M6.76908 48.8775L6.56698 48.6749L5.75856 49.4853L4.95015 48.6749L4.74805 48.8775L5.55646 49.6879L4.74805 50.4983L4.95015 50.7009L5.75856 49.8905L6.56698 50.7009L6.76908 50.4983L5.96067 49.6879L6.76908 48.8775Z" fill="black"/>
<path fill-rule="evenodd" clip-rule="evenodd" d="M11.0999 48.8775L10.8978 48.6749L10.0894 49.4853L9.28096 48.6749L9.07886 48.8775L9.88727 49.6879L9.07886 50.4983L9.28096 50.7009L10.0894 49.8905L10.8978 50.7009L11.0999 50.4983L10.2915 49.6879L11.0999 48.8775Z" fill="black"/>
<path fill-rule="evenodd" clip-rule="evenodd" d="M15.4306 48.8775L15.2285 48.6749L14.4201 49.4853L13.6116 48.6749L13.4095 48.8775L14.218 49.6879L13.4095 50.4983L13.6116 50.7009L14.4201 49.8905L15.2285 50.7009L15.4306 50.4983L14.6222 49.6879L15.4306 48.8775Z" fill="black"/>
<path fill-rule="evenodd" clip-rule="evenodd" d="M19.7614 48.8775L19.5593 48.6749L18.7509 49.4853L17.9425 48.6749L17.7404 48.8775L18.5488 49.6879L17.7404 50.4983L17.9425 50.7009L18.7509 49.8905L19.5593 50.7009L19.7614 50.4983L18.953 49.6879L19.7614 48.8775Z" fill="black"/>
<path fill-rule="evenodd" clip-rule="evenodd" d="M24.0922 48.8775L23.8901 48.6749L23.0817 49.4853L22.2733 48.6749L22.0712 48.8775L22.8796 49.6879L22.0712 50.4983L22.2733 50.7009L23.0817 49.8905L23.8901 50.7009L24.0922 50.4983L23.2838 49.6879L24.0922 48.8775Z" fill="black"/>
<path fill-rule="evenodd" clip-rule="evenodd" d="M28.423 48.8775L28.2209 48.6749L27.4125 49.4853L26.6041 48.6749L26.402 48.8775L27.2104 49.6879L26.402 50.4983L26.6041 50.7009L27.4125 49.8905L28.2209 50.7009L28.423 50.4983L27.6146 49.6879L28.423 48.8775Z" fill="black"/>
<path fill-rule="evenodd" clip-rule="evenodd" d="M32.7538 48.8775L32.5517 48.6749L31.7433 49.4853L30.9349 48.6749L30.7328 48.8775L31.5412 49.6879L30.7328 50.4983L30.9349 50.7009L31.7433 49.8905L32.5517 50.7009L32.7538 50.4983L31.9454 49.6879L32.7538 48.8775Z" fill="black"/>
<path fill-rule="evenodd" clip-rule="evenodd" d="M37.0846 48.8775L36.8825 48.6749L36.0741 49.4853L35.2657 48.6749L35.0636 48.8775L35.872 49.6879L35.0636 50.4983L35.2657 50.7009L36.0741 49.8905L36.8825 50.7009L37.0846 50.4983L36.2762 49.6879L37.0846 48.8775Z" fill="black"/>
<path fill-rule="evenodd" clip-rule="evenodd" d="M41.4153 48.8775L41.2132 48.6749L40.4048 49.4853L39.5964 48.6749L39.3943 48.8775L40.2027 49.6879L39.3943 50.4983L39.5964 50.7009L40.4048 49.8905L41.2132 50.7009L41.4153 50.4983L40.6069 49.6879L41.4153 48.8775Z" fill="black"/>
<path fill-rule="evenodd" clip-rule="evenodd" d="M45.7461 48.8775L45.544 48.6749L44.7356 49.4853L43.9272 48.6749L43.7251 48.8775L44.5335 49.6879L43.7251 50.4983L43.9272 50.7009L44.7356 49.8905L45.544 50.7009L45.7461 50.4983L44.9377 49.6879L45.7461 48.8775Z" fill="black"/>
<path fill-rule="evenodd" clip-rule="evenodd" d="M50.0769 48.8775L49.8748 48.6749L49.0664 49.4853L48.258 48.6749L48.0559 48.8775L48.8643 49.6879L48.0559 50.4983L48.258 50.7009L49.0664 49.8905L49.8748 50.7009L50.0769 50.4983L49.2685 49.6879L50.0769 48.8775Z" fill="black"/>
<path fill-rule="evenodd" clip-rule="evenodd" d="M54.4078 48.8775L54.2057 48.6749L53.3972 49.4853L52.5888 48.6749L52.3867 48.8775L53.1951 49.6879L52.3867 50.4983L52.5888 50.7009L53.3972 49.8905L54.2057 50.7009L54.4078 50.4983L53.5993 49.6879L54.4078 48.8775Z" fill="black"/>
<path fill-rule="evenodd" clip-rule="evenodd" d="M58.7386 48.8775L58.5365 48.6749L57.728 49.4853L56.9196 48.6749L56.7175 48.8775L57.5259 49.6879L56.7175 50.4983L56.9196 50.7009L57.728 49.8905L58.5365 50.7009L58.7386 50.4983L57.9302 49.6879L58.7386 48.8775Z" fill="black"/>
<path fill-rule="evenodd" clip-rule="evenodd" d="M63.0694 48.8775L62.8673 48.6749L62.0589 49.4853L61.2504 48.6749L61.0483 48.8775L61.8568 49.6879L61.0483 50.4983L61.2504 50.7009L62.0589 49.8905L62.8673 50.7009L63.0694 50.4983L62.261 49.6879L63.0694 48.8775Z" fill="black"/>
<path fill-rule="evenodd" clip-rule="evenodd" d="M67.4001 48.8775L67.198 48.6749L66.3895 49.4853L65.5811 48.6749L65.379 48.8775L66.1874 49.6879L65.379 50.4983L65.5811 50.7009L66.3895 49.8905L67.198 50.7009L67.4001 50.4983L66.5916 49.6879L67.4001 48.8775Z" fill="black"/>
<path fill-rule="evenodd" clip-rule="evenodd" d="M71.7309 48.8775L71.5288 48.6749L70.7204 49.4853L69.9119 48.6749L69.7098 48.8775L70.5183 49.6879L69.7098 50.4983L69.9119 50.7009L70.7204 49.8905L71.5288 50.7009L71.7309 50.4983L70.9225 49.6879L71.7309 48.8775Z" fill="black"/>
<path fill-rule="evenodd" clip-rule="evenodd" d="M76.0617 48.8775L75.8596 48.6749L75.0512 49.4853L74.2428 48.6749L74.0406 48.8775L74.8491 49.6879L74.0406 50.4983L74.2428 50.7009L75.0512 49.8905L75.8596 50.7009L76.0617 50.4983L75.2533 49.6879L76.0617 48.8775Z" fill="black"/>
<path fill-rule="evenodd" clip-rule="evenodd" d="M80.3925 48.8775L80.1904 48.6749L79.382 49.4853L78.5736 48.6749L78.3715 48.8775L79.1799 49.6879L78.3715 50.4983L78.5736 50.7009L79.382 49.8905L80.1904 50.7009L80.3925 50.4983L79.5841 49.6879L80.3925 48.8775Z" fill="black"/>
<path fill-rule="evenodd" clip-rule="evenodd" d="M84.7233 48.8775L84.5212 48.6749L83.7128 49.4853L82.9044 48.6749L82.7023 48.8775L83.5107 49.6879L82.7023 50.4983L82.9044 50.7009L83.7128 49.8905L84.5212 50.7009L84.7233 50.4983L83.9149 49.6879L84.7233 48.8775Z" fill="black"/>
<path fill-rule="evenodd" clip-rule="evenodd" d="M89.0541 48.8775L88.852 48.6749L88.0436 49.4853L87.2352 48.6749L87.0331 48.8775L87.8415 49.6879L87.0331 50.4983L87.2352 50.7009L88.0436 49.8905L88.852 50.7009L89.0541 50.4983L88.2457 49.6879L89.0541 48.8775Z" fill="black"/>
<path fill-rule="evenodd" clip-rule="evenodd" d="M93.3848 48.8775L93.1827 48.6749L92.3743 49.4853L91.5659 48.6749L91.3638 48.8775L92.1722 49.6879L91.3638 50.4983L91.5659 50.7009L92.3743 49.8905L93.1827 50.7009L93.3848 50.4983L92.5764 49.6879L93.3848 48.8775Z" fill="black"/>
<path fill-rule="evenodd" clip-rule="evenodd" d="M97.7156 48.8775L97.5135 48.6749L96.7051 49.4853L95.8967 48.6749L95.6946 48.8775L96.503 49.6879L95.6946 50.4983L95.8967 50.7009L96.7051 49.8905L97.5135 50.7009L97.7156 50.4983L96.9072 49.6879L97.7156 48.8775Z" fill="black"/>
<path fill-rule="evenodd" clip-rule="evenodd" d="M102.046 48.8775L101.844 48.6749L101.036 49.4853L100.227 48.6749L100.025 48.8775L100.834 49.6879L100.025 50.4983L100.227 50.7009L101.036 49.8905L101.844 50.7009L102.046 50.4983L101.238 49.6879L102.046 48.8775Z" fill="black"/>
<path fill-rule="evenodd" clip-rule="evenodd" d="M106.317 48.9565L106.115 48.7539L105.306 49.5643L104.498 48.7539L104.296 48.9565L105.104 49.7669L104.296 50.5773L104.498 50.7799L105.306 49.9695L106.115 50.7799L106.317 50.5773L105.509 49.7669L106.317 48.9565Z" fill="black"/>
<path fill-rule="evenodd" clip-rule="evenodd" d="M2.43827 53.219L2.23617 53.0164L1.42775 53.8268L0.61934 53.0164L0.417236 53.219L1.22565 54.0294L0.417236 54.8398L0.61934 55.0424L1.42775 54.232L2.23617 55.0424L2.43827 54.8398L1.62986 54.0294L2.43827 53.219Z" fill="black"/>
<path fill-rule="evenodd" clip-rule="evenodd" d="M6.76908 53.219L6.56698 53.0164L5.75856 53.8268L4.95015 53.0164L4.74805 53.219L5.55646 54.0294L4.74805 54.8398L4.95015 55.0424L5.75856 54.232L6.56698 55.0424L6.76908 54.8398L5.96067 54.0294L6.76908 53.219Z" fill="black"/>
<path fill-rule="evenodd" clip-rule="evenodd" d="M11.0999 53.219L10.8978 53.0164L10.0894 53.8268L9.28096 53.0164L9.07886 53.219L9.88727 54.0294L9.07886 54.8398L9.28096 55.0424L10.0894 54.232L10.8978 55.0424L11.0999 54.8398L10.2915 54.0294L11.0999 53.219Z" fill="black"/>
<path fill-rule="evenodd" clip-rule="evenodd" d="M15.4306 53.219L15.2285 53.0164L14.4201 53.8268L13.6116 53.0164L13.4095 53.219L14.218 54.0294L13.4095 54.8398L13.6116 55.0424L14.4201 54.232L15.2285 55.0424L15.4306 54.8398L14.6222 54.0294L15.4306 53.219Z" fill="black"/>
<path fill-rule="evenodd" clip-rule="evenodd" d="M19.7614 53.219L19.5593 53.0164L18.7509 53.8268L17.9425 53.0164L17.7404 53.219L18.5488 54.0294L17.7404 54.8398L17.9425 55.0424L18.7509 54.232L19.5593 55.0424L19.7614 54.8398L18.953 54.0294L19.7614 53.219Z" fill="black"/>
<path fill-rule="evenodd" clip-rule="evenodd" d="M24.0922 53.219L23.8901 53.0164L23.0817 53.8268L22.2733 53.0164L22.0712 53.219L22.8796 54.0294L22.0712 54.8398L22.2733 55.0424L23.0817 54.232L23.8901 55.0424L24.0922 54.8398L23.2838 54.0294L24.0922 53.219Z" fill="black"/>
<path fill-rule="evenodd" clip-rule="evenodd" d="M28.423 53.219L28.2209 53.0164L27.4125 53.8268L26.6041 53.0164L26.402 53.219L27.2104 54.0294L26.402 54.8398L26.6041 55.0424L27.4125 54.232L28.2209 55.0424L28.423 54.8398L27.6146 54.0294L28.423 53.219Z" fill="black"/>
<path fill-rule="evenodd" clip-rule="evenodd" d="M32.7538 53.219L32.5517 53.0164L31.7433 53.8268L30.9349 53.0164L30.7328 53.219L31.5412 54.0294L30.7328 54.8398L30.9349 55.0424L31.7433 54.232L32.5517 55.0424L32.7538 54.8398L31.9454 54.0294L32.7538 53.219Z" fill="black"/>
<path fill-rule="evenodd" clip-rule="evenodd" d="M37.0846 53.219L36.8825 53.0164L36.0741 53.8268L35.2657 53.0164L35.0636 53.219L35.872 54.0294L35.0636 54.8398L35.2657 55.0424L36.0741 54.232L36.8825 55.0424L37.0846 54.8398L36.2762 54.0294L37.0846 53.219Z" fill="black"/>
<path fill-rule="evenodd" clip-rule="evenodd" d="M41.4153 53.219L41.2132 53.0164L40.4048 53.8268L39.5964 53.0164L39.3943 53.219L40.2027 54.0294L39.3943 54.8398L39.5964 55.0424L40.4048 54.232L41.2132 55.0424L41.4153 54.8398L40.6069 54.0294L41.4153 53.219Z" fill="black"/>
<path fill-rule="evenodd" clip-rule="evenodd" d="M45.7461 53.219L45.544 53.0164L44.7356 53.8268L43.9272 53.0164L43.7251 53.219L44.5335 54.0294L43.7251 54.8398L43.9272 55.0424L44.7356 54.232L45.544 55.0424L45.7461 54.8398L44.9377 54.0294L45.7461 53.219Z" fill="black"/>
<path fill-rule="evenodd" clip-rule="evenodd" d="M50.0769 53.219L49.8748 53.0164L49.0664 53.8268L48.258 53.0164L48.0559 53.219L48.8643 54.0294L48.0559 54.8398L48.258 55.0424L49.0664 54.232L49.8748 55.0424L50.0769 54.8398L49.2685 54.0294L50.0769 53.219Z" fill="black"/>
<path fill-rule="evenodd" clip-rule="evenodd" d="M54.4078 53.219L54.2057 53.0164L53.3972 53.8268L52.5888 53.0164L52.3867 53.219L53.1951 54.0294L52.3867 54.8398L52.5888 55.0424L53.3972 54.232L54.2057 55.0424L54.4078 54.8398L53.5993 54.0294L54.4078 53.219Z" fill="black"/>
<path fill-rule="evenodd" clip-rule="evenodd" d="M58.7386 53.219L58.5365 53.0164L57.728 53.8268L56.9196 53.0164L56.7175 53.219L57.5259 54.0294L56.7175 54.8398L56.9196 55.0424L57.728 54.232L58.5365 55.0424L58.7386 54.8398L57.9302 54.0294L58.7386 53.219Z" fill="black"/>
<path fill-rule="evenodd" clip-rule="evenodd" d="M63.0694 53.219L62.8673 53.0164L62.0589 53.8268L61.2504 53.0164L61.0483 53.219L61.8568 54.0294L61.0483 54.8398L61.2504 55.0424L62.0589 54.232L62.8673 55.0424L63.0694 54.8398L62.261 54.0294L63.0694 53.219Z" fill="black"/>
<path fill-rule="evenodd" clip-rule="evenodd" d="M67.4001 53.219L67.198 53.0164L66.3895 53.8268L65.5811 53.0164L65.379 53.219L66.1874 54.0294L65.379 54.8398L65.5811 55.0424L66.3895 54.232L67.198 55.0424L67.4001 54.8398L66.5916 54.0294L67.4001 53.219Z" fill="black"/>
<path fill-rule="evenodd" clip-rule="evenodd" d="M71.7309 53.219L71.5288 53.0164L70.7204 53.8268L69.9119 53.0164L69.7098 53.219L70.5183 54.0294L69.7098 54.8398L69.9119 55.0424L70.7204 54.232L71.5288 55.0424L71.7309 54.8398L70.9225 54.0294L71.7309 53.219Z" fill="black"/>
<path fill-rule="evenodd" clip-rule="evenodd" d="M76.0617 53.219L75.8596 53.0164L75.0512 53.8268L74.2428 53.0164L74.0406 53.219L74.8491 54.0294L74.0406 54.8398L74.2428 55.0424L75.0512 54.232L75.8596 55.0424L76.0617 54.8398L75.2533 54.0294L76.0617 53.219Z" fill="black"/>
<path fill-rule="evenodd" clip-rule="evenodd" d="M80.3925 53.219L80.1904 53.0164L79.382 53.8268L78.5736 53.0164L78.3715 53.219L79.1799 54.0294L78.3715 54.8398L78.5736 55.0424L79.382 54.232L80.1904 55.0424L80.3925 54.8398L79.5841 54.0294L80.3925 53.219Z" fill="black"/>
<path fill-rule="evenodd" clip-rule="evenodd" d="M84.7233 53.219L84.5212 53.0164L83.7128 53.8268L82.9044 53.0164L82.7023 53.219L83.5107 54.0294L82.7023 54.8398L82.9044 55.0424L83.7128 54.232L84.5212 55.0424L84.7233 54.8398L83.9149 54.0294L84.7233 53.219Z" fill="black"/>
<path fill-rule="evenodd" clip-rule="evenodd" d="M89.0541 53.219L88.852 53.0164L88.0436 53.8268L87.2352 53.0164L87.0331 53.219L87.8415 54.0294L87.0331 54.8398L87.2352 55.0424L88.0436 54.232L88.852 55.0424L89.0541 54.8398L88.2457 54.0294L89.0541 53.219Z" fill="black"/>
<path fill-rule="evenodd" clip-rule="evenodd" d="M93.3848 53.219L93.1827 53.0164L92.3743 53.8268L91.5659 53.0164L91.3638 53.219L92.1722 54.0294L91.3638 54.8398L91.5659 55.0424L92.3743 54.232L93.1827 55.0424L93.3848 54.8398L92.5764 54.0294L93.3848 53.219Z" fill="black"/>
<path fill-rule="evenodd" clip-rule="evenodd" d="M97.7156 53.219L97.5135 53.0164L96.7051 53.8268L95.8967 53.0164L95.6946 53.219L96.503 54.0294L95.6946 54.8398L95.8967 55.0424L96.7051 54.232L97.5135 55.0424L97.7156 54.8398L96.9072 54.0294L97.7156 53.219Z" fill="black"/>
<path fill-rule="evenodd" clip-rule="evenodd" d="M102.046 53.219L101.844 53.0164L101.036 53.8268L100.227 53.0164L100.025 53.219L100.834 54.0294L100.025 54.8398L100.227 55.0424L101.036 54.232L101.844 55.0424L102.046 54.8398L101.238 54.0294L102.046 53.219Z" fill="black"/>
<path fill-rule="evenodd" clip-rule="evenodd" d="M106.317 53.1325L106.115 52.9299L105.306 53.7403L104.498 52.9299L104.296 53.1325L105.104 53.9429L104.296 54.7533L104.498 54.9559L105.306 54.1455L106.115 54.9559L106.317 54.7533L105.509 53.9429L106.317 53.1325Z" fill="black"/>
<path fill-rule="evenodd" clip-rule="evenodd" d="M106.317 57.4984L106.115 57.2958L105.306 58.1062L104.498 57.2958L104.296 57.4984L105.104 58.3088L104.296 59.1192L104.498 59.3218L105.306 58.5114L106.115 59.3218L106.317 59.1192L105.509 58.3088L106.317 57.4984Z" fill="black"/>
<path fill-rule="evenodd" clip-rule="evenodd" d="M2.43827 57.4984L2.23617 57.2958L1.42775 58.1062L0.61934 57.2958L0.417236 57.4984L1.22565 58.3088L0.417236 59.1192L0.61934 59.3218L1.42775 58.5114L2.23617 59.3218L2.43827 59.1192L1.62986 58.3088L2.43827 57.4984Z" fill="black"/>
<path fill-rule="evenodd" clip-rule="evenodd" d="M6.7902 57.4984L6.5881 57.2958L5.77968 58.1062L4.97127 57.2958L4.76917 57.4984L5.57758 58.3088L4.76917 59.1192L4.97127 59.3218L5.77968 58.5114L6.5881 59.3218L6.7902 59.1192L5.98179 58.3088L6.7902 57.4984Z" fill="black"/>
<path fill-rule="evenodd" clip-rule="evenodd" d="M11.1421 57.4984L10.94 57.2958L10.1316 58.1062L9.3232 57.2958L9.12109 57.4984L9.92951 58.3088L9.12109 59.1192L9.3232 59.3218L10.1316 58.5114L10.94 59.3218L11.1421 59.1192L10.3337 58.3088L11.1421 57.4984Z" fill="black"/>
<path fill-rule="evenodd" clip-rule="evenodd" d="M15.4941 57.4984L15.292 57.2958L14.4835 58.1062L13.6751 57.2958L13.473 57.4984L14.2814 58.3088L13.473 59.1192L13.6751 59.3218L14.4835 58.5114L15.292 59.3218L15.4941 59.1192L14.6856 58.3088L15.4941 57.4984Z" fill="black"/>
<path fill-rule="evenodd" clip-rule="evenodd" d="M19.846 57.4984L19.6439 57.2958L18.8355 58.1062L18.0271 57.2958L17.825 57.4984L18.6334 58.3088L17.825 59.1192L18.0271 59.3218L18.8355 58.5114L19.6439 59.3218L19.846 59.1192L19.0376 58.3088L19.846 57.4984Z" fill="black"/>
<path fill-rule="evenodd" clip-rule="evenodd" d="M24.0087 57.4984L23.8066 57.2958L22.9982 58.1062L22.1898 57.2958L21.9877 57.4984L22.7961 58.3088L21.9877 59.1192L22.1898 59.3218L22.9982 58.5114L23.8066 59.3218L24.0087 59.1192L23.2003 58.3088L24.0087 57.4984Z" fill="black"/>
<path fill-rule="evenodd" clip-rule="evenodd" d="M28.3606 57.4984L28.1585 57.2958L27.3501 58.1062L26.5417 57.2958L26.3396 57.4984L27.148 58.3088L26.3396 59.1192L26.5417 59.3218L27.3501 58.5114L28.1585 59.3218L28.3606 59.1192L27.5522 58.3088L28.3606 57.4984Z" fill="black"/>
<path fill-rule="evenodd" clip-rule="evenodd" d="M32.7126 57.4984L32.5105 57.2958L31.702 58.1062L30.8936 57.2958L30.6915 57.4984L31.4999 58.3088L30.6915 59.1192L30.8936 59.3218L31.702 58.5114L32.5105 59.3218L32.7126 59.1192L31.9041 58.3088L32.7126 57.4984Z" fill="black"/>
<path fill-rule="evenodd" clip-rule="evenodd" d="M37.0645 57.4984L36.8624 57.2958L36.054 58.1062L35.2456 57.2958L35.0435 57.4984L35.8519 58.3088L35.0435 59.1192L35.2456 59.3218L36.054 58.5114L36.8624 59.3218L37.0645 59.1192L36.2561 58.3088L37.0645 57.4984Z" fill="black"/>
<path fill-rule="evenodd" clip-rule="evenodd" d="M41.4164 57.4984L41.2143 57.2958L40.4059 58.1062L39.5975 57.2958L39.3954 57.4984L40.2038 58.3088L39.3954 59.1192L39.5975 59.3218L40.4059 58.5114L41.2143 59.3218L41.4164 59.1192L40.608 58.3088L41.4164 57.4984Z" fill="black"/>
<path fill-rule="evenodd" clip-rule="evenodd" d="M45.7683 57.4984L45.5662 57.2958L44.7578 58.1062L43.9494 57.2958L43.7473 57.4984L44.5557 58.3088L43.7473 59.1192L43.9494 59.3218L44.7578 58.5114L45.5662 59.3218L45.7683 59.1192L44.9599 58.3088L45.7683 57.4984Z" fill="black"/>
<path fill-rule="evenodd" clip-rule="evenodd" d="M50.1203 57.4984L49.9182 57.2958L49.1098 58.1062L48.3013 57.2958L48.0992 57.4984L48.9077 58.3088L48.0992 59.1192L48.3013 59.3218L49.1098 58.5114L49.9182 59.3218L50.1203 59.1192L49.3119 58.3088L50.1203 57.4984Z" fill="black"/>
<path fill-rule="evenodd" clip-rule="evenodd" d="M54.4722 57.4984L54.2701 57.2958L53.4617 58.1062L52.6533 57.2958L52.4512 57.4984L53.2596 58.3088L52.4512 59.1192L52.6533 59.3218L53.4617 58.5114L54.2701 59.3218L54.4722 59.1192L53.6638 58.3088L54.4722 57.4984Z" fill="black"/>
<path fill-rule="evenodd" clip-rule="evenodd" d="M58.8241 57.4984L58.622 57.2958L57.8136 58.1062L57.0052 57.2958L56.8031 57.4984L57.6115 58.3088L56.8031 59.1192L57.0052 59.3218L57.8136 58.5114L58.622 59.3218L58.8241 59.1192L58.0157 58.3088L58.8241 57.4984Z" fill="black"/>
<path fill-rule="evenodd" clip-rule="evenodd" d="M62.9869 57.4984L62.7848 57.2958L61.9763 58.1062L61.1679 57.2958L60.9658 57.4984L61.7742 58.3088L60.9658 59.1192L61.1679 59.3218L61.9763 58.5114L62.7848 59.3218L62.9869 59.1192L62.1784 58.3088L62.9869 57.4984Z" fill="black"/>
<path fill-rule="evenodd" clip-rule="evenodd" d="M67.3388 57.4984L67.1367 57.2958L66.3283 58.1062L65.5199 57.2958L65.3177 57.4984L66.1262 58.3088L65.3177 59.1192L65.5199 59.3218L66.3283 58.5114L67.1367 59.3218L67.3388 59.1192L66.5304 58.3088L67.3388 57.4984Z" fill="black"/>
<path fill-rule="evenodd" clip-rule="evenodd" d="M71.6907 57.4984L71.4886 57.2958L70.6802 58.1062L69.8718 57.2958L69.6697 57.4984L70.4781 58.3088L69.6697 59.1192L69.8718 59.3218L70.6802 58.5114L71.4886 59.3218L71.6907 59.1192L70.8823 58.3088L71.6907 57.4984Z" fill="black"/>
<path fill-rule="evenodd" clip-rule="evenodd" d="M76.0426 57.4984L75.8405 57.2958L75.0321 58.1062L74.2237 57.2958L74.0216 57.4984L74.83 58.3088L74.0216 59.1192L74.2237 59.3218L75.0321 58.5114L75.8405 59.3218L76.0426 59.1192L75.2342 58.3088L76.0426 57.4984Z" fill="black"/>
<path fill-rule="evenodd" clip-rule="evenodd" d="M80.3946 57.4984L80.1925 57.2958L79.3841 58.1062L78.5756 57.2958L78.3735 57.4984L79.1819 58.3088L78.3735 59.1192L78.5756 59.3218L79.3841 58.5114L80.1925 59.3218L80.3946 59.1192L79.5862 58.3088L80.3946 57.4984Z" fill="black"/>
<path fill-rule="evenodd" clip-rule="evenodd" d="M84.7465 57.4984L84.5444 57.2958L83.736 58.1062L82.9276 57.2958L82.7255 57.4984L83.5339 58.3088L82.7255 59.1192L82.9276 59.3218L83.736 58.5114L84.5444 59.3218L84.7465 59.1192L83.9381 58.3088L84.7465 57.4984Z" fill="black"/>
<path fill-rule="evenodd" clip-rule="evenodd" d="M89.0984 57.4984L88.8963 57.2958L88.0879 58.1062L87.2795 57.2958L87.0774 57.4984L87.8858 58.3088L87.0774 59.1192L87.2795 59.3218L88.0879 58.5114L88.8963 59.3218L89.0984 59.1192L88.29 58.3088L89.0984 57.4984Z" fill="black"/>
<path fill-rule="evenodd" clip-rule="evenodd" d="M93.4504 57.4984L93.2483 57.2958L92.4398 58.1062L91.6314 57.2958L91.4293 57.4984L92.2377 58.3088L91.4293 59.1192L91.6314 59.3218L92.4398 58.5114L93.2483 59.3218L93.4504 59.1192L92.6419 58.3088L93.4504 57.4984Z" fill="black"/>
<path fill-rule="evenodd" clip-rule="evenodd" d="M97.8023 57.4984L97.6002 57.2958L96.7918 58.1062L95.9834 57.2958L95.7812 57.4984L96.5897 58.3088L95.7812 59.1192L95.9834 59.3218L96.7918 58.5114L97.6002 59.3218L97.8023 59.1192L96.9939 58.3088L97.8023 57.4984Z" fill="black"/>
<path fill-rule="evenodd" clip-rule="evenodd" d="M101.965 57.4984L101.763 57.2958L100.954 58.1062L100.146 57.2958L99.944 57.4984L100.752 58.3088L99.944 59.1192L100.146 59.3218L100.954 58.5114L101.763 59.3218L101.965 59.1192L101.157 58.3088L101.965 57.4984Z" fill="black"/>
</g>
</svg>
