<svg width="584" height="375" viewBox="0 0 584 375" fill="none" xmlns="http://www.w3.org/2000/svg">
<g filter="url(#filter0_d_0_5986)">
<rect x="8.31778" y="8" width="567.23" height="358.712" rx="4.90872" fill="#FBFCFF"/>
</g>
<g filter="url(#filter1_d_0_5986)">
<rect x="8.31778" y="8" width="153.261" height="358.712" rx="4.90872" fill="#FBFCFF"/>
</g>
<path d="M8.31778 12.9087C8.31778 10.1977 10.5155 8 13.2265 8H570.639C573.35 8 575.548 10.1977 575.548 12.9087V38.6218H8.31778V12.9087Z" fill="#EBEBEB"/>
<ellipse cx="32.316" cy="23.3109" rx="2.18166" ry="2.18727" fill="#2ECC71"/>
<ellipse cx="41.0426" cy="23.3109" rx="2.18166" ry="2.18727" fill="#4C7BF3"/>
<ellipse cx="49.7692" cy="23.3109" rx="2.18166" ry="2.18727" fill="#3B4E5F"/>
<rect x="30.1343" y="59.4009" width="78.5396" height="13.1236" rx="6.56181" fill="#DEE2E6"/>
<rect x="30.1343" y="119.004" width="65.4497" height="5.46817" rx="2.73409" fill="#CAD3DB"/>
<rect x="30.1343" y="128.847" width="87.2662" height="5.46817" rx="2.73409" fill="#CAD3DB"/>
<rect x="30.1343" y="156.188" width="78.5396" height="5.46817" rx="2.73409" fill="#CAD3DB"/>
<rect x="30.1343" y="166.03" width="65.4497" height="5.46817" rx="2.73409" fill="#CAD3DB"/>
<rect x="30.1343" y="193.371" width="65.4497" height="5.46817" rx="2.73409" fill="#CAD3DB"/>
<rect x="30.1343" y="220.712" width="65.4497" height="5.46817" rx="2.73409" fill="#CAD3DB"/>
<rect x="30.1343" y="230.555" width="74.1763" height="5.46817" rx="2.73409" fill="#CAD3DB"/>
<g filter="url(#filter2_d_0_5986)">
<rect x="182.85" y="97.1312" width="164.715" height="100.068" rx="3.27248" fill="white"/>
</g>
<rect x="191.577" y="110.255" width="43.6331" height="5.46817" rx="2.73409" fill="#CAD3DB"/>
<rect x="191.577" y="120.098" width="109.083" height="2.73409" rx="1.36704" fill="#CAD3DB"/>
<rect x="191.577" y="133.768" width="21.8166" height="2.18727" rx="1.09363" fill="#CAD3DB"/>
<rect x="226.483" y="133.768" width="21.8166" height="2.18727" rx="1.09363" fill="#CAD3DB"/>
<rect x="191.577" y="138.143" width="13.0899" height="2.18727" rx="1.09363" fill="#CAD3DB"/>
<rect x="226.483" y="138.143" width="13.0899" height="2.18727" rx="1.09363" fill="#CAD3DB"/>
<rect x="261.39" y="133.768" width="21.8166" height="2.18727" rx="1.09363" fill="#CAD3DB"/>
<rect x="261.39" y="138.143" width="13.0899" height="2.18727" rx="1.09363" fill="#CAD3DB"/>
<path d="M182.85 168.217V168.217L203.843 162.226L224.509 168.217L250.444 156.461L265.208 162.226L304.674 152.984H318.779L347.565 143.611" stroke="#557490" stroke-width="1.04048"/>
<ellipse cx="335.021" cy="112.989" rx="4.36331" ry="4.37454" fill="#4C7BF3"/>
<path fill-rule="evenodd" clip-rule="evenodd" d="M334.293 113.923L333.275 112.863L332.936 113.216L334.293 114.629L337.202 111.601L336.863 111.248L334.293 113.923Z" fill="white"/>
<g filter="url(#filter3_d_0_5986)">
<rect x="182.85" y="223.446" width="164.715" height="100.068" rx="3.27248" fill="white"/>
</g>
<rect x="191.577" y="236.57" width="43.6331" height="5.46817" rx="2.73409" fill="#CAD3DB"/>
<rect x="191.577" y="246.412" width="109.083" height="2.73409" rx="1.36704" fill="#CAD3DB"/>
<rect x="191.577" y="260.083" width="21.8166" height="2.18727" rx="1.09363" fill="#CAD3DB"/>
<rect x="226.483" y="260.083" width="21.8166" height="2.18727" rx="1.09363" fill="#CAD3DB"/>
<rect x="191.577" y="264.457" width="13.0899" height="2.18727" rx="1.09363" fill="#CAD3DB"/>
<rect x="226.483" y="264.457" width="13.0899" height="2.18727" rx="1.09363" fill="#CAD3DB"/>
<rect x="261.39" y="260.083" width="21.8166" height="2.18727" rx="1.09363" fill="#CAD3DB"/>
<rect x="261.39" y="264.457" width="13.0899" height="2.18727" rx="1.09363" fill="#CAD3DB"/>
<path d="M182.85 289.339L204.667 294.532L228.352 288.541L248.3 291.729L265.208 284.408L291.933 287.841L311.714 280.149L331.433 279.202L347.565 269.926" stroke="#557490" stroke-width="1.04048"/>
<ellipse cx="335.021" cy="239.304" rx="4.36331" ry="4.37454" fill="#4C7BF3"/>
<path fill-rule="evenodd" clip-rule="evenodd" d="M334.293 240.238L333.275 239.178L332.936 239.531L334.293 240.944L337.202 237.916L336.863 237.562L334.293 240.238Z" fill="white"/>
<g filter="url(#filter4_d_0_5986)">
<rect x="373.745" y="97.1312" width="164.715" height="100.068" rx="3.27248" fill="white"/>
</g>
<rect x="382.472" y="110.255" width="43.6331" height="5.46817" rx="2.73409" fill="#CAD3DB"/>
<rect x="382.472" y="120.098" width="109.083" height="2.73409" rx="1.36704" fill="#CAD3DB"/>
<rect x="382.472" y="133.768" width="21.8166" height="2.18727" rx="1.09363" fill="#CAD3DB"/>
<rect x="417.378" y="133.768" width="21.8166" height="2.18727" rx="1.09363" fill="#CAD3DB"/>
<rect x="382.472" y="138.143" width="13.0899" height="2.18727" rx="1.09363" fill="#CAD3DB"/>
<rect x="417.378" y="138.143" width="13.0899" height="2.18727" rx="1.09363" fill="#CAD3DB"/>
<rect x="452.285" y="133.768" width="21.8166" height="2.18727" rx="1.09363" fill="#CAD3DB"/>
<rect x="452.285" y="138.143" width="13.0899" height="2.18727" rx="1.09363" fill="#CAD3DB"/>
<path d="M373.745 162.226V168.218L393.38 165.177L415.125 157.785L435.099 162.226H456.102L479.653 159.879L500.561 162.226L520.666 157.785L538.46 151.654" stroke="#557490" stroke-width="1.04048"/>
<ellipse cx="525.915" cy="112.989" rx="4.36331" ry="4.37454" fill="#4C7BF3"/>
<path fill-rule="evenodd" clip-rule="evenodd" d="M525.188 113.923L524.17 112.863L523.831 113.216L525.188 114.629L528.097 111.601L527.758 111.248L525.188 113.923Z" fill="white"/>
<g filter="url(#filter5_d_0_5986)">
<rect x="373.745" y="223.446" width="164.715" height="100.068" rx="3.27248" fill="white"/>
</g>
<rect x="382.472" y="236.57" width="43.6331" height="5.46817" rx="2.73409" fill="#CAD3DB"/>
<rect x="382.472" y="246.412" width="109.083" height="2.73409" rx="1.36704" fill="#CAD3DB"/>
<rect x="382.472" y="260.083" width="21.8166" height="2.18727" rx="1.09363" fill="#CAD3DB"/>
<rect x="417.378" y="260.083" width="21.8166" height="2.18727" rx="1.09363" fill="#CAD3DB"/>
<rect x="382.472" y="264.457" width="13.0899" height="2.18727" rx="1.09363" fill="#CAD3DB"/>
<rect x="417.378" y="264.457" width="13.0899" height="2.18727" rx="1.09363" fill="#CAD3DB"/>
<rect x="452.285" y="260.083" width="21.8166" height="2.18727" rx="1.09363" fill="#CAD3DB"/>
<rect x="452.285" y="264.457" width="13.0899" height="2.18727" rx="1.09363" fill="#CAD3DB"/>
<path d="M373.745 294.532L393.38 292.328L415.404 294.532L439.195 294.905L456.102 288.541L472.274 294.905L499.302 288.541L509.673 279.298L524.815 280.646L538.46 269.926" stroke="#557490" stroke-width="1.04048"/>
<ellipse cx="525.915" cy="239.304" rx="4.36331" ry="4.37454" fill="#4C7BF3"/>
<path fill-rule="evenodd" clip-rule="evenodd" d="M525.188 240.238L524.17 239.178L523.831 239.531L525.188 240.944L528.097 237.916L527.758 237.562L525.188 240.238Z" fill="white"/>
<path fill-rule="evenodd" clip-rule="evenodd" d="M123.182 64.3221L120.673 66.8375L118.164 64.3221L117.401 65.0877L120.673 68.3686L123.945 65.0877L123.182 64.3221Z" fill="#4C7BF3"/>
<defs>
<filter id="filter0_d_0_5986" x="0.31778" y="0" width="583.23" height="374.712" filterUnits="userSpaceOnUse" color-interpolation-filters="sRGB">
<feFlood flood-opacity="0" result="BackgroundImageFix"/>
<feColorMatrix in="SourceAlpha" type="matrix" values="0 0 0 0 0 0 0 0 0 0 0 0 0 0 0 0 0 0 127 0" result="hardAlpha"/>
<feMorphology radius="2" operator="dilate" in="SourceAlpha" result="effect1_dropShadow_0_5986"/>
<feOffset/>
<feGaussianBlur stdDeviation="3"/>
<feColorMatrix type="matrix" values="0 0 0 0 0 0 0 0 0 0 0 0 0 0 0 0 0 0 0.06362 0"/>
<feBlend mode="normal" in2="BackgroundImageFix" result="effect1_dropShadow_0_5986"/>
<feBlend mode="normal" in="SourceGraphic" in2="effect1_dropShadow_0_5986" result="shape"/>
</filter>
<filter id="filter1_d_0_5986" x="0.31778" y="0" width="169.261" height="374.712" filterUnits="userSpaceOnUse" color-interpolation-filters="sRGB">
<feFlood flood-opacity="0" result="BackgroundImageFix"/>
<feColorMatrix in="SourceAlpha" type="matrix" values="0 0 0 0 0 0 0 0 0 0 0 0 0 0 0 0 0 0 127 0" result="hardAlpha"/>
<feMorphology radius="2" operator="dilate" in="SourceAlpha" result="effect1_dropShadow_0_5986"/>
<feOffset/>
<feGaussianBlur stdDeviation="3"/>
<feColorMatrix type="matrix" values="0 0 0 0 0 0 0 0 0 0 0 0 0 0 0 0 0 0 0.06362 0"/>
<feBlend mode="normal" in2="BackgroundImageFix" result="effect1_dropShadow_0_5986"/>
<feBlend mode="normal" in="SourceGraphic" in2="effect1_dropShadow_0_5986" result="shape"/>
</filter>
<filter id="filter2_d_0_5986" x="176.85" y="91.1312" width="176.715" height="112.068" filterUnits="userSpaceOnUse" color-interpolation-filters="sRGB">
<feFlood flood-opacity="0" result="BackgroundImageFix"/>
<feColorMatrix in="SourceAlpha" type="matrix" values="0 0 0 0 0 0 0 0 0 0 0 0 0 0 0 0 0 0 127 0" result="hardAlpha"/>
<feMorphology radius="2" operator="dilate" in="SourceAlpha" result="effect1_dropShadow_0_5986"/>
<feOffset/>
<feGaussianBlur stdDeviation="2"/>
<feColorMatrix type="matrix" values="0 0 0 0 0 0 0 0 0 0 0 0 0 0 0 0 0 0 0.0619537 0"/>
<feBlend mode="normal" in2="BackgroundImageFix" result="effect1_dropShadow_0_5986"/>
<feBlend mode="normal" in="SourceGraphic" in2="effect1_dropShadow_0_5986" result="shape"/>
</filter>
<filter id="filter3_d_0_5986" x="176.85" y="217.446" width="176.715" height="112.068" filterUnits="userSpaceOnUse" color-interpolation-filters="sRGB">
<feFlood flood-opacity="0" result="BackgroundImageFix"/>
<feColorMatrix in="SourceAlpha" type="matrix" values="0 0 0 0 0 0 0 0 0 0 0 0 0 0 0 0 0 0 127 0" result="hardAlpha"/>
<feMorphology radius="2" operator="dilate" in="SourceAlpha" result="effect1_dropShadow_0_5986"/>
<feOffset/>
<feGaussianBlur stdDeviation="2"/>
<feColorMatrix type="matrix" values="0 0 0 0 0 0 0 0 0 0 0 0 0 0 0 0 0 0 0.0619537 0"/>
<feBlend mode="normal" in2="BackgroundImageFix" result="effect1_dropShadow_0_5986"/>
<feBlend mode="normal" in="SourceGraphic" in2="effect1_dropShadow_0_5986" result="shape"/>
</filter>
<filter id="filter4_d_0_5986" x="367.745" y="91.1312" width="176.715" height="112.068" filterUnits="userSpaceOnUse" color-interpolation-filters="sRGB">
<feFlood flood-opacity="0" result="BackgroundImageFix"/>
<feColorMatrix in="SourceAlpha" type="matrix" values="0 0 0 0 0 0 0 0 0 0 0 0 0 0 0 0 0 0 127 0" result="hardAlpha"/>
<feMorphology radius="2" operator="dilate" in="SourceAlpha" result="effect1_dropShadow_0_5986"/>
<feOffset/>
<feGaussianBlur stdDeviation="2"/>
<feColorMatrix type="matrix" values="0 0 0 0 0 0 0 0 0 0 0 0 0 0 0 0 0 0 0.0619537 0"/>
<feBlend mode="normal" in2="BackgroundImageFix" result="effect1_dropShadow_0_5986"/>
<feBlend mode="normal" in="SourceGraphic" in2="effect1_dropShadow_0_5986" result="shape"/>
</filter>
<filter id="filter5_d_0_5986" x="367.745" y="217.446" width="176.715" height="112.068" filterUnits="userSpaceOnUse" color-interpolation-filters="sRGB">
<feFlood flood-opacity="0" result="BackgroundImageFix"/>
<feColorMatrix in="SourceAlpha" type="matrix" values="0 0 0 0 0 0 0 0 0 0 0 0 0 0 0 0 0 0 127 0" result="hardAlpha"/>
<feMorphology radius="2" operator="dilate" in="SourceAlpha" result="effect1_dropShadow_0_5986"/>
<feOffset/>
<feGaussianBlur stdDeviation="2"/>
<feColorMatrix type="matrix" values="0 0 0 0 0 0 0 0 0 0 0 0 0 0 0 0 0 0 0.0619537 0"/>
<feBlend mode="normal" in2="BackgroundImageFix" result="effect1_dropShadow_0_5986"/>
<feBlend mode="normal" in="SourceGraphic" in2="effect1_dropShadow_0_5986" result="shape"/>
</filter>
</defs>
</svg>
