<svg width="293" height="188" viewBox="0 0 293 188" fill="none" xmlns="http://www.w3.org/2000/svg">
<g filter="url(#filter0_d_0_4443)">
<rect x="4.65894" y="4" width="283.615" height="179.824" rx="2.45436" fill="#FBFCFF"/>
</g>
<g filter="url(#filter1_d_0_4443)">
<rect x="4.65894" y="4" width="76.6306" height="179.824" rx="2.45436" fill="#FBFCFF"/>
</g>
<path d="M4.65894 6.45436C4.65894 5.09886 5.75779 4 7.1133 4H285.82C287.175 4 288.274 5.09886 288.274 6.45436V19.3509H4.65894V6.45436Z" fill="#EBEBEB"/>
<ellipse cx="16.6581" cy="11.6755" rx="1.09083" ry="1.09649" fill="#2ECC71"/>
<ellipse cx="21.0214" cy="11.6755" rx="1.09083" ry="1.09649" fill="#4C7BF3"/>
<ellipse cx="25.3847" cy="11.6755" rx="1.09083" ry="1.09649" fill="#3B4E5F"/>
<rect x="15.5673" y="29.7676" width="39.2698" height="6.57894" rx="3.28947" fill="#DEE2E6"/>
<rect x="15.5673" y="59.6469" width="32.7248" height="2.74123" rx="1.37061" fill="#CAD3DB"/>
<rect x="15.5673" y="64.5811" width="43.6331" height="2.74123" rx="1.37061" fill="#CAD3DB"/>
<rect x="15.5673" y="78.2872" width="39.2698" height="2.74123" rx="1.37061" fill="#CAD3DB"/>
<rect x="15.5673" y="83.2214" width="32.7248" height="2.74123" rx="1.37061" fill="#CAD3DB"/>
<rect x="15.5673" y="96.9275" width="32.7248" height="2.74123" rx="1.37061" fill="#CAD3DB"/>
<rect x="15.5673" y="110.634" width="32.7248" height="2.74123" rx="1.37061" fill="#CAD3DB"/>
<rect x="15.5673" y="115.568" width="37.0881" height="2.74123" rx="1.37061" fill="#CAD3DB"/>
<g filter="url(#filter2_d_0_4443)">
<rect x="91.9252" y="48.682" width="82.3575" height="50.1644" rx="1.63624" fill="white"/>
</g>
<rect x="96.2885" y="55.261" width="21.8166" height="2.74123" rx="1.37061" fill="#CAD3DB"/>
<rect x="96.2885" y="60.1952" width="54.5414" height="1.37061" rx="0.685306" fill="#CAD3DB"/>
<rect x="96.2885" y="67.0482" width="10.9083" height="1.09649" rx="0.548245" fill="#CAD3DB"/>
<rect x="113.742" y="67.0482" width="10.9083" height="1.09649" rx="0.548245" fill="#CAD3DB"/>
<rect x="96.2885" y="69.2412" width="6.54497" height="1.09649" rx="0.548245" fill="#CAD3DB"/>
<rect x="113.742" y="69.2412" width="6.54497" height="1.09649" rx="0.548245" fill="#CAD3DB"/>
<rect x="131.195" y="67.0482" width="10.9083" height="1.09649" rx="0.548245" fill="#CAD3DB"/>
<rect x="131.195" y="69.2412" width="6.54497" height="1.09649" rx="0.548245" fill="#CAD3DB"/>
<path d="M91.9252 84.3179V84.3179L102.422 81.3144L112.755 84.3179L125.722 78.4243L133.104 81.3144L152.837 76.6811H159.889L174.283 71.9824" stroke="#557490" stroke-width="0.520238"/>
<ellipse cx="168.01" cy="56.6316" rx="2.18166" ry="2.19298" fill="#4C7BF3"/>
<path fill-rule="evenodd" clip-rule="evenodd" d="M167.647 57.0996L167.138 56.5683L166.968 56.7454L167.647 57.4539L169.101 55.9357L168.932 55.7585L167.647 57.0996Z" fill="white"/>
<g filter="url(#filter3_d_0_4443)">
<rect x="91.9252" y="112.004" width="82.3575" height="50.1644" rx="1.63624" fill="white"/>
</g>
<rect x="96.2885" y="118.583" width="21.8166" height="2.74123" rx="1.37061" fill="#CAD3DB"/>
<rect x="96.2885" y="123.517" width="54.5414" height="1.37061" rx="0.685306" fill="#CAD3DB"/>
<rect x="96.2885" y="130.37" width="10.9083" height="1.09649" rx="0.548245" fill="#CAD3DB"/>
<rect x="113.742" y="130.37" width="10.9083" height="1.09649" rx="0.548245" fill="#CAD3DB"/>
<rect x="96.2885" y="132.563" width="6.54497" height="1.09649" rx="0.548245" fill="#CAD3DB"/>
<rect x="113.742" y="132.563" width="6.54497" height="1.09649" rx="0.548245" fill="#CAD3DB"/>
<rect x="131.195" y="130.37" width="10.9083" height="1.09649" rx="0.548245" fill="#CAD3DB"/>
<rect x="131.195" y="132.563" width="6.54497" height="1.09649" rx="0.548245" fill="#CAD3DB"/>
<path d="M91.9252 145.037L102.833 147.64L114.676 144.637L124.65 146.235L133.104 142.565L146.467 144.286L156.357 140.43L166.217 139.955L174.283 135.305" stroke="#557490" stroke-width="0.520238"/>
<ellipse cx="168.01" cy="119.954" rx="2.18166" ry="2.19298" fill="#4C7BF3"/>
<path fill-rule="evenodd" clip-rule="evenodd" d="M167.647 120.422L167.138 119.891L166.968 120.068L167.647 120.776L169.101 119.258L168.932 119.081L167.647 120.422Z" fill="white"/>
<g filter="url(#filter4_d_0_4443)">
<rect x="187.373" y="48.682" width="82.3575" height="50.1644" rx="1.63624" fill="white"/>
</g>
<rect x="191.736" y="55.261" width="21.8166" height="2.74123" rx="1.37061" fill="#CAD3DB"/>
<rect x="191.736" y="60.1952" width="54.5414" height="1.37061" rx="0.685306" fill="#CAD3DB"/>
<rect x="191.736" y="67.0482" width="10.9083" height="1.09649" rx="0.548245" fill="#CAD3DB"/>
<rect x="209.189" y="67.0482" width="10.9083" height="1.09649" rx="0.548245" fill="#CAD3DB"/>
<rect x="191.736" y="69.2412" width="6.54497" height="1.09649" rx="0.548245" fill="#CAD3DB"/>
<rect x="209.189" y="69.2412" width="6.54497" height="1.09649" rx="0.548245" fill="#CAD3DB"/>
<rect x="226.642" y="67.0482" width="10.9083" height="1.09649" rx="0.548245" fill="#CAD3DB"/>
<rect x="226.642" y="69.2412" width="6.54497" height="1.09649" rx="0.548245" fill="#CAD3DB"/>
<path d="M187.373 81.3144V84.318L197.19 82.7936L208.063 79.0879L218.049 81.3144H228.551L240.327 80.1379L250.78 81.3144L260.833 79.0879L269.73 76.0148" stroke="#557490" stroke-width="0.520238"/>
<ellipse cx="263.458" cy="56.6316" rx="2.18166" ry="2.19298" fill="#4C7BF3"/>
<path fill-rule="evenodd" clip-rule="evenodd" d="M263.094 57.0996L262.585 56.5683L262.415 56.7454L263.094 57.4539L264.549 55.9357L264.379 55.7585L263.094 57.0996Z" fill="white"/>
<g filter="url(#filter5_d_0_4443)">
<rect x="187.373" y="112.004" width="82.3575" height="50.1644" rx="1.63624" fill="white"/>
</g>
<rect x="191.736" y="118.583" width="21.8166" height="2.74123" rx="1.37061" fill="#CAD3DB"/>
<rect x="191.736" y="123.517" width="54.5414" height="1.37061" rx="0.685306" fill="#CAD3DB"/>
<rect x="191.736" y="130.37" width="10.9083" height="1.09649" rx="0.548245" fill="#CAD3DB"/>
<rect x="209.189" y="130.37" width="10.9083" height="1.09649" rx="0.548245" fill="#CAD3DB"/>
<rect x="191.736" y="132.563" width="6.54497" height="1.09649" rx="0.548245" fill="#CAD3DB"/>
<rect x="209.189" y="132.563" width="6.54497" height="1.09649" rx="0.548245" fill="#CAD3DB"/>
<rect x="226.642" y="130.37" width="10.9083" height="1.09649" rx="0.548245" fill="#CAD3DB"/>
<rect x="226.642" y="132.563" width="6.54497" height="1.09649" rx="0.548245" fill="#CAD3DB"/>
<path d="M187.373 147.64L197.19 146.535L208.202 147.64L220.097 147.827L228.551 144.637L236.637 147.827L250.151 144.637L255.337 140.003L262.908 140.679L269.73 135.305" stroke="#557490" stroke-width="0.520238"/>
<ellipse cx="263.458" cy="119.954" rx="2.18166" ry="2.19298" fill="#4C7BF3"/>
<path fill-rule="evenodd" clip-rule="evenodd" d="M263.094 120.422L262.585 119.891L262.415 120.068L263.094 120.776L264.549 119.258L264.379 119.081L263.094 120.422Z" fill="white"/>
<path fill-rule="evenodd" clip-rule="evenodd" d="M62.091 32.2346L60.8366 33.4956L59.5821 32.2346L59.2003 32.6184L60.8366 34.2631L62.4728 32.6184L62.091 32.2346Z" fill="#4C7BF3"/>
<defs>
<filter id="filter0_d_0_4443" x="0.658936" y="0" width="291.615" height="187.824" filterUnits="userSpaceOnUse" color-interpolation-filters="sRGB">
<feFlood flood-opacity="0" result="BackgroundImageFix"/>
<feColorMatrix in="SourceAlpha" type="matrix" values="0 0 0 0 0 0 0 0 0 0 0 0 0 0 0 0 0 0 127 0" result="hardAlpha"/>
<feMorphology radius="1" operator="dilate" in="SourceAlpha" result="effect1_dropShadow_0_4443"/>
<feOffset/>
<feGaussianBlur stdDeviation="1.5"/>
<feColorMatrix type="matrix" values="0 0 0 0 0 0 0 0 0 0 0 0 0 0 0 0 0 0 0.06362 0"/>
<feBlend mode="normal" in2="BackgroundImageFix" result="effect1_dropShadow_0_4443"/>
<feBlend mode="normal" in="SourceGraphic" in2="effect1_dropShadow_0_4443" result="shape"/>
</filter>
<filter id="filter1_d_0_4443" x="0.658936" y="0" width="84.6306" height="187.824" filterUnits="userSpaceOnUse" color-interpolation-filters="sRGB">
<feFlood flood-opacity="0" result="BackgroundImageFix"/>
<feColorMatrix in="SourceAlpha" type="matrix" values="0 0 0 0 0 0 0 0 0 0 0 0 0 0 0 0 0 0 127 0" result="hardAlpha"/>
<feMorphology radius="1" operator="dilate" in="SourceAlpha" result="effect1_dropShadow_0_4443"/>
<feOffset/>
<feGaussianBlur stdDeviation="1.5"/>
<feColorMatrix type="matrix" values="0 0 0 0 0 0 0 0 0 0 0 0 0 0 0 0 0 0 0.06362 0"/>
<feBlend mode="normal" in2="BackgroundImageFix" result="effect1_dropShadow_0_4443"/>
<feBlend mode="normal" in="SourceGraphic" in2="effect1_dropShadow_0_4443" result="shape"/>
</filter>
<filter id="filter2_d_0_4443" x="88.9252" y="45.682" width="88.3575" height="56.1644" filterUnits="userSpaceOnUse" color-interpolation-filters="sRGB">
<feFlood flood-opacity="0" result="BackgroundImageFix"/>
<feColorMatrix in="SourceAlpha" type="matrix" values="0 0 0 0 0 0 0 0 0 0 0 0 0 0 0 0 0 0 127 0" result="hardAlpha"/>
<feMorphology radius="1" operator="dilate" in="SourceAlpha" result="effect1_dropShadow_0_4443"/>
<feOffset/>
<feGaussianBlur stdDeviation="1"/>
<feColorMatrix type="matrix" values="0 0 0 0 0 0 0 0 0 0 0 0 0 0 0 0 0 0 0.0619537 0"/>
<feBlend mode="normal" in2="BackgroundImageFix" result="effect1_dropShadow_0_4443"/>
<feBlend mode="normal" in="SourceGraphic" in2="effect1_dropShadow_0_4443" result="shape"/>
</filter>
<filter id="filter3_d_0_4443" x="88.9252" y="109.004" width="88.3575" height="56.1644" filterUnits="userSpaceOnUse" color-interpolation-filters="sRGB">
<feFlood flood-opacity="0" result="BackgroundImageFix"/>
<feColorMatrix in="SourceAlpha" type="matrix" values="0 0 0 0 0 0 0 0 0 0 0 0 0 0 0 0 0 0 127 0" result="hardAlpha"/>
<feMorphology radius="1" operator="dilate" in="SourceAlpha" result="effect1_dropShadow_0_4443"/>
<feOffset/>
<feGaussianBlur stdDeviation="1"/>
<feColorMatrix type="matrix" values="0 0 0 0 0 0 0 0 0 0 0 0 0 0 0 0 0 0 0.0619537 0"/>
<feBlend mode="normal" in2="BackgroundImageFix" result="effect1_dropShadow_0_4443"/>
<feBlend mode="normal" in="SourceGraphic" in2="effect1_dropShadow_0_4443" result="shape"/>
</filter>
<filter id="filter4_d_0_4443" x="184.373" y="45.682" width="88.3574" height="56.1644" filterUnits="userSpaceOnUse" color-interpolation-filters="sRGB">
<feFlood flood-opacity="0" result="BackgroundImageFix"/>
<feColorMatrix in="SourceAlpha" type="matrix" values="0 0 0 0 0 0 0 0 0 0 0 0 0 0 0 0 0 0 127 0" result="hardAlpha"/>
<feMorphology radius="1" operator="dilate" in="SourceAlpha" result="effect1_dropShadow_0_4443"/>
<feOffset/>
<feGaussianBlur stdDeviation="1"/>
<feColorMatrix type="matrix" values="0 0 0 0 0 0 0 0 0 0 0 0 0 0 0 0 0 0 0.0619537 0"/>
<feBlend mode="normal" in2="BackgroundImageFix" result="effect1_dropShadow_0_4443"/>
<feBlend mode="normal" in="SourceGraphic" in2="effect1_dropShadow_0_4443" result="shape"/>
</filter>
<filter id="filter5_d_0_4443" x="184.373" y="109.004" width="88.3574" height="56.1644" filterUnits="userSpaceOnUse" color-interpolation-filters="sRGB">
<feFlood flood-opacity="0" result="BackgroundImageFix"/>
<feColorMatrix in="SourceAlpha" type="matrix" values="0 0 0 0 0 0 0 0 0 0 0 0 0 0 0 0 0 0 127 0" result="hardAlpha"/>
<feMorphology radius="1" operator="dilate" in="SourceAlpha" result="effect1_dropShadow_0_4443"/>
<feOffset/>
<feGaussianBlur stdDeviation="1"/>
<feColorMatrix type="matrix" values="0 0 0 0 0 0 0 0 0 0 0 0 0 0 0 0 0 0 0.0619537 0"/>
<feBlend mode="normal" in2="BackgroundImageFix" result="effect1_dropShadow_0_4443"/>
<feBlend mode="normal" in="SourceGraphic" in2="effect1_dropShadow_0_4443" result="shape"/>
</filter>
</defs>
</svg>
